<?xml version="1.0" encoding="UTF-8" standalone="no"?>
<!-- Created with Inkscape (http://www.inkscape.org/) -->

<svg
   xmlns:ns0="http://www.iki.fi/pav/software/textext/"
   xmlns:osb="http://www.openswatchbook.org/uri/2009/osb"
   xmlns:dc="http://purl.org/dc/elements/1.1/"
   xmlns:cc="http://creativecommons.org/ns#"
   xmlns:rdf="http://www.w3.org/1999/02/22-rdf-syntax-ns#"
   xmlns:svg="http://www.w3.org/2000/svg"
   xmlns="http://www.w3.org/2000/svg"
   xmlns:xlink="http://www.w3.org/1999/xlink"
   xmlns:sodipodi="http://sodipodi.sourceforge.net/DTD/sodipodi-0.dtd"
   xmlns:inkscape="http://www.inkscape.org/namespaces/inkscape"
   width="744.09448819"
   height="1052.3622047"
   id="svg2"
   version="1.1"
   inkscape:version="0.48.4 r9939"
   sodipodi:docname="LvsM.svg"
   inkscape:export-filename="/home/simen/Dropbox/Phd/geilo/figures/LvsM1.png"
   inkscape:export-xdpi="90"
   inkscape:export-ydpi="90">
  <sodipodi:namedview
     id="base"
     pagecolor="#ffffff"
     bordercolor="#666666"
     borderopacity="1.0"
     inkscape:pageopacity="0.0"
     inkscape:pageshadow="2"
     inkscape:zoom="1.0240234"
     inkscape:cx="415.83362"
     inkscape:cy="840.8487"
     inkscape:document-units="px"
     inkscape:current-layer="content"
     showgrid="false"
     inkscape:window-width="1600"
     inkscape:window-height="876"
     inkscape:window-x="0"
     inkscape:window-y="24"
     inkscape:window-maximized="1" />
  <defs
     id="defs4">
    <marker
       style="overflow:visible"
       id="Arrow1Lstart"
       refX="0.0"
       refY="0.0"
       orient="auto"
       inkscape:stockid="Arrow1Lstart">
      <path
         transform="scale(0.8) translate(12.5,0)"
         style="fill-rule:evenodd;stroke:#000000;stroke-width:1.0pt"
         d="M 0.0,0.0 L 5.0,-5.0 L -12.5,0.0 L 5.0,5.0 L 0.0,0.0 z "
         id="path4160" />
    </marker>
    <marker
       style="overflow:visible;"
       id="Arrow1Lend"
       refX="0.0"
       refY="0.0"
       orient="auto"
       inkscape:stockid="Arrow1Lend">
      <path
         transform="scale(0.8) rotate(180) translate(12.5,0)"
         style="fill-rule:evenodd;stroke:#000000;stroke-width:1.0pt;"
         d="M 0.0,0.0 L 5.0,-5.0 L -12.5,0.0 L 5.0,5.0 L 0.0,0.0 z "
         id="path4163" />
    </marker>
    <linearGradient
       osb:paint="solid"
       id="linearGradient3970">
      <stop
         id="stop3972"
         offset="0"
         style="stop-color:#ff0000;stop-opacity:1;" />
    </linearGradient>
    <linearGradient
       gradientTransform="matrix(1.0814733,0,0,1.0754678,-24.616243,-19.243404)"
       gradientUnits="userSpaceOnUse"
       y2="224.25614"
       x2="350.10137"
       y1="224.25614"
       x1="263.16584"
       id="linearGradient3974"
       xlink:href="#linearGradient3970"
       inkscape:collect="always" />
  </defs>
  <metadata
     id="metadata7">
    <rdf:RDF>
      <cc:Work
         rdf:about="">
        <dc:format>image/svg+xml</dc:format>
        <dc:type
           rdf:resource="http://purl.org/dc/dcmitype/StillImage" />
        <dc:title />
      </cc:Work>
    </rdf:RDF>
  </metadata>
  <g
     inkscape:label="Layer 1"
     inkscape:groupmode="layer"
     id="layer1">
    <g
       id="content"
       transform="matrix(3.000000,0,0,-3.000000,-600.000000,2250.000000)"
       xml:space="preserve"
       stroke="black"
       stroke-linecap="butt"
       stroke-linejoin="miter"
       stroke-miterlimit="10.433"
       stroke-dasharray="none"
       stroke-dashoffset="0"
       stroke-opacity="1"
       fill="none"
       fill-rule="evenodd"
       fill-opacity="1"
       font-style="normal"
       font-variant="normal"
       font-weight="normal"
       font-stretch="normal"
       font-size-adjust="none"
       letter-spacing="normal"
       word-spacing="normal"
       text-anchor="start"
       ns0:text="  \\begin{tabular}{lccccccccccc}\n   Order, M &amp; 0 &amp; 1 &amp; 2 &amp; 3 &amp; 4 &amp; 5 &amp; 6 &amp; 7 &amp; 8 \\\\\\\\\n   Quad  &amp; 1 &amp; 4 &amp; 9 &amp; 16 &amp; 25 &amp; 36 &amp; 49 &amp; 64 &amp; 81 \\\\\\\\\n   Poly  &amp; 1 &amp; 3 &amp; 6 &amp; 10 &amp; 15 &amp; 21 &amp; 28 &amp; 37 &amp; 37\n  \\end{tabular}"
       ns0:preamble=""><path
         d="M286.68,711.9 L286.68,712.05 L286.67,712.2 L286.67,712.34 L286.66,712.49 L286.65,712.64 L286.64,712.79 L286.63,712.94 L286.61,713.08 L286.58,713.23 L286.56,713.37 L286.52,713.52 L286.49,713.66 L286.44,713.8 L286.4,713.94 L286.34,714.08 L286.31,714.15 L286.28,714.22 C285.82,715.18,285,715.34,284.59,715.34 C283.99,715.34,283.26,715.08,282.86,714.15 C282.54,713.47,282.49,712.69,282.49,711.9 C282.49,711.15,282.53,710.26,282.93,709.5 C283.36,708.7,284.09,708.5,284.58,708.5 V708.72 C284.19,708.72,283.6,708.97,283.42,709.92 C283.31,710.52,283.31,711.43,283.31,712.02 C283.31,712.65,283.31,713.31,283.39,713.84 C283.58,715.03,284.33,715.12,284.58,715.12 C284.9,715.12,285.56,714.94,285.75,713.95 C285.85,713.4,285.85,712.64,285.85,712.02 C285.85,711.27,285.85,710.6,285.74,709.96 C285.59,709.02,285.02,708.72,284.58,708.72 H284.58 V708.5 C285.11,708.5,285.87,708.71,286.31,709.65 C286.63,710.34,286.68,711.11,286.68,711.9 Z "
         stroke-width="0"
         fill="black"
         id="path3773" /><path
         d="M301.96,715.08 L301.96,715.09 L301.96,715.1 L301.96,715.11 L301.96,715.12 L301.96,715.13 L301.96,715.14 L301.96,715.15 L301.96,715.16 L301.96,715.17 L301.96,715.17 L301.96,715.18 L301.96,715.19 L301.96,715.2 L301.96,715.2 L301.96,715.21 L301.96,715.22 L301.96,715.22 L301.96,715.23 L301.95,715.24 L301.95,715.25 L301.95,715.26 L301.95,715.27 L301.94,715.28 L301.94,715.29 L301.93,715.3 L301.93,715.3 L301.92,715.31 L301.91,715.31 L301.91,715.32 L301.9,715.32 L301.89,715.32 L301.89,715.32 L301.88,715.32 L301.88,715.33 L301.87,715.33 L301.86,715.33 L301.86,715.33 L301.85,715.33 L301.85,715.33 L301.84,715.33 L301.83,715.33 L301.82,715.33 L301.82,715.33 L301.81,715.33 L301.8,715.33 L301.79,715.33 L301.78,715.33 L301.77,715.33 L301.76,715.33 L301.75,715.33 L301.74,715.34 L301.73,715.34 C301.11,714.7,300.24,714.7,299.92,714.7 V714.39 C300.12,714.39,300.71,714.39,301.22,714.65 V709.5 C301.22,709.15,301.19,709.03,300.3,709.03 H299.98 V708.72 C300.33,708.75,301.19,708.75,301.59,708.75 C301.99,708.75,302.86,708.75,303.2,708.72 V709.03 H302.89 C301.99,709.03,301.96,709.14,301.96,709.5 Z "
         stroke-width="0"
         fill="black"
         id="path3775" /><path
         d="M317.23,709.48 L318.29,710.51 C319.84,711.88,320.44,712.41,320.44,713.41 C320.44,714.54,319.54,715.34,318.33,715.34 C317.21,715.34,316.47,714.42,316.47,713.54 C316.47,712.98,316.97,712.98,317,712.98 C317.17,712.98,317.51,713.1,317.51,713.51 C317.51,713.77,317.33,714.02,316.99,714.02 C316.91,714.02,316.89,714.02,316.86,714.01 C317.09,714.66,317.62,715.03,318.2,715.03 C319.11,715.03,319.53,714.22,319.53,713.41 C319.53,712.61,319.04,711.83,318.49,711.21 L316.58,709.09 C316.47,708.98,316.47,708.96,316.47,708.72 H320.16 L320.44,710.45 H320.19 C320.14,710.15,320.07,709.71,319.97,709.56 C319.9,709.48,319.24,709.48,319.03,709.48 Z "
         stroke-width="0"
         fill="black"
         id="path3777" /><path
         d="M338.28,712.22 L338.36,712.24 L338.43,712.27 L338.51,712.3 L338.58,712.34 L338.65,712.37 L338.72,712.41 L338.78,712.45 L338.85,712.49 L338.91,712.54 L338.97,712.58 L339.03,712.63 L339.08,712.68 L339.14,712.73 L339.19,712.78 L339.24,712.84 L339.29,712.9 L339.33,712.95 L339.37,713.01 L339.41,713.07 L339.45,713.14 L339.49,713.2 L339.52,713.26 L339.55,713.33 L339.57,713.4 L339.6,713.47 L339.62,713.53 L339.64,713.6 L339.65,713.67 L339.66,713.75 L339.67,713.82 L339.68,713.89 L339.68,713.96 C339.68,714.78,338.8,715.34,337.85,715.34 C336.84,715.34,336.09,714.74,336.09,713.98 C336.09,713.66,336.3,713.47,336.59,713.47 C336.9,713.47,337.1,713.69,337.1,713.97 C337.1,714.47,336.63,714.47,336.48,714.47 C336.79,714.96,337.45,715.09,337.81,715.09 C338.21,715.09,338.76,714.87,338.76,713.97 C338.76,713.85,338.74,713.28,338.48,712.84 C338.18,712.36,337.85,712.34,337.6,712.33 C337.52,712.32,337.28,712.29,337.21,712.29 C337.13,712.28,337.06,712.28,337.06,712.18 C337.06,712.07,337.13,712.07,337.3,712.07 H337.74 C338.55,712.07,338.92,711.39,338.92,710.42 C338.92,709.07,338.23,708.78,337.8,708.78 C337.37,708.78,336.62,708.95,336.27,709.53 C336.62,709.48,336.93,709.7,336.93,710.08 C336.93,710.44,336.66,710.64,336.37,710.64 C336.14,710.64,335.82,710.5,335.82,710.06 C335.82,709.16,336.74,708.5,337.83,708.5 C339.04,708.5,339.95,709.4,339.95,710.42 C339.95,711.23,339.32,712.01,338.28,712.22 Z "
         stroke-width="0"
         fill="black"
         id="path3779" /><path
         d="M360.24,710.36 V709.49 C360.24,709.14,360.22,709.03,359.49,709.03 H359.28 V708.72 C359.68,708.75,360.2,708.75,360.62,708.75 C361.04,708.75,361.57,708.75,361.97,708.72 V709.03 H361.76 C361.03,709.03,361.01,709.14,361.01,709.49 V710.36 H362 V710.67 H361.01 V715.19 C361.01,715.39,361.01,715.44,360.85,715.44 C360.76,715.44,360.73,715.44,360.65,715.33 L357.6,710.67 H357.87 L360.3,714.37 V710.67 H357.87 H357.6 V710.36 Z "
         stroke-width="0"
         fill="black"
         id="path3781" /><path
         d="M383.7,710.72 L383.7,710.83 L383.69,710.94 L383.68,711.04 L383.66,711.15 L383.64,711.25 L383.62,711.36 L383.59,711.46 L383.56,711.55 L383.52,711.65 L383.48,711.74 L383.44,711.84 L383.39,711.92 L383.34,712.01 L383.28,712.09 L383.22,712.17 L383.16,712.25 L383.09,712.32 L383.03,712.39 L382.96,712.45 L382.88,712.51 L382.81,712.57 L382.73,712.62 L382.64,712.67 L382.56,712.72 L382.47,712.76 L382.38,712.79 L382.29,712.82 L382.2,712.85 L382.11,712.87 L382.01,712.88 L381.91,712.89 L381.81,712.89 C381.33,712.89,380.91,712.73,380.55,712.39 V714.32 C380.75,714.26,381.08,714.19,381.39,714.19 C382.62,714.19,383.31,715.1,383.31,715.23 C383.31,715.28,383.28,715.34,383.21,715.34 C383.2,715.34,383.18,715.34,383.14,715.3 C382.94,715.22,382.45,715.02,381.78,715.02 C381.38,715.02,380.93,715.09,380.46,715.29 C380.38,715.33,380.36,715.33,380.34,715.33 C380.24,715.33,380.24,715.24,380.24,715.09 V712.15 C380.24,711.97,380.24,711.89,380.38,711.89 C380.45,711.89,380.47,711.92,380.51,711.98 C380.62,712.14,380.98,712.67,381.79,712.67 C382.31,712.67,382.56,712.22,382.64,712.04 C382.8,711.67,382.82,711.28,382.82,710.78 C382.82,710.44,382.82,709.84,382.58,709.42 C382.34,709.04,381.97,708.78,381.51,708.78 C380.79,708.78,380.22,709.3,380.05,709.89 C380.08,709.88,380.11,709.87,380.22,709.87 C380.55,709.87,380.72,710.12,380.72,710.36 C380.72,710.6,380.55,710.84,380.22,710.84 C380.08,710.84,379.73,710.78,379.73,710.32 C379.73,709.46,380.42,708.5,381.53,708.5 C382.69,708.5,383.7,709.45,383.7,710.72 Z "
         stroke-width="0"
         fill="black"
         id="path3783" /><path
         d="M402.46,711.98 V712.22 C402.46,714.73,403.7,715.09,404.21,715.09 C404.45,715.09,404.86,715.03,405.08,714.69 C404.93,714.69,404.54,714.69,404.54,714.24 C404.54,713.93,404.77,713.78,404.99,713.78 C405.15,713.78,405.45,713.88,405.45,714.26 C405.45,714.86,405.01,715.34,404.19,715.34 C402.91,715.34,401.57,714.05,401.57,711.86 C401.57,709.21,402.72,708.5,403.65,708.5 C404.75,708.5,405.7,709.43,405.7,710.74 C405.7,712.01,404.81,712.96,403.71,712.96 L403.7,712.73 C403.86,712.73,404.32,712.73,404.62,712.12 C404.8,711.75,404.8,711.24,404.8,710.76 C404.8,710.28,404.8,709.78,404.63,709.42 C404.34,708.83,403.88,708.78,403.65,708.78 H403.65 C403.02,708.78,402.72,709.38,402.66,709.52 C402.48,709.99,402.48,710.78,402.48,710.96 C402.48,711.74,402.8,712.73,403.7,712.73 L403.71,712.96 C403.03,712.96,402.66,712.45,402.46,711.98 Z "
         stroke-width="0"
         fill="black"
         id="path3785" /><path
         d="M427.81,714.77 L427.81,714.78 L427.82,714.79 L427.83,714.8 L427.84,714.81 L427.84,714.82 L427.85,714.83 L427.85,714.84 L427.86,714.84 L427.86,714.85 L427.87,714.86 L427.87,714.87 L427.87,714.88 L427.88,714.88 L427.88,714.89 L427.88,714.9 L427.88,714.91 L427.89,714.92 L427.89,714.93 L427.89,714.94 L427.89,714.95 L427.89,714.96 L427.89,714.97 L427.89,714.98 L427.89,714.99 L427.89,715 L427.89,715.02 L427.89,715.03 L427.89,715.05 L427.89,715.06 L427.89,715.08 L427.89,715.1 L427.89,715.11 L427.89,715.12 H425.48 C424.26,715.12,424.24,715.24,424.2,715.43 H423.95 L423.63,713.39 H423.88 C423.91,713.55,423.99,714.17,424.12,714.29 C424.19,714.35,424.97,714.35,425.1,714.35 H427.16 C427.05,714.19,426.26,713.11,426.05,712.78 C425.15,711.44,424.82,710.06,424.82,709.05 C424.82,708.95,424.82,708.5,425.28,708.5 C425.74,708.5,425.74,708.95,425.74,709.05 V709.55 C425.74,710.1,425.77,710.65,425.85,711.18 C425.89,711.41,426.02,712.27,426.46,712.88 Z "
         stroke-width="0"
         fill="black"
         id="path3787" /><path
         d="M448.06,712.32 L448.13,712.35 L448.19,712.39 L448.26,712.42 L448.32,712.46 L448.38,712.5 L448.44,712.54 L448.5,712.58 L448.55,712.62 L448.61,712.66 L448.66,712.7 L448.71,712.75 L448.76,712.79 L448.8,712.84 L448.85,712.88 L448.89,712.93 L448.93,712.98 L448.97,713.03 L449.01,713.08 L449.04,713.13 L449.07,713.18 L449.1,713.23 L449.13,713.28 L449.16,713.33 L449.18,713.39 L449.2,713.44 L449.22,713.5 L449.23,713.56 L449.24,713.62 L449.25,713.67 L449.26,713.73 L449.26,713.79 L449.27,713.85 C449.27,714.77,448.38,715.34,447.48,715.34 L447.46,715.09 C448.19,715.09,448.83,714.57,448.83,713.85 C448.83,713.29,448.44,712.81,447.84,712.46 L446.61,713.26 C446.15,713.56,446.11,713.9,446.11,714.06 C446.11,714.67,446.76,715.09,447.46,715.09 L447.48,715.34 C446.48,715.34,445.67,714.6,445.67,713.68 C445.67,713.5,445.69,713.05,446.11,712.58 C446.22,712.46,446.59,712.22,446.84,712.05 L447.07,711.9 L448.29,711.12 C448.57,710.93,449.04,710.64,449.04,710.03 C449.04,709.29,448.29,708.78,447.48,708.78 C446.62,708.78,445.9,709.39,445.9,710.22 C445.9,710.79,446.22,711.43,447.07,711.9 H447.07 L446.84,712.05 C446.26,711.76,445.4,711.2,445.4,710.22 C445.4,709.17,446.42,708.5,447.46,708.5 C448.59,708.5,449.53,709.33,449.53,710.39 C449.53,710.74,449.42,711.19,449.05,711.61 C448.86,711.82,448.7,711.92,448.06,712.32 Z "
         stroke-width="0"
         fill="black"
         id="path3789" /><path
         d="M285.03,691.17 L285.03,691.18 L285.03,691.19 L285.03,691.2 L285.03,691.21 L285.03,691.22 L285.03,691.23 L285.03,691.24 L285.03,691.25 L285.03,691.26 L285.03,691.26 L285.03,691.27 L285.03,691.28 L285.03,691.29 L285.02,691.29 L285.02,691.3 L285.02,691.31 L285.02,691.31 L285.02,691.32 L285.02,691.33 L285.02,691.34 L285.01,691.35 L285.01,691.36 L285.01,691.37 L285,691.38 L285,691.39 L284.99,691.39 L284.99,691.4 L284.98,691.4 L284.97,691.41 L284.96,691.41 L284.96,691.41 L284.95,691.41 L284.95,691.41 L284.94,691.42 L284.94,691.42 L284.93,691.42 L284.92,691.42 L284.92,691.42 L284.91,691.42 L284.9,691.42 L284.9,691.42 L284.89,691.42 L284.88,691.42 L284.87,691.42 L284.87,691.42 L284.86,691.42 L284.85,691.42 L284.84,691.42 L284.83,691.42 L284.82,691.42 L284.81,691.42 L284.8,691.42 C284.18,690.79,283.31,690.79,282.99,690.79 V690.48 C283.19,690.48,283.77,690.48,284.29,690.74 V685.59 C284.29,685.24,284.26,685.12,283.37,685.12 H283.05 V684.81 C283.4,684.84,284.26,684.84,284.66,684.84 C285.06,684.84,285.92,684.84,286.27,684.81 V685.12 H285.95 C285.06,685.12,285.03,685.23,285.03,685.59 Z "
         stroke-width="0"
         fill="black"
         id="path3799" /><path
         d="M301.96,686.45 V685.58 C301.96,685.23,301.94,685.12,301.21,685.12 H301 V684.81 C301.41,684.84,301.92,684.84,302.34,684.84 C302.76,684.84,303.29,684.84,303.7,684.81 V685.12 H303.49 C302.75,685.12,302.73,685.23,302.73,685.58 V686.45 H303.73 V686.76 H302.73 V691.28 C302.73,691.47,302.73,691.53,302.57,691.53 C302.48,691.53,302.45,691.53,302.37,691.41 L299.32,686.76 H299.6 L302.02,690.46 V686.76 H299.6 H299.32 V686.45 Z "
         stroke-width="0"
         fill="black"
         id="path3801" /><path
         d="M319.63,687.97 V687.65 C319.63,685.33,318.59,684.87,318.02,684.87 C317.85,684.87,317.31,684.89,317.04,685.23 C317.48,685.23,317.56,685.51,317.56,685.68 C317.56,685.99,317.32,686.14,317.1,686.14 C316.94,686.14,316.64,686.05,316.64,685.66 C316.64,685,317.18,684.59,318.02,684.59 C319.31,684.59,320.52,685.94,320.52,688.08 C320.52,690.75,319.38,691.42,318.49,691.42 C317.95,691.42,317.46,691.25,317.03,690.8 C316.62,690.35,316.39,689.93,316.39,689.19 C316.39,687.95,317.27,686.97,318.38,686.97 L318.39,687.2 C318.23,687.2,317.78,687.2,317.47,687.83 C317.29,688.2,317.29,688.69,317.29,689.18 C317.29,689.72,317.29,690.18,317.5,690.55 C317.77,691.05,318.14,691.18,318.49,691.18 C318.95,691.18,319.28,690.84,319.45,690.39 C319.57,690.07,319.61,689.45,319.61,688.99 C319.61,688.17,319.27,687.2,318.39,687.2 H318.39 L318.38,686.97 C318.99,686.97,319.4,687.39,319.63,687.97 Z "
         stroke-width="0"
         fill="black"
         id="path3803" /><path
         d="M335.84,691.17 L335.84,691.18 L335.84,691.19 L335.84,691.2 L335.84,691.21 L335.84,691.22 L335.84,691.23 L335.84,691.24 L335.84,691.25 L335.84,691.26 L335.84,691.26 L335.84,691.27 L335.84,691.28 L335.84,691.29 L335.83,691.29 L335.83,691.3 L335.83,691.31 L335.83,691.31 L335.83,691.32 L335.83,691.33 L335.83,691.34 L335.82,691.35 L335.82,691.36 L335.82,691.37 L335.81,691.38 L335.81,691.39 L335.8,691.39 L335.8,691.4 L335.79,691.4 L335.78,691.41 L335.77,691.41 L335.77,691.41 L335.76,691.41 L335.76,691.41 L335.75,691.42 L335.75,691.42 L335.74,691.42 L335.73,691.42 L335.73,691.42 L335.72,691.42 L335.71,691.42 L335.71,691.42 L335.7,691.42 L335.69,691.42 L335.68,691.42 L335.68,691.42 L335.67,691.42 L335.66,691.42 L335.65,691.42 L335.64,691.42 L335.63,691.42 L335.62,691.42 L335.61,691.42 C334.99,690.79,334.11,690.79,333.8,690.79 V690.48 C334,690.48,334.58,690.48,335.1,690.74 V685.59 C335.1,685.24,335.07,685.12,334.17,685.12 H333.86 V684.81 C334.2,684.84,335.07,684.84,335.47,684.84 C335.87,684.84,336.73,684.84,337.08,684.81 V685.12 H336.76 C335.87,685.12,335.84,685.23,335.84,685.59 Z "
         stroke-width="0"
         fill="black"
         id="path3805" /><path
         d="M339.21,688.07 V688.31 C339.21,690.82,340.44,691.18,340.95,691.18 C341.19,691.18,341.6,691.12,341.82,690.78 C341.67,690.78,341.27,690.78,341.27,690.33 C341.27,690.02,341.51,689.88,341.73,689.88 C341.89,689.88,342.19,689.97,342.19,690.35 C342.19,690.95,341.75,691.42,340.93,691.42 C339.65,691.42,338.31,690.14,338.31,687.95 C338.31,685.3,339.46,684.59,340.39,684.59 C341.49,684.59,342.44,685.52,342.44,686.84 C342.44,688.1,341.55,689.05,340.45,689.05 L340.44,688.82 C340.6,688.82,341.06,688.82,341.36,688.21 C341.54,687.84,341.54,687.33,341.54,686.84 C341.54,686.37,341.54,685.87,341.38,685.51 C341.08,684.92,340.62,684.87,340.39,684.87 H340.39 C339.76,684.87,339.46,685.47,339.4,685.61 C339.23,686.08,339.23,686.88,339.23,687.05 C339.23,687.83,339.54,688.82,340.44,688.82 L340.45,689.05 C339.77,689.05,339.4,688.54,339.21,688.07 Z "
         stroke-width="0"
         fill="black"
         id="path3807" /><path
         d="M356.09,685.57 L357.15,686.6 C358.7,687.97,359.3,688.5,359.3,689.5 C359.3,690.63,358.4,691.42,357.19,691.42 C356.06,691.42,355.33,690.51,355.33,689.63 C355.33,689.07,355.82,689.07,355.85,689.07 C356.02,689.07,356.37,689.19,356.37,689.6 C356.37,689.85,356.19,690.11,355.84,690.11 C355.76,690.11,355.74,690.11,355.71,690.1 C355.94,690.75,356.48,691.12,357.06,691.12 C357.96,691.12,358.39,690.31,358.39,689.5 C358.39,688.7,357.89,687.92,357.35,687.3 L355.44,685.18 C355.33,685.07,355.33,685.05,355.33,684.81 H359.02 L359.3,686.54 H359.05 C359,686.24,358.93,685.8,358.83,685.65 C358.76,685.57,358.1,685.57,357.88,685.57 Z "
         stroke-width="0"
         fill="black"
         id="path3809" /><path
         d="M364.28,686.81 L364.28,686.92 L364.27,687.03 L364.26,687.13 L364.24,687.24 L364.22,687.34 L364.2,687.45 L364.17,687.55 L364.13,687.64 L364.1,687.74 L364.06,687.83 L364.01,687.93 L363.96,688.01 L363.91,688.1 L363.86,688.18 L363.8,688.26 L363.74,688.34 L363.67,688.41 L363.6,688.48 L363.53,688.54 L363.46,688.6 L363.38,688.66 L363.3,688.71 L363.22,688.76 L363.14,688.81 L363.05,688.85 L362.96,688.88 L362.87,688.91 L362.78,688.94 L362.68,688.96 L362.59,688.97 L362.49,688.98 L362.39,688.98 C361.91,688.98,361.48,688.82,361.12,688.47 V690.41 C361.32,690.35,361.65,690.28,361.97,690.28 C363.19,690.28,363.89,691.19,363.89,691.32 C363.89,691.38,363.86,691.42,363.79,691.42 C363.78,691.42,363.76,691.42,363.71,691.4 C363.51,691.31,363.02,691.11,362.36,691.11 C361.96,691.11,361.5,691.18,361.03,691.39 C360.95,691.41,360.93,691.41,360.92,691.41 C360.82,691.41,360.82,691.34,360.82,691.18 V688.24 C360.82,688.06,360.82,687.98,360.95,687.98 C361.02,687.98,361.04,688.01,361.08,688.07 C361.19,688.23,361.56,688.76,362.37,688.76 C362.89,688.76,363.13,688.31,363.21,688.13 C363.37,687.76,363.39,687.37,363.39,686.88 C363.39,686.53,363.39,685.93,363.15,685.51 C362.92,685.13,362.55,684.87,362.09,684.87 C361.36,684.87,360.8,685.4,360.63,685.98 C360.66,685.97,360.69,685.96,360.8,685.96 C361.12,685.96,361.29,686.21,361.29,686.45 C361.29,686.69,361.12,686.93,360.8,686.93 C360.66,686.93,360.31,686.86,360.31,686.41 C360.31,685.55,360.99,684.59,362.11,684.59 C363.26,684.59,364.28,685.54,364.28,686.81 Z "
         stroke-width="0"
         fill="black"
         id="path3811" /><path
         d="M379.63,688.31 L379.71,688.33 L379.78,688.36 L379.85,688.39 L379.93,688.43 L380,688.46 L380.06,688.5 L380.13,688.54 L380.19,688.58 L380.26,688.63 L380.32,688.67 L380.38,688.72 L380.43,688.77 L380.49,688.82 L380.54,688.87 L380.59,688.93 L380.63,688.99 L380.68,689.04 L380.72,689.1 L380.76,689.16 L380.8,689.23 L380.83,689.29 L380.87,689.35 L380.9,689.42 L380.92,689.49 L380.95,689.56 L380.97,689.62 L380.98,689.69 L381,689.76 L381.01,689.84 L381.02,689.91 L381.02,689.98 L381.02,690.05 C381.02,690.87,380.15,691.42,379.19,691.42 C378.19,691.42,377.43,690.83,377.43,690.07 C377.43,689.75,377.65,689.56,377.94,689.56 C378.25,689.56,378.45,689.78,378.45,690.06 C378.45,690.56,377.98,690.56,377.83,690.56 C378.14,691.05,378.8,691.18,379.15,691.18 C379.56,691.18,380.11,690.96,380.11,690.06 C380.11,689.95,380.09,689.37,379.83,688.93 C379.53,688.46,379.19,688.42,378.95,688.41 C378.87,688.41,378.63,688.39,378.56,688.39 C378.48,688.38,378.41,688.36,378.41,688.27 C378.41,688.16,378.48,688.16,378.65,688.16 H379.08 C379.9,688.16,380.27,687.48,380.27,686.51 C380.27,685.16,379.58,684.87,379.14,684.87 C378.72,684.87,377.97,685.04,377.62,685.62 C377.97,685.57,378.28,685.79,378.28,686.17 C378.28,686.53,378.01,686.73,377.72,686.73 C377.48,686.73,377.17,686.59,377.17,686.15 C377.17,685.25,378.09,684.59,379.17,684.59 C380.39,684.59,381.29,685.49,381.29,686.51 C381.29,687.32,380.67,688.1,379.63,688.31 Z "
         stroke-width="0"
         fill="black"
         id="path3813" /><path
         d="M383.04,688.07 V688.31 C383.04,690.82,384.27,691.18,384.78,691.18 C385.02,691.18,385.44,691.12,385.66,690.78 C385.51,690.78,385.11,690.78,385.11,690.33 C385.11,690.02,385.35,689.88,385.57,689.88 C385.73,689.88,386.03,689.97,386.03,690.35 C386.03,690.95,385.59,691.42,384.76,691.42 C383.49,691.42,382.15,690.14,382.15,687.95 C382.15,685.3,383.3,684.59,384.23,684.59 C385.33,684.59,386.27,685.52,386.27,686.84 C386.27,688.1,385.39,689.05,384.29,689.05 L384.27,688.82 C384.43,688.82,384.89,688.82,385.2,688.21 C385.38,687.84,385.38,687.33,385.38,686.84 C385.38,686.37,385.38,685.87,385.21,685.51 C384.91,684.92,384.45,684.87,384.23,684.87 H384.23 C383.6,684.87,383.3,685.47,383.24,685.61 C383.06,686.08,383.06,686.88,383.06,687.05 C383.06,687.83,383.38,688.82,384.27,688.82 L384.29,689.05 C383.61,689.05,383.24,688.54,383.04,688.07 Z "
         stroke-width="0"
         fill="black"
         id="path3815" /><path
         d="M401.59,686.45 V685.58 C401.59,685.23,401.57,685.12,400.83,685.12 H400.62 V684.81 C401.03,684.84,401.55,684.84,401.97,684.84 C402.39,684.84,402.91,684.84,403.32,684.81 V685.12 H403.11 C402.38,685.12,402.36,685.23,402.36,685.58 V686.45 H403.35 V686.76 H402.36 V691.28 C402.36,691.47,402.36,691.53,402.2,691.53 C402.11,691.53,402.08,691.53,402,691.41 L398.94,686.76 H399.22 L401.65,690.46 V686.76 H399.22 H398.94 V686.45 Z "
         stroke-width="0"
         fill="black"
         id="path3817" /><path
         d="M407.3,687.97 V687.65 C407.3,685.33,406.26,684.87,405.68,684.87 C405.52,684.87,404.98,684.89,404.71,685.23 C405.15,685.23,405.23,685.51,405.23,685.68 C405.23,685.99,404.99,686.14,404.77,686.14 C404.61,686.14,404.31,686.05,404.31,685.66 C404.31,685,404.85,684.59,405.7,684.59 C406.98,684.59,408.19,685.94,408.19,688.08 C408.19,690.75,407.05,691.42,406.16,691.42 C405.62,691.42,405.13,691.25,404.7,690.8 C404.29,690.35,404.06,689.93,404.06,689.19 C404.06,687.95,404.94,686.97,406.05,686.97 L406.06,687.2 C405.9,687.2,405.45,687.2,405.14,687.83 C404.96,688.2,404.96,688.69,404.96,689.18 C404.96,689.72,404.96,690.18,405.17,690.55 C405.44,691.05,405.82,691.18,406.16,691.18 C406.62,691.18,406.95,690.84,407.12,690.39 C407.24,690.07,407.28,689.45,407.28,688.99 C407.28,688.17,406.94,687.2,406.06,687.2 H406.06 L406.05,686.97 C406.66,686.97,407.07,687.39,407.3,687.97 Z "
         stroke-width="0"
         fill="black"
         id="path3819" /><path
         d="M421.9,688.07 V688.31 C421.9,690.82,423.13,691.18,423.64,691.18 C423.88,691.18,424.29,691.12,424.51,690.78 C424.36,690.78,423.96,690.78,423.96,690.33 C423.96,690.02,424.2,689.88,424.42,689.88 C424.58,689.88,424.88,689.97,424.88,690.35 C424.88,690.95,424.44,691.42,423.62,691.42 C422.34,691.42,421,690.14,421,687.95 C421,685.3,422.15,684.59,423.08,684.59 C424.18,684.59,425.13,685.52,425.13,686.84 C425.13,688.1,424.24,689.05,423.14,689.05 L423.13,688.82 C423.29,688.82,423.75,688.82,424.05,688.21 C424.23,687.84,424.23,687.33,424.23,686.84 C424.23,686.37,424.23,685.87,424.06,685.51 C423.77,684.92,423.31,684.87,423.08,684.87 H423.08 C422.45,684.87,422.15,685.47,422.09,685.61 C421.92,686.08,421.92,686.88,421.92,687.05 C421.92,687.83,422.23,688.82,423.13,688.82 L423.14,689.05 C422.46,689.05,422.09,688.54,421.9,688.07 Z "
         stroke-width="0"
         fill="black"
         id="path3821" /><path
         d="M428.49,686.45 V685.58 C428.49,685.23,428.47,685.12,427.73,685.12 H427.52 V684.81 C427.93,684.84,428.45,684.84,428.87,684.84 C429.29,684.84,429.81,684.84,430.22,684.81 V685.12 H430.01 C429.27,685.12,429.26,685.23,429.26,685.58 V686.45 H430.25 V686.76 H429.26 V691.28 C429.26,691.47,429.26,691.53,429.1,691.53 C429.01,691.53,428.98,691.53,428.9,691.41 L425.84,686.76 H426.12 L428.55,690.46 V686.76 H426.12 H425.84 V686.45 Z "
         stroke-width="0"
         fill="black"
         id="path3823" /><path
         d="M445.57,688.41 L445.64,688.44 L445.71,688.48 L445.77,688.51 L445.83,688.55 L445.89,688.59 L445.95,688.63 L446.01,688.67 L446.06,688.71 L446.12,688.75 L446.17,688.79 L446.22,688.84 L446.27,688.88 L446.32,688.93 L446.36,688.97 L446.4,689.02 L446.44,689.07 L446.48,689.12 L446.52,689.17 L446.55,689.22 L446.59,689.27 L446.62,689.32 L446.64,689.37 L446.67,689.42 L446.69,689.48 L446.71,689.53 L446.73,689.59 L446.74,689.65 L446.76,689.71 L446.77,689.76 L446.77,689.82 L446.78,689.88 L446.78,689.95 C446.78,690.86,445.89,691.42,444.99,691.42 L444.98,691.18 C445.7,691.18,446.34,690.66,446.34,689.95 C446.34,689.38,445.95,688.9,445.36,688.55 L444.12,689.35 C443.66,689.65,443.62,689.98,443.62,690.15 C443.62,690.76,444.27,691.18,444.98,691.18 L444.99,691.42 C443.99,691.42,443.19,690.69,443.19,689.77 C443.19,689.59,443.21,689.14,443.62,688.67 C443.73,688.55,444.1,688.31,444.35,688.14 L444.58,687.99 L445.8,687.21 C446.08,687.02,446.55,686.73,446.55,686.12 C446.55,685.39,445.8,684.87,444.99,684.87 C444.13,684.87,443.42,685.48,443.42,686.31 C443.42,686.89,443.73,687.52,444.58,687.99 H444.58 L444.35,688.14 C443.77,687.85,442.92,687.29,442.92,686.31 C442.92,685.26,443.93,684.59,444.98,684.59 C446.1,684.59,447.05,685.41,447.05,686.48 C447.05,686.84,446.94,687.28,446.56,687.7 C446.37,687.91,446.21,688.01,445.57,688.41 Z "
         stroke-width="0"
         fill="black"
         id="path3825" /><path
         d="M450.41,691.17 L450.41,691.18 L450.41,691.19 L450.41,691.2 L450.41,691.21 L450.41,691.22 L450.41,691.23 L450.41,691.24 L450.41,691.25 L450.41,691.26 L450.41,691.26 L450.4,691.27 L450.4,691.28 L450.4,691.29 L450.4,691.29 L450.4,691.3 L450.4,691.31 L450.4,691.31 L450.4,691.32 L450.4,691.33 L450.4,691.34 L450.39,691.35 L450.39,691.36 L450.39,691.37 L450.38,691.38 L450.38,691.39 L450.37,691.39 L450.37,691.4 L450.36,691.4 L450.35,691.41 L450.34,691.41 L450.34,691.41 L450.33,691.41 L450.33,691.41 L450.32,691.42 L450.32,691.42 L450.31,691.42 L450.3,691.42 L450.3,691.42 L450.29,691.42 L450.28,691.42 L450.28,691.42 L450.27,691.42 L450.26,691.42 L450.25,691.42 L450.24,691.42 L450.24,691.42 L450.23,691.42 L450.22,691.42 L450.21,691.42 L450.2,691.42 L450.19,691.42 L450.18,691.42 C449.56,690.79,448.68,690.79,448.37,690.79 V690.48 C448.57,690.48,449.15,690.48,449.67,690.74 V685.59 C449.67,685.24,449.64,685.12,448.74,685.12 H448.43 V684.81 C448.77,684.84,449.64,684.84,450.04,684.84 C450.44,684.84,451.3,684.84,451.65,684.81 V685.12 H451.33 C450.44,685.12,450.41,685.23,450.41,685.59 Z "
         stroke-width="0"
         fill="black"
         id="path3827" /><path
         d="M285.03,667.26 L285.03,667.27 L285.03,667.28 L285.03,667.29 L285.03,667.3 L285.03,667.31 L285.03,667.32 L285.03,667.33 L285.03,667.34 L285.03,667.35 L285.03,667.35 L285.03,667.36 L285.03,667.37 L285.03,667.38 L285.03,667.38 L285.03,667.39 L285.03,667.4 L285.02,667.4 L285.02,667.41 L285.02,667.42 L285.02,667.43 L285.02,667.44 L285.01,667.45 L285.01,667.46 L285.01,667.47 L285,667.48 L284.99,667.48 L284.99,667.49 L284.98,667.49 L284.97,667.5 L284.96,667.5 L284.96,667.5 L284.95,667.5 L284.95,667.5 L284.94,667.51 L284.94,667.51 L284.93,667.51 L284.93,667.51 L284.92,667.51 L284.91,667.51 L284.91,667.51 L284.9,667.51 L284.89,667.51 L284.88,667.51 L284.88,667.51 L284.87,667.51 L284.86,667.51 L284.85,667.51 L284.84,667.51 L284.83,667.51 L284.82,667.51 L284.81,667.51 L284.8,667.52 C284.18,666.88,283.31,666.88,282.99,666.88 V666.57 C283.19,666.57,283.78,666.57,284.29,666.83 V661.68 C284.29,661.33,284.26,661.21,283.37,661.21 H283.05 V660.9 C283.4,660.93,284.26,660.93,284.66,660.93 C285.06,660.93,285.92,660.93,286.27,660.9 V661.21 H285.95 C285.06,661.21,285.03,661.32,285.03,661.68 Z "
         stroke-width="0"
         fill="black"
         id="path3837" /><path
         d="M301.93,664.4 L302,664.42 L302.08,664.45 L302.15,664.48 L302.22,664.52 L302.29,664.55 L302.36,664.59 L302.42,664.63 L302.49,664.67 L302.55,664.72 L302.61,664.76 L302.67,664.81 L302.73,664.86 L302.78,664.91 L302.83,664.96 L302.88,665.02 L302.93,665.08 L302.97,665.13 L303.02,665.19 L303.06,665.25 L303.09,665.32 L303.13,665.38 L303.16,665.44 L303.19,665.51 L303.22,665.58 L303.24,665.65 L303.26,665.71 L303.28,665.78 L303.29,665.85 L303.3,665.93 L303.31,666 L303.32,666.07 L303.32,666.14 C303.32,666.96,302.44,667.52,301.49,667.52 C300.48,667.52,299.73,666.92,299.73,666.16 C299.73,665.84,299.95,665.65,300.23,665.65 C300.54,665.65,300.74,665.87,300.74,666.15 C300.74,666.65,300.27,666.65,300.12,666.65 C300.43,667.14,301.09,667.27,301.45,667.27 C301.86,667.27,302.4,667.05,302.4,666.15 C302.4,666.03,302.38,665.46,302.12,665.02 C301.83,664.54,301.49,664.52,301.24,664.51 C301.16,664.49,300.92,664.47,300.85,664.47 C300.77,664.47,300.7,664.46,300.7,664.36 C300.7,664.25,300.77,664.25,300.94,664.25 H301.38 C302.19,664.25,302.56,663.57,302.56,662.6 C302.56,661.25,301.88,660.96,301.44,660.96 C301.01,660.96,300.26,661.13,299.92,661.71 C300.26,661.66,300.57,661.88,300.57,662.26 C300.57,662.62,300.3,662.82,300.02,662.82 C299.78,662.82,299.46,662.68,299.46,662.24 C299.46,661.34,300.38,660.68,301.47,660.68 C302.68,660.68,303.59,661.58,303.59,662.6 C303.59,663.41,302.96,664.19,301.93,664.4 Z "
         stroke-width="0"
         fill="black"
         id="path3839" /><path
         d="M317.29,664.16 V664.4 C317.29,666.91,318.52,667.27,319.03,667.27 C319.27,667.27,319.69,667.21,319.91,666.87 C319.76,666.87,319.36,666.87,319.36,666.42 C319.36,666.11,319.6,665.97,319.82,665.97 C319.98,665.97,320.27,666.05,320.27,666.44 C320.27,667.04,319.84,667.52,319.01,667.52 C317.74,667.52,316.39,666.23,316.39,664.04 C316.39,661.39,317.55,660.68,318.47,660.68 C319.58,660.68,320.52,661.61,320.52,662.93 C320.52,664.19,319.64,665.14,318.53,665.14 L318.52,664.91 C318.68,664.91,319.14,664.91,319.45,664.3 C319.63,663.93,319.63,663.42,319.63,662.93 C319.63,662.46,319.63,661.96,319.46,661.6 C319.16,661.01,318.7,660.96,318.47,660.96 H318.47 C317.85,660.96,317.55,661.55,317.49,661.7 C317.31,662.17,317.31,662.97,317.31,663.14 C317.31,663.92,317.63,664.91,318.52,664.91 L318.53,665.14 C317.86,665.14,317.49,664.63,317.29,664.16 Z "
         stroke-width="0"
         fill="black"
         id="path3841" /><path
         d="M335.84,667.26 L335.84,667.27 L335.84,667.28 L335.84,667.29 L335.84,667.3 L335.84,667.31 L335.84,667.32 L335.84,667.33 L335.84,667.34 L335.84,667.35 L335.84,667.35 L335.84,667.36 L335.84,667.37 L335.84,667.38 L335.84,667.38 L335.84,667.39 L335.83,667.4 L335.83,667.4 L335.83,667.41 L335.83,667.42 L335.83,667.43 L335.83,667.44 L335.82,667.45 L335.82,667.46 L335.81,667.47 L335.81,667.48 L335.8,667.48 L335.8,667.49 L335.79,667.49 L335.78,667.5 L335.77,667.5 L335.77,667.5 L335.76,667.5 L335.76,667.5 L335.75,667.51 L335.75,667.51 L335.74,667.51 L335.74,667.51 L335.73,667.51 L335.72,667.51 L335.72,667.51 L335.71,667.51 L335.7,667.51 L335.69,667.51 L335.69,667.51 L335.68,667.51 L335.67,667.51 L335.66,667.51 L335.65,667.51 L335.64,667.51 L335.63,667.51 L335.62,667.51 L335.61,667.52 C334.99,666.88,334.12,666.88,333.8,666.88 V666.57 C334,666.57,334.58,666.57,335.1,666.83 V661.68 C335.1,661.33,335.07,661.21,334.18,661.21 H333.86 V660.9 C334.21,660.93,335.07,660.93,335.47,660.93 C335.87,660.93,336.73,660.93,337.08,660.9 V661.21 H336.76 C335.87,661.21,335.84,661.32,335.84,661.68 Z "
         stroke-width="0"
         fill="black"
         id="path3843" /><path
         d="M342.47,664.08 L342.47,664.23 L342.47,664.38 L342.46,664.52 L342.46,664.67 L342.45,664.82 L342.44,664.97 L342.42,665.12 L342.4,665.26 L342.38,665.41 L342.35,665.55 L342.32,665.7 L342.28,665.84 L342.24,665.98 L342.19,666.12 L342.13,666.26 L342.1,666.33 L342.07,666.4 C341.62,667.36,340.8,667.52,340.38,667.52 C339.79,667.52,339.06,667.26,338.65,666.33 C338.33,665.65,338.28,664.87,338.28,664.08 C338.28,663.33,338.32,662.44,338.73,661.68 C339.16,660.88,339.88,660.68,340.37,660.68 V660.9 C339.98,660.9,339.4,661.15,339.22,662.1 C339.11,662.7,339.11,663.61,339.11,664.2 C339.11,664.83,339.11,665.49,339.19,666.03 C339.38,667.21,340.12,667.3,340.37,667.3 C340.7,667.3,341.36,667.12,341.55,666.13 C341.64,665.58,341.64,664.82,341.64,664.2 C341.64,663.45,341.64,662.78,341.54,662.14 C341.39,661.2,340.82,660.9,340.37,660.9 H340.37 V660.68 C340.91,660.68,341.67,660.89,342.1,661.83 C342.42,662.52,342.47,663.29,342.47,664.08 Z "
         stroke-width="0"
         fill="black"
         id="path3845" /><path
         d="M357.76,667.26 L357.76,667.27 L357.76,667.28 L357.76,667.29 L357.76,667.3 L357.76,667.31 L357.76,667.32 L357.76,667.33 L357.76,667.34 L357.76,667.35 L357.76,667.35 L357.75,667.36 L357.75,667.37 L357.75,667.38 L357.75,667.38 L357.75,667.39 L357.75,667.4 L357.75,667.4 L357.75,667.41 L357.75,667.42 L357.75,667.43 L357.74,667.44 L357.74,667.45 L357.74,667.46 L357.73,667.47 L357.73,667.48 L357.72,667.48 L357.72,667.49 L357.71,667.49 L357.7,667.5 L357.69,667.5 L357.69,667.5 L357.68,667.5 L357.68,667.5 L357.67,667.51 L357.67,667.51 L357.66,667.51 L357.65,667.51 L357.65,667.51 L357.64,667.51 L357.63,667.51 L357.63,667.51 L357.62,667.51 L357.61,667.51 L357.6,667.51 L357.59,667.51 L357.59,667.51 L357.58,667.51 L357.57,667.51 L357.56,667.51 L357.55,667.51 L357.54,667.51 L357.53,667.52 C356.91,666.88,356.04,666.88,355.72,666.88 V666.57 C355.92,666.57,356.5,666.57,357.02,666.83 V661.68 C357.02,661.33,356.99,661.21,356.1,661.21 H355.78 V660.9 C356.12,660.93,356.99,660.93,357.39,660.93 C357.79,660.93,358.65,660.93,359,660.9 V661.21 H358.68 C357.79,661.21,357.76,661.32,357.76,661.68 Z "
         stroke-width="0"
         fill="black"
         id="path3847" /><path
         d="M364.28,662.9 L364.28,663.01 L364.27,663.12 L364.26,663.22 L364.24,663.33 L364.22,663.43 L364.2,663.54 L364.17,663.64 L364.14,663.73 L364.1,663.83 L364.06,663.92 L364.01,664.02 L363.97,664.1 L363.91,664.19 L363.86,664.27 L363.8,664.35 L363.74,664.43 L363.67,664.5 L363.6,664.57 L363.53,664.63 L363.46,664.69 L363.38,664.75 L363.3,664.8 L363.22,664.85 L363.14,664.9 L363.05,664.94 L362.96,664.97 L362.87,665 L362.78,665.03 L362.68,665.05 L362.59,665.06 L362.49,665.07 L362.39,665.07 C361.91,665.07,361.48,664.91,361.13,664.57 V666.5 C361.33,666.44,361.65,666.37,361.97,666.37 C363.2,666.37,363.89,667.28,363.89,667.41 C363.89,667.47,363.86,667.52,363.79,667.52 C363.78,667.52,363.76,667.52,363.71,667.48 C363.51,667.4,363.03,667.2,362.36,667.2 C361.96,667.2,361.5,667.27,361.04,667.47 C360.96,667.51,360.94,667.51,360.92,667.51 C360.82,667.51,360.82,667.43,360.82,667.27 V664.33 C360.82,664.15,360.82,664.07,360.96,664.07 C361.03,664.07,361.05,664.1,361.09,664.16 C361.2,664.32,361.56,664.85,362.37,664.85 C362.89,664.85,363.14,664.4,363.21,664.22 C363.37,663.85,363.39,663.46,363.39,662.97 C363.39,662.62,363.39,662.02,363.15,661.6 C362.92,661.22,362.55,660.96,362.09,660.96 C361.36,660.96,360.8,661.48,360.63,662.07 C360.66,662.06,360.69,662.05,360.8,662.05 C361.13,662.05,361.3,662.3,361.3,662.54 C361.3,662.78,361.13,663.03,360.8,663.03 C360.66,663.03,360.31,662.96,360.31,662.5 C360.31,661.64,361,660.68,362.11,660.68 C363.27,660.68,364.28,661.63,364.28,662.9 Z "
         stroke-width="0"
         fill="black"
         id="path3849" /><path
         d="M378.01,661.66 L379.07,662.69 C380.62,664.06,381.22,664.59,381.22,665.59 C381.22,666.72,380.32,667.52,379.11,667.52 C377.98,667.52,377.25,666.6,377.25,665.72 C377.25,665.16,377.74,665.16,377.77,665.16 C377.94,665.16,378.29,665.28,378.29,665.69 C378.29,665.95,378.11,666.2,377.76,666.2 C377.68,666.2,377.66,666.2,377.63,666.19 C377.86,666.84,378.4,667.21,378.98,667.21 C379.88,667.21,380.31,666.4,380.31,665.59 C380.31,664.79,379.81,664.01,379.27,663.39 L377.36,661.27 C377.25,661.16,377.25,661.14,377.25,660.9 H380.94 L381.22,662.63 H380.97 C380.92,662.33,380.85,661.89,380.75,661.74 C380.68,661.66,380.02,661.66,379.8,661.66 Z "
         stroke-width="0"
         fill="black"
         id="path3851" /><path
         d="M384.65,667.26 L384.65,667.27 L384.65,667.28 L384.65,667.29 L384.65,667.3 L384.65,667.31 L384.65,667.32 L384.65,667.33 L384.65,667.34 L384.65,667.35 L384.65,667.35 L384.65,667.36 L384.65,667.37 L384.65,667.38 L384.65,667.38 L384.65,667.39 L384.65,667.4 L384.65,667.4 L384.65,667.41 L384.65,667.42 L384.65,667.43 L384.64,667.44 L384.64,667.45 L384.64,667.46 L384.63,667.47 L384.63,667.48 L384.62,667.48 L384.61,667.49 L384.61,667.49 L384.6,667.5 L384.59,667.5 L384.59,667.5 L384.58,667.5 L384.58,667.5 L384.57,667.51 L384.56,667.51 L384.56,667.51 L384.55,667.51 L384.55,667.51 L384.54,667.51 L384.53,667.51 L384.52,667.51 L384.52,667.51 L384.51,667.51 L384.5,667.51 L384.49,667.51 L384.48,667.51 L384.48,667.51 L384.47,667.51 L384.46,667.51 L384.45,667.51 L384.44,667.51 L384.43,667.52 C383.81,666.88,382.93,666.88,382.62,666.88 V666.57 C382.81,666.57,383.4,666.57,383.92,666.83 V661.68 C383.92,661.33,383.89,661.21,382.99,661.21 H382.67 V660.9 C383.02,660.93,383.89,660.93,384.29,660.93 C384.68,660.93,385.55,660.93,385.9,660.9 V661.21 H385.58 C384.68,661.21,384.65,661.32,384.65,661.68 Z "
         stroke-width="0"
         fill="black"
         id="path3853" /><path
         d="M399.93,661.66 L400.98,662.69 C402.54,664.06,403.13,664.59,403.13,665.59 C403.13,666.72,402.24,667.52,401.02,667.52 C399.9,667.52,399.16,666.6,399.16,665.72 C399.16,665.16,399.66,665.16,399.69,665.16 C399.86,665.16,400.21,665.28,400.21,665.69 C400.21,665.95,400.03,666.2,399.68,666.2 C399.6,666.2,399.58,666.2,399.55,666.19 C399.78,666.84,400.32,667.21,400.89,667.21 C401.8,667.21,402.23,666.4,402.23,665.59 C402.23,664.79,401.73,664.01,401.18,663.39 L399.27,661.27 C399.16,661.16,399.16,661.14,399.16,660.9 H402.86 L403.13,662.63 H402.89 C402.83,662.33,402.77,661.89,402.67,661.74 C402.6,661.66,401.94,661.66,401.72,661.66 Z "
         stroke-width="0"
         fill="black"
         id="path3855" /><path
         d="M406.72,664.49 L406.79,664.53 L406.85,664.57 L406.92,664.6 L406.98,664.64 L407.04,664.68 L407.1,664.72 L407.16,664.76 L407.21,664.8 L407.27,664.84 L407.32,664.88 L407.37,664.93 L407.42,664.97 L407.46,665.02 L407.51,665.06 L407.55,665.11 L407.59,665.16 L407.63,665.21 L407.67,665.26 L407.7,665.31 L407.73,665.36 L407.76,665.41 L407.79,665.46 L407.82,665.51 L407.84,665.57 L407.86,665.62 L407.88,665.68 L407.89,665.74 L407.9,665.8 L407.91,665.85 L407.92,665.91 L407.92,665.97 L407.93,666.03 C407.93,666.95,407.04,667.52,406.14,667.52 L406.12,667.27 C406.85,667.27,407.49,666.75,407.49,666.03 C407.49,665.47,407.1,664.99,406.5,664.64 L405.27,665.44 C404.81,665.74,404.77,666.08,404.77,666.24 C404.77,666.85,405.42,667.27,406.12,667.27 L406.14,667.52 C405.14,667.52,404.33,666.78,404.33,665.86 C404.33,665.68,404.35,665.23,404.77,664.76 C404.88,664.64,405.25,664.4,405.5,664.23 L405.73,664.08 L406.95,663.3 C407.23,663.11,407.7,662.82,407.7,662.21 C407.7,661.47,406.95,660.96,406.14,660.96 C405.28,660.96,404.56,661.58,404.56,662.4 C404.56,662.97,404.88,663.61,405.73,664.08 H405.73 L405.5,664.23 C404.92,663.94,404.07,663.38,404.07,662.4 C404.07,661.35,405.08,660.68,406.12,660.68 C407.25,660.68,408.19,661.51,408.19,662.57 C408.19,662.93,408.08,663.37,407.71,663.79 C407.52,664,407.36,664.1,406.72,664.49 Z "
         stroke-width="0"
         fill="black"
         id="path3857" /><path
         d="M423.47,664.4 L423.54,664.42 L423.62,664.45 L423.69,664.48 L423.76,664.52 L423.83,664.55 L423.9,664.59 L423.97,664.63 L424.03,664.67 L424.09,664.72 L424.15,664.76 L424.21,664.81 L424.27,664.86 L424.32,664.91 L424.37,664.96 L424.42,665.02 L424.47,665.08 L424.52,665.13 L424.56,665.19 L424.6,665.25 L424.64,665.32 L424.67,665.38 L424.7,665.44 L424.73,665.51 L424.76,665.58 L424.78,665.65 L424.8,665.71 L424.82,665.78 L424.84,665.85 L424.85,665.93 L424.86,666 L424.86,666.07 L424.86,666.14 C424.86,666.96,423.99,667.52,423.03,667.52 C422.03,667.52,421.27,666.92,421.27,666.16 C421.27,665.84,421.49,665.65,421.78,665.65 C422.09,665.65,422.29,665.87,422.29,666.15 C422.29,666.65,421.82,666.65,421.67,666.65 C421.98,667.14,422.63,667.27,422.99,667.27 C423.4,667.27,423.95,667.05,423.95,666.15 C423.95,666.03,423.93,665.46,423.67,665.02 C423.37,664.54,423.03,664.52,422.78,664.51 C422.7,664.49,422.46,664.47,422.39,664.47 C422.32,664.47,422.25,664.46,422.25,664.36 C422.25,664.25,422.32,664.25,422.48,664.25 H422.92 C423.74,664.25,424.11,663.57,424.11,662.6 C424.11,661.25,423.42,660.96,422.98,660.96 C422.55,660.96,421.81,661.13,421.46,661.71 C421.81,661.66,422.12,661.88,422.12,662.26 C422.12,662.62,421.85,662.82,421.56,662.82 C421.32,662.82,421,662.68,421,662.24 C421,661.34,421.93,660.68,423.01,660.68 C424.23,660.68,425.13,661.58,425.13,662.6 C425.13,663.41,424.5,664.19,423.47,664.4 Z "
         stroke-width="0"
         fill="black"
         id="path3859" /><path
         d="M430.3,666.95 L430.31,666.96 L430.32,666.97 L430.32,666.98 L430.33,666.99 L430.34,667 L430.34,667.01 L430.35,667.02 L430.35,667.02 L430.36,667.03 L430.36,667.04 L430.37,667.05 L430.37,667.06 L430.37,667.06 L430.37,667.07 L430.38,667.08 L430.38,667.09 L430.38,667.1 L430.38,667.11 L430.38,667.12 L430.39,667.13 L430.39,667.14 L430.39,667.15 L430.39,667.16 L430.39,667.17 L430.39,667.18 L430.39,667.2 L430.39,667.21 L430.39,667.23 L430.39,667.24 L430.39,667.26 L430.39,667.28 L430.39,667.29 L430.39,667.3 H427.97 C426.76,667.3,426.74,667.43,426.7,667.61 H426.45 L426.12,665.57 H426.37 C426.4,665.73,426.49,666.35,426.62,666.47 C426.69,666.53,427.47,666.53,427.6,666.53 H429.65 C429.55,666.37,428.76,665.29,428.54,664.96 C427.64,663.62,427.32,662.24,427.32,661.23 C427.32,661.13,427.32,660.68,427.77,660.68 C428.23,660.68,428.23,661.13,428.23,661.23 V661.73 C428.23,662.28,428.26,662.83,428.34,663.36 C428.38,663.59,428.52,664.45,428.96,665.06 Z "
         stroke-width="0"
         fill="black"
         id="path3861" /><path
         d="M452.22,666.95 L452.23,666.96 L452.23,666.97 L452.24,666.98 L452.25,666.99 L452.25,667 L452.26,667.01 L452.27,667.02 L452.27,667.02 L452.27,667.03 L452.28,667.04 L452.28,667.05 L452.29,667.06 L452.29,667.06 L452.29,667.07 L452.29,667.08 L452.3,667.09 L452.3,667.1 L452.3,667.11 L452.3,667.12 L452.3,667.13 L452.3,667.14 L452.31,667.15 L452.31,667.16 L452.31,667.17 L452.31,667.18 L452.31,667.2 L452.31,667.21 L452.31,667.23 L452.31,667.24 L452.31,667.26 L452.31,667.28 L452.31,667.29 L452.31,667.3 H449.89 C448.68,667.3,448.66,667.43,448.62,667.61 H448.37 L448.04,665.57 H448.29 C448.32,665.73,448.41,666.35,448.54,666.47 C448.61,666.53,449.38,666.53,449.51,666.53 H451.57 C451.46,666.37,450.68,665.29,450.46,664.96 C449.56,663.62,449.23,662.24,449.23,661.23 C449.23,661.13,449.23,660.68,449.69,660.68 C450.15,660.68,450.15,661.13,450.15,661.23 V661.73 C450.15,662.28,450.18,662.83,450.26,663.36 C450.3,663.59,450.44,664.45,450.88,665.06 Z "
         stroke-width="0"
         fill="black"
         id="path3865" /><path
         d="m 445.71934,662.54188 v -0.87 c 0,-0.35 -0.02,-0.46 -0.76,-0.46 h -0.21 v -0.31 c 0.41,0.03 0.93,0.03 1.35,0.03 0.42,0 0.94,0 1.35,-0.03 v 0.31 h -0.21 c -0.74,0 -0.75,0.11 -0.75,0.46 v 0.87 h 0.99 v 0.31 h -0.99 v 4.52 c 0,0.19 0,0.25 -0.16,0.25 -0.09,0 -0.12,0 -0.2,-0.12 l -3.06,-4.65 h 0.28 l 2.43,3.7 v -3.7 h -2.43 -0.28 v -0.31 z"
         id="path3823-4"
         inkscape:connector-curvature="0"
         style="fill:#000000;stroke-width:0" /><g
         ns0:preamble=""
         ns0:text="Quadrature order, L"
         word-spacing="normal"
         letter-spacing="normal"
         font-size-adjust="none"
         font-stretch="normal"
         font-weight="normal"
         font-variant="normal"
         font-style="normal"
         stroke-miterlimit="10.433"
         xml:space="preserve"
         transform="matrix(1.1095926,0,0,1.1124294,-91.206563,-102.41788)"
         id="g3718"
         style="font-style:normal;font-variant:normal;font-weight:normal;font-stretch:normal;letter-spacing:normal;word-spacing:normal;text-anchor:start;fill:none;stroke:#000000;stroke-linecap:butt;stroke-linejoin:miter;stroke-miterlimit:10.43299961;stroke-opacity:1;stroke-dasharray:none;stroke-dashoffset:0"><path
           id="path3720"
           d="m 228.59,707.19 0.11,0.06 0.1,0.05 0.11,0.06 0.1,0.07 0.1,0.06 0.1,0.08 0.09,0.07 0.1,0.08 0.09,0.08 0.08,0.09 0.09,0.09 0.08,0.09 0.08,0.1 0.07,0.1 0.08,0.1 0.07,0.11 0.06,0.11 0.06,0.11 0.06,0.11 0.06,0.12 0.05,0.12 0.04,0.12 0.05,0.12 0.03,0.13 0.04,0.13 0.03,0.13 0.03,0.13 0.02,0.13 0.01,0.14 0.02,0.13 0,0.14 0,0.14 c 0,2.03 -1.5,3.64 -3.31,3.64 v -0.25 c 0.97,0 2.32,-0.85 2.32,-3.39 0,-0.77 -0.12,-2.17 -1.17,-2.95 -0.22,0.56 -0.54,1.05 -1.13,1.05 v -0.21 c 0.54,0 0.76,-0.42 0.87,-1 h 0 c -0.34,-0.19 -0.66,-0.22 -0.88,-0.22 -0.51,0 -0.59,0.45 -0.59,0.6 0,0.29 0.21,0.62 0.6,0.62 v 0.21 c -0.51,0 -0.81,-0.42 -0.81,-0.83 0,-0.27 0.13,-0.46 0.14,-0.48 h 0 c -0.54,0.2 -1.66,0.93 -1.66,3.21 0,2.59 1.4,3.39 2.31,3.39 v 0.25 c -1.78,0 -3.3,-1.59 -3.3,-3.64 0,-2 1.5,-3.58 3.31,-3.58 0.31,0 0.66,0.06 0.95,0.14 0.15,-0.94 0.29,-1.85 1.21,-1.85 1.02,0 1.2,1.32 1.2,1.83 0,0.09 0,0.2 -0.1,0.2 -0.09,0 -0.1,-0.07 -0.11,-0.18 -0.06,-0.53 -0.48,-0.83 -0.91,-0.83 -0.47,0 -0.72,0.34 -0.95,0.97 z"
           inkscape:connector-curvature="0"
           style="fill:#000000;stroke-width:0" /><path
           id="path3722"
           d="m 235.07,707.91 v -0.89 l 1.43,0.1 v 0.31 c -0.69,0 -0.77,0.07 -0.77,0.56 v 3.53 l -1.47,-0.11 v -0.31 c 0.7,0 0.78,-0.07 0.78,-0.56 v -1.77 c 0,-0.86 -0.48,-1.54 -1.2,-1.54 -0.84,0 -0.88,0.47 -0.88,0.99 v 3.3 l -1.46,-0.11 v -0.31 c 0.77,0 0.77,-0.03 0.77,-0.92 v -1.49 c 0,-0.77 0,-1.67 1.52,-1.67 0.56,0 0.99,0.27 1.28,0.89 z"
           inkscape:connector-curvature="0"
           style="fill:#000000;stroke-width:0" /><path
           id="path3724"
           d="m 240.03,707.88 0,-0.04 0.01,-0.03 0.01,-0.04 0,-0.04 0.01,-0.04 0.02,-0.03 0.01,-0.04 0.01,-0.03 0.02,-0.04 0.01,-0.03 0.02,-0.04 0.02,-0.03 0.02,-0.03 0.02,-0.04 0.02,-0.03 0.03,-0.03 0.02,-0.02 0.03,-0.03 0.03,-0.03 0.02,-0.02 0.03,-0.02 0.04,-0.03 0.03,-0.02 0.03,-0.01 0.04,-0.02 0.03,-0.01 0.04,-0.02 0.04,-0.01 0.04,0 0.04,-0.01 0.04,0 0.04,0 c 0.21,0 0.82,0.13 0.82,0.94 v 0.56 h -0.25 v -0.56 c 0,-0.58 -0.25,-0.64 -0.36,-0.64 -0.32,0 -0.36,0.45 -0.36,0.5 v 1.99 c 0,0.41 0,0.8 -0.36,1.17 -0.39,0.39 -0.89,0.55 -1.36,0.55 -0.82,0 -1.51,-0.47 -1.51,-1.13 0,-0.29 0.2,-0.46 0.46,-0.46 0.28,0 0.46,0.19 0.46,0.45 0,0.12 -0.05,0.45 -0.51,0.46 0.27,0.35 0.76,0.46 1.07,0.46 0.49,0 1.06,-0.39 1.06,-1.27 v -0.37 -0.21 -0.99 c 0,-0.95 -0.72,-1.29 -1.16,-1.29 -0.49,0 -0.9,0.35 -0.9,0.85 0,0.54 0.42,1.37 2.06,1.43 h 0 v 0.21 c -0.51,-0.03 -1.2,-0.06 -1.83,-0.36 -0.75,-0.34 -1,-0.85 -1,-1.29 0,-0.81 0.97,-1.05 1.6,-1.05 0.65,0 1.11,0.39 1.3,0.86 z"
           inkscape:connector-curvature="0"
           style="fill:#000000;stroke-width:0" /><path
           id="path3726"
           d="m 245.48,707.67 v -0.65 l 1.46,0.1 v 0.31 c -0.7,0 -0.78,0.07 -0.78,0.56 v 6.03 l -1.43,-0.11 v -0.31 c 0.7,0 0.78,-0.07 0.78,-0.55 v -2.15 c -0.29,0.36 -0.72,0.62 -1.26,0.62 l 0.04,-0.22 c 0.35,0 0.77,-0.15 1.08,-0.6 0.11,-0.17 0.11,-0.19 0.11,-0.37 h 0 v -2.03 c 0,-0.18 0,-0.2 -0.11,-0.37 -0.3,-0.48 -0.75,-0.7 -1.17,-0.7 -0.45,0 -0.81,0.26 -1.05,0.64 -0.26,0.41 -0.29,0.97 -0.29,1.38 0,0.37 0.02,0.96 0.31,1.41 0.21,0.31 0.59,0.64 1.12,0.64 l -0.04,0.22 c -1.17,0 -2.21,-0.98 -2.21,-2.26 0,-1.26 0.97,-2.24 2.11,-2.24 0.63,0 1.08,0.33 1.33,0.65 z"
           inkscape:connector-curvature="0"
           style="fill:#000000;stroke-width:0" /><path
           id="path3728"
           d="m 248.89,710.42 v 1.1 l -1.38,-0.11 v -0.31 c 0.7,0 0.78,-0.07 0.78,-0.56 v -2.66 c 0,-0.45 -0.11,-0.45 -0.78,-0.45 v -0.31 c 0.39,0.02 0.86,0.04 1.14,0.04 0.39,0 0.86,0 1.26,-0.04 v 0.31 h -0.21 c -0.74,0 -0.76,0.11 -0.76,0.47 v 1.53 c 0,0.98 0.42,1.87 1.18,1.87 0.07,0 0.09,0 0.11,-0.01 -0.03,-0.01 -0.23,-0.13 -0.23,-0.39 0,-0.28 0.21,-0.43 0.43,-0.43 0.17,0 0.42,0.12 0.42,0.44 0,0.32 -0.3,0.61 -0.73,0.61 -0.73,0 -1.09,-0.67 -1.23,-1.1 z"
           inkscape:connector-curvature="0"
           style="fill:#000000;stroke-width:0" /><path
           id="path3730"
           d="m 254.45,707.88 0,-0.04 0.01,-0.03 0.01,-0.04 0,-0.04 0.01,-0.04 0.01,-0.03 0.02,-0.04 0.01,-0.03 0.02,-0.04 0.01,-0.03 0.02,-0.04 0.02,-0.03 0.02,-0.03 0.02,-0.04 0.02,-0.03 0.03,-0.03 0.02,-0.02 0.03,-0.03 0.02,-0.03 0.03,-0.02 0.03,-0.02 0.04,-0.03 0.03,-0.02 0.03,-0.01 0.04,-0.02 0.03,-0.01 0.04,-0.02 0.04,-0.01 0.04,0 0.04,-0.01 0.04,0 0.04,0 c 0.21,0 0.82,0.13 0.82,0.94 v 0.56 h -0.25 v -0.56 c 0,-0.58 -0.25,-0.64 -0.36,-0.64 -0.33,0 -0.36,0.45 -0.36,0.5 v 1.99 c 0,0.41 0,0.8 -0.36,1.17 -0.39,0.39 -0.89,0.55 -1.37,0.55 -0.81,0 -1.5,-0.47 -1.5,-1.13 0,-0.29 0.2,-0.46 0.46,-0.46 0.28,0 0.46,0.19 0.46,0.45 0,0.12 -0.05,0.45 -0.51,0.46 0.27,0.35 0.76,0.46 1.07,0.46 0.49,0 1.06,-0.39 1.06,-1.27 v -0.37 -0.21 -0.99 c 0,-0.95 -0.72,-1.29 -1.17,-1.29 -0.48,0 -0.89,0.35 -0.89,0.85 0,0.54 0.42,1.37 2.06,1.43 h 0 v 0.21 c -0.51,-0.03 -1.21,-0.06 -1.83,-0.36 -0.75,-0.34 -1,-0.85 -1,-1.29 0,-0.81 0.97,-1.05 1.6,-1.05 0.65,0 1.11,0.39 1.3,0.86 z"
           inkscape:connector-curvature="0"
           style="fill:#000000;stroke-width:0" /><path
           id="path3732"
           d="m 257.84,711.1 h 1.42 v 0.31 h -1.42 v 1.82 h -0.25 c -0.01,-0.81 -0.31,-1.87 -1.29,-1.91 v -0.22 h 0.85 v -2.74 c 0,-1.22 0.93,-1.34 1.28,-1.34 0.71,0 0.99,0.7 0.99,1.34 v 0.56 h -0.25 v -0.54 c 0,-0.74 -0.3,-1.12 -0.67,-1.12 -0.66,0 -0.66,0.91 -0.66,1.08 z"
           inkscape:connector-curvature="0"
           style="fill:#000000;stroke-width:0" /><path
           id="path3734"
           d="m 263.88,707.91 v -0.89 l 1.43,0.1 v 0.31 c -0.69,0 -0.77,0.07 -0.77,0.56 v 3.53 l -1.46,-0.11 v -0.31 c 0.69,0 0.77,-0.07 0.77,-0.56 v -1.77 c 0,-0.86 -0.48,-1.54 -1.2,-1.54 -0.84,0 -0.88,0.47 -0.88,0.99 v 3.3 l -1.46,-0.11 v -0.31 c 0.77,0 0.77,-0.03 0.77,-0.92 v -1.49 c 0,-0.77 0,-1.67 1.52,-1.67 0.55,0 0.99,0.27 1.28,0.89 z"
           inkscape:connector-curvature="0"
           style="fill:#000000;stroke-width:0" /><path
           id="path3736"
           d="m 267.19,710.42 v 1.1 l -1.39,-0.11 v -0.31 c 0.7,0 0.78,-0.07 0.78,-0.56 v -2.66 c 0,-0.45 -0.11,-0.45 -0.78,-0.45 v -0.31 c 0.39,0.02 0.86,0.04 1.14,0.04 0.4,0 0.86,0 1.26,-0.04 v 0.31 h -0.21 c -0.73,0 -0.75,0.11 -0.75,0.47 v 1.53 c 0,0.98 0.41,1.87 1.17,1.87 0.07,0 0.09,0 0.11,-0.01 -0.03,-0.01 -0.23,-0.13 -0.23,-0.39 0,-0.28 0.21,-0.43 0.43,-0.43 0.18,0 0.43,0.12 0.43,0.44 0,0.32 -0.31,0.61 -0.74,0.61 -0.73,0 -1.08,-0.67 -1.22,-1.1 z"
           inkscape:connector-curvature="0"
           style="fill:#000000;stroke-width:0" /><path
           id="path3738"
           d="m 270.53,709.42 0.01,0.21 c 0.06,1.48 0.9,1.73 1.24,1.73 1.02,0 1.12,-1.34 1.12,-1.73 h -2.36 l -0.01,-0.21 h 2.78 c 0.22,0 0.25,0 0.25,0.21 0,0.98 -0.54,1.95 -1.78,1.95 -1.16,0 -2.07,-1.03 -2.07,-2.27 0,-1.33 1.04,-2.29 2.19,-2.29 1.21,0 1.66,1.1 1.66,1.29 0,0.1 -0.08,0.12 -0.13,0.12 -0.09,0 -0.11,-0.06 -0.13,-0.14 -0.35,-1.03 -1.25,-1.03 -1.35,-1.03 -0.49,0 -0.89,0.3 -1.12,0.67 -0.3,0.48 -0.3,1.13 -0.3,1.49 z"
           inkscape:connector-curvature="0"
           style="fill:#000000;stroke-width:0" /><path
           id="path3740"
           d="m 281.86,709.25 0,0.12 -0.01,0.12 -0.02,0.11 -0.02,0.12 -0.02,0.11 -0.03,0.11 -0.04,0.11 -0.04,0.1 -0.04,0.1 -0.05,0.1 -0.05,0.1 -0.06,0.09 -0.06,0.1 -0.07,0.08 -0.07,0.09 -0.07,0.08 -0.08,0.08 -0.08,0.07 -0.08,0.07 -0.09,0.06 -0.08,0.07 -0.1,0.05 -0.09,0.05 -0.1,0.05 -0.1,0.04 -0.1,0.04 -0.1,0.03 -0.11,0.03 -0.11,0.02 -0.11,0.01 -0.11,0.01 -0.11,0.01 -0.01,-0.22 c 0.44,0 0.87,-0.22 1.12,-0.65 0.26,-0.43 0.26,-1 0.26,-1.38 0,-0.36 0,-0.89 -0.21,-1.33 -0.22,-0.45 -0.66,-0.74 -1.16,-0.74 h 0 c -0.43,0 -0.86,0.21 -1.13,0.67 -0.25,0.44 -0.25,1.04 -0.25,1.4 0,0.39 0,0.92 0.24,1.36 0.27,0.46 0.73,0.67 1.13,0.67 l 0.01,0.22 c -1.24,0 -2.21,-1.09 -2.21,-2.33 0,-1.28 1.04,-2.23 2.2,-2.23 1.2,0 2.21,0.97 2.21,2.23 z"
           inkscape:connector-curvature="0"
           style="fill:#000000;stroke-width:0" /><path
           id="path3742"
           d="m 283.82,710.42 v 1.1 l -1.39,-0.11 v -0.31 c 0.7,0 0.78,-0.07 0.78,-0.56 v -2.66 c 0,-0.45 -0.11,-0.45 -0.78,-0.45 v -0.31 c 0.39,0.02 0.86,0.04 1.14,0.04 0.39,0 0.86,0 1.26,-0.04 v 0.31 h -0.21 c -0.73,0 -0.75,0.11 -0.75,0.47 v 1.53 c 0,0.98 0.41,1.87 1.17,1.87 0.07,0 0.09,0 0.11,-0.01 -0.03,-0.01 -0.23,-0.13 -0.23,-0.39 0,-0.28 0.21,-0.43 0.43,-0.43 0.18,0 0.43,0.12 0.43,0.44 0,0.32 -0.31,0.61 -0.74,0.61 -0.73,0 -1.09,-0.67 -1.22,-1.1 z"
           inkscape:connector-curvature="0"
           style="fill:#000000;stroke-width:0" /><path
           id="path3744"
           d="m 289.84,707.67 v -0.65 l 1.46,0.1 v 0.31 c -0.7,0 -0.78,0.07 -0.78,0.56 v 6.03 l -1.43,-0.11 v -0.31 c 0.7,0 0.78,-0.07 0.78,-0.55 v -2.15 c -0.29,0.36 -0.72,0.62 -1.26,0.62 l 0.04,-0.22 c 0.35,0 0.77,-0.15 1.08,-0.6 0.11,-0.17 0.11,-0.19 0.11,-0.37 h 0 v -2.03 c 0,-0.18 0,-0.2 -0.11,-0.37 -0.3,-0.48 -0.75,-0.7 -1.18,-0.7 -0.44,0 -0.8,0.26 -1.04,0.64 -0.26,0.41 -0.29,0.97 -0.29,1.38 0,0.37 0.02,0.96 0.31,1.41 0.21,0.31 0.59,0.64 1.12,0.64 l -0.04,0.22 c -1.17,0 -2.22,-0.98 -2.22,-2.26 0,-1.26 0.98,-2.24 2.11,-2.24 0.64,0 1.09,0.33 1.34,0.65 z"
           inkscape:connector-curvature="0"
           style="fill:#000000;stroke-width:0" /><path
           id="path3746"
           d="m 292.7,709.42 0.01,0.21 c 0.06,1.48 0.89,1.73 1.23,1.73 1.02,0 1.12,-1.34 1.12,-1.73 h -2.35 l -0.01,-0.21 h 2.77 c 0.22,0 0.25,0 0.25,0.21 0,0.98 -0.54,1.95 -1.78,1.95 -1.15,0 -2.07,-1.03 -2.07,-2.27 0,-1.33 1.05,-2.29 2.19,-2.29 1.21,0 1.66,1.1 1.66,1.29 0,0.1 -0.08,0.12 -0.13,0.12 -0.09,0 -0.11,-0.06 -0.13,-0.14 -0.35,-1.03 -1.24,-1.03 -1.34,-1.03 -0.5,0 -0.9,0.3 -1.13,0.67 -0.29,0.48 -0.29,1.13 -0.29,1.49 z"
           inkscape:connector-curvature="0"
           style="fill:#000000;stroke-width:0" /><path
           id="path3748"
           d="m 297.68,710.42 v 1.1 l -1.38,-0.11 v -0.31 c 0.69,0 0.77,-0.07 0.77,-0.56 v -2.66 c 0,-0.45 -0.11,-0.45 -0.77,-0.45 v -0.31 c 0.39,0.02 0.85,0.04 1.13,0.04 0.4,0 0.87,0 1.27,-0.04 v 0.31 h -0.21 c -0.74,0 -0.76,0.11 -0.76,0.47 v 1.53 c 0,0.98 0.42,1.87 1.17,1.87 0.07,0 0.09,0 0.11,-0.01 -0.03,-0.01 -0.22,-0.13 -0.22,-0.39 0,-0.28 0.2,-0.43 0.42,-0.43 0.18,0 0.43,0.12 0.43,0.44 0,0.32 -0.31,0.61 -0.74,0.61 -0.72,0 -1.08,-0.67 -1.22,-1.1 z"
           inkscape:connector-curvature="0"
           style="fill:#000000;stroke-width:0" /><path
           id="path3750"
           d="m 301.94,707.14 0,0.05 0,0.06 -0.01,0.06 0,0.05 -0.01,0.06 0,0.05 -0.01,0.05 -0.01,0.05 -0.01,0.04 -0.02,0.05 -0.01,0.04 -0.02,0.04 -0.01,0.04 -0.02,0.04 -0.02,0.04 -0.02,0.03 -0.02,0.04 -0.02,0.03 -0.02,0.03 -0.03,0.03 -0.02,0.02 -0.03,0.02 -0.03,0.03 -0.03,0.01 -0.03,0.02 -0.03,0.02 -0.03,0.01 -0.03,0.01 -0.04,0.01 -0.03,0 -0.04,0.01 -0.04,0 c -0.34,0 -0.52,-0.27 -0.52,-0.53 0,-0.26 0.17,-0.53 0.52,-0.53 0.16,0 0.28,0.06 0.38,0.14 l 0.02,0.02 c 0.01,0 0.02,-0.01 0.02,-0.14 0,-0.64 -0.28,-1.25 -0.71,-1.71 -0.06,-0.06 -0.07,-0.07 -0.07,-0.11 0,-0.07 0.05,-0.11 0.1,-0.11 0.11,0 0.9,0.78 0.9,1.93 z"
           inkscape:connector-curvature="0"
           style="fill:#000000;stroke-width:0" /><path
           id="path3752"
           d="m 311.8,709.69 h -0.25 c -0.11,-1.02 -0.25,-2.26 -2,-2.26 h -0.82 c -0.46,0 -0.49,0.07 -0.49,0.4 v 5.29 c 0,0.34 0,0.48 0.95,0.48 h 0.33 v 0.31 c -0.36,-0.03 -1.26,-0.03 -1.67,-0.03 -0.39,0 -1.17,0 -1.52,0.03 v -0.31 h 0.24 c 0.77,0 0.79,-0.11 0.79,-0.46 v -5.24 c 0,-0.36 -0.02,-0.47 -0.79,-0.47 h -0.24 v -0.31 h 5.19 z"
           inkscape:connector-curvature="0"
           style="fill:#000000;stroke-width:0" /></g><g
         style="font-style:normal;font-variant:normal;font-weight:normal;font-stretch:normal;letter-spacing:normal;word-spacing:normal;text-anchor:start;fill:none;stroke:#000000;stroke-linecap:butt;stroke-linejoin:miter;stroke-miterlimit:10.43299961;stroke-opacity:1;stroke-dasharray:none;stroke-dashoffset:0"
         id="g3946"
         transform="matrix(1.040008,0,0,1.1350371,-75.365592,-95.126952)"
         xml:space="preserve"
         stroke-miterlimit="10.433"
         font-style="normal"
         font-variant="normal"
         font-weight="normal"
         font-stretch="normal"
         font-size-adjust="none"
         letter-spacing="normal"
         word-spacing="normal"
         ns0:text="Polynomial order, M"
         ns0:preamble=""><path
           style="fill:#000000;stroke-width:0"
           inkscape:connector-curvature="0"
           d="m 225.69,710.26 -0.03,0.26 v 2.69 c 0,0.32 0.02,0.39 0.49,0.39 h 0.88 c 1.59,0 1.59,-1.05 1.59,-1.54 0,-0.47 0,-1.54 -1.59,-1.54 h -1.37 l 0.03,-0.26 h 1.68 c 1.2,0 2.27,0.81 2.27,1.8 0,0.98 -0.99,1.85 -2.35,1.85 h -3.51 v -0.31 h 0.24 c 0.77,0 0.78,-0.11 0.78,-0.46 v -5.24 c 0,-0.36 -0.01,-0.47 -0.78,-0.47 h -0.24 v -0.31 c 0.35,0.04 1.09,0.04 1.46,0.04 0.38,0 1.13,0 1.47,-0.04 v 0.31 h -0.23 c -0.77,0 -0.79,0.11 -0.79,0.47 z"
           id="path3948" /><path
           style="fill:#000000;stroke-width:0"
           inkscape:connector-curvature="0"
           d="m 234.62,709.25 0,0.12 -0.01,0.12 -0.02,0.11 -0.02,0.12 -0.02,0.11 -0.03,0.11 -0.03,0.11 -0.04,0.1 -0.05,0.1 -0.05,0.1 -0.05,0.1 -0.06,0.09 -0.06,0.1 -0.07,0.08 -0.06,0.09 -0.08,0.08 -0.07,0.08 -0.08,0.07 -0.09,0.07 -0.08,0.06 -0.09,0.07 -0.1,0.05 -0.09,0.05 -0.1,0.05 -0.1,0.04 -0.1,0.04 -0.1,0.03 -0.11,0.03 -0.11,0.02 -0.11,0.01 -0.11,0.01 -0.11,0.01 -0.01,-0.22 c 0.44,0 0.87,-0.22 1.13,-0.65 0.25,-0.43 0.25,-1 0.25,-1.38 0,-0.36 0,-0.89 -0.22,-1.33 -0.21,-0.45 -0.65,-0.74 -1.15,-0.74 h 0 c -0.43,0 -0.87,0.21 -1.13,0.67 -0.25,0.44 -0.25,1.04 -0.25,1.4 0,0.39 0,0.92 0.24,1.36 0.26,0.46 0.73,0.67 1.13,0.67 l 0.01,0.22 c -1.24,0 -2.21,-1.09 -2.21,-2.33 0,-1.28 1.04,-2.23 2.2,-2.23 1.21,0 2.21,0.97 2.21,2.23 z"
           id="path3950" /><path
           style="fill:#000000;stroke-width:0"
           inkscape:connector-curvature="0"
           d="m 236.68,714.02 -1.44,-0.11 v -0.31 c 0.7,0 0.78,-0.07 0.78,-0.55 v -5.17 c 0,-0.45 -0.11,-0.45 -0.78,-0.45 v -0.31 c 0.33,0.02 0.86,0.04 1.11,0.04 0.25,0 0.73,-0.02 1.1,-0.04 v 0.31 c -0.66,0 -0.77,0 -0.77,0.45 z"
           id="path3952" /><path
           style="fill:#000000;stroke-width:0"
           inkscape:connector-curvature="0"
           d="m 241.81,710.46 0.01,0.03 0.02,0.03 0.01,0.03 0.01,0.02 0.02,0.03 0.01,0.02 0.01,0.03 0.02,0.02 0.03,0.04 0.03,0.04 0.03,0.04 0.03,0.04 0.04,0.03 0.03,0.03 0.03,0.02 0.04,0.03 0.03,0.02 0.03,0.02 0.04,0.02 0.03,0.02 0.03,0.01 0.04,0.01 0.03,0.01 0.03,0.01 0.03,0.01 0.03,0.01 0.03,0 0.03,0.01 0.03,0 0.02,0 0.03,0.01 0.02,0 0.02,0 0.02,0 0.02,0 0.02,0 v 0.31 c -0.23,-0.02 -0.52,-0.03 -0.75,-0.03 -0.18,0 -0.65,0.02 -0.87,0.03 v -0.31 c 0.31,-0.01 0.47,-0.18 0.47,-0.43 0,-0.1 -0.01,-0.12 -0.06,-0.24 l -1,-2.44 -1.11,2.67 c -0.04,0.1 -0.06,0.14 -0.06,0.18 0,0.26 0.37,0.26 0.56,0.26 v 0.31 c -0.26,-0.01 -0.91,-0.03 -1.08,-0.03 -0.27,0 -0.67,0.01 -0.97,0.03 v -0.31 c 0.48,0 0.67,0 0.81,-0.35 l 1.49,-3.63 c -0.05,-0.12 -0.19,-0.45 -0.25,-0.58 -0.22,-0.55 -0.5,-1.23 -1.13,-1.23 -0.05,0 -0.28,0 -0.47,0.18 0.31,0.04 0.39,0.25 0.39,0.41 0,0.26 -0.19,0.42 -0.42,0.42 -0.2,0 -0.42,-0.13 -0.42,-0.43 0,-0.44 0.42,-0.8 0.92,-0.8 0.62,0 1.03,0.57 1.27,1.13 z"
           id="path3954" /><path
           style="fill:#000000;stroke-width:0"
           inkscape:connector-curvature="0"
           d="m 244.04,710.54 v -2.66 c 0,-0.45 -0.11,-0.45 -0.78,-0.45 v -0.31 c 0.35,0.02 0.86,0.04 1.12,0.04 0.26,0 0.78,-0.02 1.12,-0.04 v 0.31 c -0.67,0 -0.78,0 -0.78,0.45 v 1.83 c 0,1.03 0.71,1.59 1.35,1.59 0.62,0 0.73,-0.54 0.73,-1.1 v -2.32 c 0,-0.45 -0.11,-0.45 -0.78,-0.45 v -0.31 c 0.35,0.02 0.86,0.04 1.13,0.04 0.26,0 0.78,-0.02 1.11,-0.04 v 0.31 c -0.51,0 -0.76,0 -0.77,0.3 v 1.9 c 0,0.85 0,1.16 -0.31,1.52 -0.14,0.17 -0.47,0.37 -1.05,0.37 -0.72,0 -1.19,-0.43 -1.47,-1.05 v 1.05 l -1.4,-0.11 v -0.31 c 0.7,0 0.78,-0.07 0.78,-0.56 z"
           id="path3956" /><path
           style="fill:#000000;stroke-width:0"
           inkscape:connector-curvature="0"
           d="m 253.16,709.25 0,0.12 -0.01,0.12 -0.01,0.11 -0.02,0.12 -0.03,0.11 -0.03,0.11 -0.03,0.11 -0.04,0.1 -0.05,0.1 -0.05,0.1 -0.05,0.1 -0.06,0.09 -0.06,0.1 -0.06,0.08 -0.07,0.09 -0.08,0.08 -0.07,0.08 -0.08,0.07 -0.09,0.07 -0.08,0.06 -0.09,0.07 -0.09,0.05 -0.1,0.05 -0.1,0.05 -0.1,0.04 -0.1,0.04 -0.1,0.03 -0.11,0.03 -0.1,0.02 -0.11,0.01 -0.11,0.01 -0.12,0.01 -0.01,-0.22 c 0.44,0 0.87,-0.22 1.13,-0.65 0.26,-0.43 0.26,-1 0.26,-1.38 0,-0.36 0,-0.89 -0.22,-1.33 -0.22,-0.45 -0.66,-0.74 -1.16,-0.74 h 0 c -0.42,0 -0.86,0.21 -1.13,0.67 -0.25,0.44 -0.25,1.04 -0.25,1.4 0,0.39 0,0.92 0.24,1.36 0.27,0.46 0.73,0.67 1.13,0.67 l 0.01,0.22 c -1.24,0 -2.21,-1.09 -2.21,-2.33 0,-1.28 1.04,-2.23 2.2,-2.23 1.21,0 2.21,0.97 2.21,2.23 z"
           id="path3958" /><path
           style="fill:#000000;stroke-width:0"
           inkscape:connector-curvature="0"
           d="m 254.55,710.54 v -2.66 c 0,-0.45 -0.11,-0.45 -0.77,-0.45 v -0.31 c 0.34,0.02 0.85,0.04 1.12,0.04 0.26,0 0.78,-0.02 1.11,-0.04 v 0.31 c -0.66,0 -0.77,0 -0.77,0.45 v 1.83 c 0,1.03 0.71,1.59 1.34,1.59 0.63,0 0.74,-0.54 0.74,-1.1 v -2.32 c 0,-0.45 -0.11,-0.45 -0.78,-0.45 v -0.31 c 0.35,0.02 0.86,0.04 1.13,0.04 0.25,0 0.77,-0.02 1.11,-0.04 v 0.31 c -0.67,0 -0.78,0 -0.78,0.45 v 1.83 c 0,1.03 0.71,1.59 1.35,1.59 0.62,0 0.73,-0.54 0.73,-1.1 v -2.32 c 0,-0.45 -0.11,-0.45 -0.77,-0.45 v -0.31 c 0.35,0.02 0.85,0.04 1.12,0.04 0.26,0 0.78,-0.02 1.12,-0.04 v 0.31 c -0.52,0 -0.77,0 -0.78,0.3 v 1.9 c 0,0.85 0,1.16 -0.31,1.52 -0.14,0.17 -0.47,0.37 -1.04,0.37 -0.84,0 -1.28,-0.6 -1.45,-0.98 -0.14,0.87 -0.87,0.98 -1.32,0.98 -0.72,0 -1.19,-0.43 -1.47,-1.05 v 1.05 l -1.4,-0.11 v -0.31 c 0.69,0 0.77,-0.07 0.77,-0.56 z"
           id="path3960" /><path
           style="fill:#000000;stroke-width:0"
           inkscape:connector-curvature="0"
           d="m 263.52,711.52 -1.39,-0.11 v -0.31 c 0.64,0 0.73,-0.06 0.73,-0.55 v -2.67 c 0,-0.45 -0.11,-0.45 -0.77,-0.45 v -0.31 c 0.32,0.02 0.85,0.04 1.09,0.04 0.35,0 0.7,-0.02 1.04,-0.04 v 0.31 c -0.66,0 -0.7,0.05 -0.7,0.44 z"
           id="path3962" /><path
           style="fill:#000000;stroke-width:0"
           inkscape:connector-curvature="0"
           d="m 263.56,713.24 0,0.03 0,0.03 -0.01,0.03 0,0.03 -0.01,0.02 0,0.03 -0.01,0.03 -0.01,0.02 -0.01,0.02 -0.02,0.03 -0.01,0.02 -0.01,0.02 -0.02,0.02 -0.01,0.02 -0.02,0.02 -0.02,0.02 -0.02,0.01 -0.02,0.02 -0.02,0.01 -0.02,0.02 -0.02,0.01 -0.02,0.01 -0.02,0.01 -0.03,0.01 -0.02,0.01 -0.03,0.01 -0.02,0.01 -0.02,0 -0.03,0.01 -0.03,0 -0.02,0 -0.03,0 c -0.31,0 -0.52,-0.27 -0.52,-0.53 0,-0.26 0.21,-0.52 0.52,-0.52 0.28,0 0.53,0.21 0.53,0.52 z"
           id="path3964" /><path
           style="fill:#000000;stroke-width:0"
           inkscape:connector-curvature="0"
           d="m 267.84,707.88 0,-0.04 0.01,-0.03 0.01,-0.04 0.01,-0.04 0.01,-0.04 0.01,-0.03 0.01,-0.04 0.01,-0.03 0.02,-0.04 0.01,-0.03 0.02,-0.04 0.02,-0.03 0.02,-0.03 0.02,-0.04 0.02,-0.03 0.03,-0.03 0.02,-0.02 0.03,-0.03 0.03,-0.03 0.03,-0.02 0.03,-0.02 0.03,-0.03 0.03,-0.02 0.03,-0.01 0.04,-0.02 0.03,-0.01 0.04,-0.02 0.04,-0.01 0.04,0 0.04,-0.01 0.04,0 0.05,0 c 0.21,0 0.81,0.13 0.81,0.94 v 0.56 h -0.25 v -0.56 c 0,-0.58 -0.25,-0.64 -0.35,-0.64 -0.33,0 -0.37,0.45 -0.37,0.5 v 1.99 c 0,0.41 0,0.8 -0.36,1.17 -0.39,0.39 -0.89,0.55 -1.37,0.55 -0.81,0 -1.5,-0.47 -1.5,-1.13 0,-0.29 0.2,-0.46 0.46,-0.46 0.28,0 0.46,0.19 0.46,0.45 0,0.12 -0.05,0.45 -0.51,0.46 0.27,0.35 0.76,0.46 1.07,0.46 0.49,0 1.06,-0.39 1.06,-1.27 v -0.37 -0.21 -0.99 c 0,-0.95 -0.72,-1.29 -1.16,-1.29 -0.49,0 -0.9,0.35 -0.9,0.85 0,0.54 0.42,1.37 2.06,1.43 h 0 v 0.21 c -0.51,-0.03 -1.2,-0.06 -1.83,-0.36 -0.75,-0.34 -0.99,-0.85 -0.99,-1.29 0,-0.81 0.96,-1.05 1.59,-1.05 0.65,0 1.11,0.39 1.3,0.86 z"
           id="path3966" /><path
           style="fill:#000000;stroke-width:0"
           inkscape:connector-curvature="0"
           d="m 271.27,714.02 -1.43,-0.11 v -0.31 c 0.69,0 0.77,-0.07 0.77,-0.55 v -5.17 c 0,-0.45 -0.11,-0.45 -0.77,-0.45 v -0.31 c 0.33,0.02 0.85,0.04 1.1,0.04 0.25,0 0.74,-0.02 1.11,-0.04 v 0.31 c -0.67,0 -0.78,0 -0.78,0.45 z"
           id="path3968" /><path
           style="fill:#000000;stroke-width:0"
           inkscape:connector-curvature="0"
           d="m 280.28,709.25 0,0.12 -0.01,0.12 -0.02,0.11 -0.02,0.12 -0.02,0.11 -0.03,0.11 -0.04,0.11 -0.04,0.1 -0.04,0.1 -0.05,0.1 -0.05,0.1 -0.06,0.09 -0.06,0.1 -0.07,0.08 -0.07,0.09 -0.07,0.08 -0.08,0.08 -0.08,0.07 -0.08,0.07 -0.09,0.06 -0.08,0.07 -0.1,0.05 -0.09,0.05 -0.1,0.05 -0.1,0.04 -0.1,0.04 -0.1,0.03 -0.11,0.03 -0.11,0.02 -0.11,0.01 -0.11,0.01 -0.11,0.01 -0.01,-0.22 c 0.44,0 0.87,-0.22 1.13,-0.65 0.25,-0.43 0.25,-1 0.25,-1.38 0,-0.36 0,-0.89 -0.22,-1.33 -0.21,-0.45 -0.65,-0.74 -1.15,-0.74 h 0 c -0.43,0 -0.87,0.21 -1.13,0.67 -0.25,0.44 -0.25,1.04 -0.25,1.4 0,0.39 0,0.92 0.24,1.36 0.26,0.46 0.73,0.67 1.13,0.67 l 0.01,0.22 c -1.24,0 -2.21,-1.09 -2.21,-2.33 0,-1.28 1.04,-2.23 2.2,-2.23 1.2,0 2.21,0.97 2.21,2.23 z"
           id="path3970" /><path
           style="fill:#000000;stroke-width:0"
           inkscape:connector-curvature="0"
           d="m 282.24,710.42 v 1.1 l -1.39,-0.11 v -0.31 c 0.7,0 0.78,-0.07 0.78,-0.56 v -2.66 c 0,-0.45 -0.11,-0.45 -0.78,-0.45 v -0.31 c 0.39,0.02 0.86,0.04 1.14,0.04 0.4,0 0.86,0 1.26,-0.04 v 0.31 h -0.21 c -0.73,0 -0.75,0.11 -0.75,0.47 v 1.53 c 0,0.98 0.41,1.87 1.17,1.87 0.07,0 0.09,0 0.11,-0.01 -0.03,-0.01 -0.23,-0.13 -0.23,-0.39 0,-0.28 0.21,-0.43 0.43,-0.43 0.18,0 0.43,0.12 0.43,0.44 0,0.32 -0.31,0.61 -0.74,0.61 -0.73,0 -1.08,-0.67 -1.22,-1.1 z"
           id="path3972" /><path
           style="fill:#000000;stroke-width:0"
           inkscape:connector-curvature="0"
           d="m 288.26,707.67 v -0.65 l 1.46,0.1 v 0.31 c -0.7,0 -0.78,0.07 -0.78,0.56 v 6.03 l -1.43,-0.11 v -0.31 c 0.7,0 0.78,-0.07 0.78,-0.55 v -2.15 c -0.29,0.36 -0.72,0.62 -1.26,0.62 l 0.04,-0.22 c 0.35,0 0.77,-0.15 1.08,-0.6 0.11,-0.17 0.11,-0.19 0.11,-0.37 h 0 v -2.03 c 0,-0.18 0,-0.2 -0.11,-0.37 -0.3,-0.48 -0.75,-0.7 -1.18,-0.7 -0.44,0 -0.8,0.26 -1.04,0.64 -0.26,0.41 -0.29,0.97 -0.29,1.38 0,0.37 0.02,0.96 0.31,1.41 0.21,0.31 0.59,0.64 1.12,0.64 l -0.04,0.22 c -1.17,0 -2.21,-0.98 -2.21,-2.26 0,-1.26 0.97,-2.24 2.1,-2.24 0.64,0 1.09,0.33 1.34,0.65 z"
           id="path3974" /><path
           style="fill:#000000;stroke-width:0"
           inkscape:connector-curvature="0"
           d="m 291.12,709.42 0.01,0.21 c 0.06,1.48 0.89,1.73 1.23,1.73 1.03,0 1.12,-1.34 1.12,-1.73 h -2.35 l -0.01,-0.21 h 2.77 c 0.22,0 0.25,0 0.25,0.21 0,0.98 -0.54,1.95 -1.78,1.95 -1.15,0 -2.07,-1.03 -2.07,-2.27 0,-1.33 1.04,-2.29 2.19,-2.29 1.21,0 1.66,1.1 1.66,1.29 0,0.1 -0.08,0.12 -0.13,0.12 -0.09,0 -0.11,-0.06 -0.13,-0.14 -0.35,-1.03 -1.24,-1.03 -1.34,-1.03 -0.5,0 -0.9,0.3 -1.12,0.67 -0.3,0.48 -0.3,1.13 -0.3,1.49 z"
           id="path3976" /><path
           style="fill:#000000;stroke-width:0"
           inkscape:connector-curvature="0"
           d="m 296.1,710.42 v 1.1 l -1.38,-0.11 v -0.31 c 0.69,0 0.77,-0.07 0.77,-0.56 v -2.66 c 0,-0.45 -0.11,-0.45 -0.77,-0.45 v -0.31 c 0.39,0.02 0.85,0.04 1.13,0.04 0.4,0 0.87,0 1.27,-0.04 v 0.31 h -0.21 c -0.74,0 -0.76,0.11 -0.76,0.47 v 1.53 c 0,0.98 0.42,1.87 1.17,1.87 0.07,0 0.09,0 0.11,-0.01 -0.03,-0.01 -0.23,-0.13 -0.23,-0.39 0,-0.28 0.21,-0.43 0.43,-0.43 0.18,0 0.43,0.12 0.43,0.44 0,0.32 -0.31,0.61 -0.74,0.61 -0.72,0 -1.08,-0.67 -1.22,-1.1 z"
           id="path3978" /><path
           style="fill:#000000;stroke-width:0"
           inkscape:connector-curvature="0"
           d="m 300.36,707.14 0,0.05 0,0.06 -0.01,0.06 0,0.05 -0.01,0.06 0,0.05 -0.01,0.05 -0.01,0.05 -0.01,0.04 -0.02,0.05 -0.01,0.04 -0.02,0.04 -0.01,0.04 -0.02,0.04 -0.02,0.04 -0.02,0.03 -0.02,0.04 -0.02,0.03 -0.02,0.03 -0.03,0.03 -0.02,0.02 -0.03,0.02 -0.03,0.03 -0.03,0.01 -0.03,0.02 -0.03,0.02 -0.03,0.01 -0.03,0.01 -0.04,0.01 -0.03,0 -0.04,0.01 -0.03,0 c -0.35,0 -0.53,-0.27 -0.53,-0.53 0,-0.26 0.17,-0.53 0.53,-0.53 0.15,0 0.27,0.06 0.37,0.14 l 0.02,0.02 c 0.01,0 0.02,-0.01 0.02,-0.14 0,-0.64 -0.28,-1.25 -0.71,-1.71 -0.06,-0.06 -0.07,-0.07 -0.07,-0.11 0,-0.07 0.05,-0.11 0.1,-0.11 0.12,0 0.9,0.78 0.9,1.93 z"
           id="path3980" /><path
           style="fill:#000000;stroke-width:0"
           inkscape:connector-curvature="0"
           d="m 306.83,713.69 0,0.01 0,0.01 -0.01,0.01 0,0.01 -0.01,0.02 -0.01,0.01 0,0.02 -0.01,0.01 -0.01,0.02 -0.01,0.01 0,0.01 -0.01,0.01 -0.01,0.01 0,0.01 -0.01,0 -0.01,0.01 -0.01,0.01 -0.01,0 -0.01,0.01 -0.01,0 -0.01,0.01 -0.01,0 -0.01,0 -0.01,0 -0.01,0.01 -0.02,0 -0.01,0 -0.01,0 -0.02,0 -0.02,0 -0.01,0 -0.02,0 -0.02,0 -0.02,0 h -1.69 v -0.31 h 0.24 c 0.77,0 0.79,-0.11 0.79,-0.46 v -4.97 c 0,-0.27 0,-0.74 -1.03,-0.74 v -0.31 c 0.35,0.02 0.84,0.04 1.17,0.04 0.33,0 0.82,-0.02 1.16,-0.04 v 0.31 c -1.02,0 -1.02,0.47 -1.02,0.74 v 5.35 h 0.01 l 2.4,-6.18 c 0.05,-0.13 0.09,-0.22 0.19,-0.22 0.11,0 0.14,0.08 0.18,0.19 l 2.45,6.29 h 0.01 v -5.7 c 0,-0.36 -0.02,-0.47 -0.78,-0.47 h -0.24 v -0.31 c 0.37,0.04 1.04,0.04 1.43,0.04 0.39,0 1.05,0 1.42,-0.04 v 0.31 h -0.24 c -0.76,0 -0.78,0.11 -0.78,0.47 v 5.24 c 0,0.35 0.02,0.46 0.78,0.46 h 0.24 v 0.31 h -1.68 c -0.26,0 -0.26,-0.01 -0.33,-0.19 l -2.18,-5.59 z"
           id="path3982" /></g><g
         ns0:preamble=""
         ns0:text="Number of nodes, K"
         word-spacing="normal"
         letter-spacing="normal"
         font-size-adjust="none"
         font-stretch="normal"
         font-weight="normal"
         font-variant="normal"
         font-style="normal"
         stroke-miterlimit="10.433"
         xml:space="preserve"
         transform="matrix(0.99250062,0,0,1.0330428,-65.317049,-70.053611)"
         id="g4215"
         style="font-style:normal;font-variant:normal;font-weight:normal;font-stretch:normal;letter-spacing:normal;word-spacing:normal;text-anchor:start;fill:none;stroke:#000000;stroke-linecap:butt;stroke-linejoin:miter;stroke-miterlimit:10.43299961;stroke-opacity:1;stroke-dasharray:none;stroke-dashoffset:0"><path
           id="path4217"
           d="m 225.74,713.78 -0.01,0.01 -0.01,0.01 0,0.01 -0.01,0.01 -0.01,0.01 0,0.01 -0.01,0 -0.01,0.01 0,0.01 -0.01,0 0,0.01 -0.01,0 -0.01,0.01 0,0 -0.01,0.01 -0.01,0 0,0 -0.01,0.01 -0.01,0 -0.01,0 -0.01,0 -0.01,0 -0.01,0.01 -0.01,0 -0.01,0 -0.01,0 -0.01,0 -0.02,0 -0.01,0 -0.01,0 0,0 -0.01,0 -0.01,0 -0.01,0 -0.01,0 h -1.69 v -0.31 h 0.29 c 0.15,0 0.35,-0.01 0.5,-0.02 0.22,-0.03 0.24,-0.04 0.24,-0.23 v -5.18 c 0,-0.27 0,-0.74 -1.03,-0.74 v -0.31 c 0.35,0.02 0.84,0.04 1.16,0.04 0.33,0 0.82,-0.02 1.17,-0.04 v 0.31 c -1.03,0 -1.03,0.47 -1.03,0.74 v 5.16 c 0.05,-0.05 0.06,-0.06 0.1,-0.12 l 4.06,-5.96 c 0.09,-0.11 0.1,-0.13 0.17,-0.13 0.14,0 0.14,0.07 0.14,0.26 v 5.49 c 0,0.27 0,0.73 1.03,0.73 v 0.31 c -0.35,-0.01 -0.84,-0.03 -1.17,-0.03 -0.33,0 -0.81,0.02 -1.16,0.03 v -0.31 c 1.02,0 1.02,-0.46 1.02,-0.73 v -4.25 z"
           inkscape:connector-curvature="0"
           style="fill:#000000;stroke-width:0" /><path
           id="path4219"
           d="m 234.79,707.91 v -0.89 l 1.44,0.1 v 0.31 c -0.7,0 -0.78,0.07 -0.78,0.56 v 3.53 l -1.46,-0.11 v -0.31 c 0.69,0 0.77,-0.07 0.77,-0.56 v -1.77 c 0,-0.86 -0.47,-1.54 -1.2,-1.54 -0.83,0 -0.88,0.47 -0.88,0.99 v 3.3 l -1.46,-0.11 v -0.31 c 0.78,0 0.78,-0.03 0.78,-0.92 v -1.49 c 0,-0.77 0,-1.67 1.51,-1.67 0.56,0 1,0.27 1.28,0.89 z"
           inkscape:connector-curvature="0"
           style="fill:#000000;stroke-width:0" /><path
           id="path4221"
           d="m 237.53,710.54 v -2.66 c 0,-0.45 -0.11,-0.45 -0.77,-0.45 v -0.31 c 0.35,0.02 0.85,0.04 1.12,0.04 0.26,0 0.78,-0.02 1.12,-0.04 v 0.31 c -0.67,0 -0.78,0 -0.78,0.45 v 1.83 c 0,1.03 0.71,1.59 1.34,1.59 0.63,0 0.74,-0.54 0.74,-1.1 v -2.32 c 0,-0.45 -0.11,-0.45 -0.78,-0.45 v -0.31 c 0.35,0.02 0.86,0.04 1.13,0.04 0.26,0 0.77,-0.02 1.11,-0.04 v 0.31 c -0.66,0 -0.77,0 -0.77,0.45 v 1.83 c 0,1.03 0.7,1.59 1.34,1.59 0.63,0 0.74,-0.54 0.74,-1.1 v -2.32 c 0,-0.45 -0.11,-0.45 -0.78,-0.45 v -0.31 c 0.35,0.02 0.86,0.04 1.12,0.04 0.26,0 0.78,-0.02 1.12,-0.04 v 0.31 c -0.52,0 -0.77,0 -0.78,0.3 v 1.9 c 0,0.85 0,1.16 -0.31,1.52 -0.14,0.17 -0.46,0.37 -1.04,0.37 -0.84,0 -1.28,-0.6 -1.44,-0.98 -0.14,0.87 -0.88,0.98 -1.33,0.98 -0.72,0 -1.19,-0.43 -1.47,-1.05 v 1.05 l -1.4,-0.11 v -0.31 c 0.69,0 0.77,-0.07 0.77,-0.56 z"
           inkscape:connector-curvature="0"
           style="fill:#000000;stroke-width:0" /><path
           id="path4223"
           d="m 246.17,710.87 v 3.15 l -1.43,-0.11 v -0.31 c 0.7,0 0.78,-0.07 0.78,-0.55 v -5.93 h 0.24 c 0.01,0.02 0.09,0.15 0.36,0.62 0.15,-0.23 0.57,-0.72 1.31,-0.72 l -0.04,0.21 c -0.45,0 -0.81,0.24 -1.05,0.61 -0.14,0.21 -0.14,0.24 -0.14,0.42 h 0 v 2.04 c 0,0.19 0,0.2 0.11,0.36 0.39,0.56 0.94,0.64 1.18,0.64 0.44,0 0.8,-0.26 1.04,-0.64 0.26,-0.41 0.29,-0.97 0.29,-1.38 0,-0.37 -0.02,-0.96 -0.31,-1.41 -0.21,-0.31 -0.59,-0.64 -1.12,-0.64 l 0.04,-0.21 c 1.18,0 2.22,0.97 2.22,2.25 0,1.26 -0.98,2.25 -2.11,2.25 -0.78,0 -1.21,-0.47 -1.37,-0.65 z"
           inkscape:connector-curvature="0"
           style="fill:#000000;stroke-width:0" /><path
           id="path4225"
           d="m 251.38,709.42 0.01,0.21 c 0.06,1.48 0.9,1.73 1.23,1.73 1.03,0 1.13,-1.34 1.13,-1.73 h -2.36 l -0.01,-0.21 h 2.78 c 0.22,0 0.24,0 0.24,0.21 0,0.98 -0.53,1.95 -1.78,1.95 -1.15,0 -2.07,-1.03 -2.07,-2.27 0,-1.33 1.05,-2.29 2.19,-2.29 1.22,0 1.66,1.1 1.66,1.29 0,0.1 -0.08,0.12 -0.12,0.12 -0.09,0 -0.11,-0.06 -0.13,-0.14 -0.35,-1.03 -1.25,-1.03 -1.35,-1.03 -0.49,0 -0.89,0.3 -1.12,0.67 -0.3,0.48 -0.3,1.13 -0.3,1.49 z"
           inkscape:connector-curvature="0"
           style="fill:#000000;stroke-width:0" /><path
           id="path4227"
           d="m 256.36,710.42 v 1.1 l -1.38,-0.11 v -0.31 c 0.7,0 0.78,-0.07 0.78,-0.56 v -2.66 c 0,-0.45 -0.11,-0.45 -0.78,-0.45 v -0.31 c 0.39,0.02 0.86,0.04 1.14,0.04 0.39,0 0.86,0 1.26,-0.04 v 0.31 h -0.21 c -0.74,0 -0.75,0.11 -0.75,0.47 v 1.53 c 0,0.98 0.41,1.87 1.17,1.87 0.07,0 0.09,0 0.11,-0.01 -0.03,-0.01 -0.23,-0.13 -0.23,-0.39 0,-0.28 0.21,-0.43 0.43,-0.43 0.18,0 0.43,0.12 0.43,0.44 0,0.32 -0.31,0.61 -0.74,0.61 -0.73,0 -1.09,-0.67 -1.23,-1.1 z"
           inkscape:connector-curvature="0"
           style="fill:#000000;stroke-width:0" /><path
           id="path4229"
           d="m 266.61,709.25 0,0.12 -0.01,0.12 -0.02,0.11 -0.02,0.12 -0.02,0.11 -0.03,0.11 -0.03,0.11 -0.04,0.1 -0.05,0.1 -0.05,0.1 -0.05,0.1 -0.06,0.09 -0.06,0.1 -0.07,0.08 -0.06,0.09 -0.08,0.08 -0.07,0.08 -0.08,0.07 -0.09,0.07 -0.08,0.06 -0.09,0.07 -0.1,0.05 -0.09,0.05 -0.1,0.05 -0.1,0.04 -0.1,0.04 -0.1,0.03 -0.11,0.03 -0.11,0.02 -0.11,0.01 -0.11,0.01 -0.11,0.01 -0.01,-0.22 c 0.44,0 0.87,-0.22 1.12,-0.65 0.26,-0.43 0.26,-1 0.26,-1.38 0,-0.36 0,-0.89 -0.21,-1.33 -0.22,-0.45 -0.66,-0.74 -1.16,-0.74 h 0 c -0.43,0 -0.86,0.21 -1.13,0.67 -0.25,0.44 -0.25,1.04 -0.25,1.4 0,0.39 0,0.92 0.24,1.36 0.27,0.46 0.73,0.67 1.13,0.67 l 0.01,0.22 c -1.24,0 -2.21,-1.09 -2.21,-2.33 0,-1.28 1.04,-2.23 2.2,-2.23 1.21,0 2.21,0.97 2.21,2.23 z"
           inkscape:connector-curvature="0"
           style="fill:#000000;stroke-width:0" /><path
           id="path4231"
           d="m 268.65,711.41 v 1.15 c 0,0.87 0.47,1.35 0.91,1.35 0.03,0 0.18,0 0.33,-0.07 -0.12,-0.04 -0.3,-0.17 -0.3,-0.42 0,-0.22 0.16,-0.42 0.43,-0.42 0.29,0 0.44,0.2 0.44,0.43 0,0.37 -0.37,0.7 -0.9,0.7 -0.7,0 -1.54,-0.53 -1.54,-1.58 v -1.14 h -0.79 v -0.31 h 0.79 v -3.22 c 0,-0.45 -0.11,-0.45 -0.78,-0.45 v -0.31 c 0.39,0.02 0.86,0.04 1.14,0.04 0.39,0 0.86,0 1.26,-0.04 v 0.31 h -0.21 c -0.73,0 -0.75,0.11 -0.75,0.47 v 3.2 h 1.13 v 0.31 z"
           inkscape:connector-curvature="0"
           style="fill:#000000;stroke-width:0" /><path
           id="path4233"
           d="m 274.37,710.54 v -2.66 c 0,-0.45 -0.11,-0.45 -0.77,-0.45 v -0.31 c 0.34,0.02 0.85,0.04 1.12,0.04 0.26,0 0.78,-0.02 1.11,-0.04 v 0.31 c -0.66,0 -0.77,0 -0.77,0.45 v 1.83 c 0,1.03 0.7,1.59 1.34,1.59 0.63,0 0.74,-0.54 0.74,-1.1 v -2.32 c 0,-0.45 -0.11,-0.45 -0.78,-0.45 v -0.31 c 0.35,0.02 0.86,0.04 1.12,0.04 0.26,0 0.78,-0.02 1.12,-0.04 v 0.31 c -0.52,0 -0.77,0 -0.78,0.3 v 1.9 c 0,0.85 0,1.16 -0.3,1.52 -0.14,0.17 -0.47,0.37 -1.05,0.37 -0.73,0 -1.19,-0.43 -1.47,-1.05 v 1.05 l -1.4,-0.11 v -0.31 c 0.69,0 0.77,-0.07 0.77,-0.56 z"
           inkscape:connector-curvature="0"
           style="fill:#000000;stroke-width:0" /><path
           id="path4235"
           d="m 283.5,709.25 0,0.12 -0.01,0.12 -0.02,0.11 -0.02,0.12 -0.02,0.11 -0.03,0.11 -0.04,0.11 -0.04,0.1 -0.04,0.1 -0.05,0.1 -0.05,0.1 -0.06,0.09 -0.06,0.1 -0.07,0.08 -0.07,0.09 -0.07,0.08 -0.08,0.08 -0.08,0.07 -0.08,0.07 -0.09,0.06 -0.09,0.07 -0.09,0.05 -0.09,0.05 -0.1,0.05 -0.1,0.04 -0.1,0.04 -0.1,0.03 -0.11,0.03 -0.11,0.02 -0.11,0.01 -0.11,0.01 -0.11,0.01 -0.01,-0.22 c 0.44,0 0.86,-0.22 1.12,-0.65 0.26,-0.43 0.26,-1 0.26,-1.38 0,-0.36 0,-0.89 -0.22,-1.33 -0.22,-0.45 -0.65,-0.74 -1.15,-0.74 h 0 c -0.43,0 -0.87,0.21 -1.13,0.67 -0.25,0.44 -0.25,1.04 -0.25,1.4 0,0.39 0,0.92 0.23,1.36 0.27,0.46 0.74,0.67 1.14,0.67 l 0.01,0.22 c -1.24,0 -2.21,-1.09 -2.21,-2.33 0,-1.28 1.03,-2.23 2.2,-2.23 1.2,0 2.21,0.97 2.21,2.23 z"
           inkscape:connector-curvature="0"
           style="fill:#000000;stroke-width:0" /><path
           id="path4237"
           d="m 287.84,707.67 v -0.65 l 1.46,0.1 v 0.31 c -0.69,0 -0.77,0.07 -0.77,0.56 v 6.03 l -1.43,-0.11 v -0.31 c 0.69,0 0.77,-0.07 0.77,-0.55 v -2.15 c -0.29,0.36 -0.71,0.62 -1.25,0.62 l 0.04,-0.22 c 0.35,0 0.76,-0.15 1.07,-0.6 0.11,-0.17 0.11,-0.19 0.11,-0.37 h 0 v -2.03 c 0,-0.18 0,-0.2 -0.11,-0.37 -0.3,-0.48 -0.74,-0.7 -1.17,-0.7 -0.45,0 -0.81,0.26 -1.04,0.64 -0.26,0.41 -0.29,0.97 -0.29,1.38 0,0.37 0.02,0.96 0.31,1.41 0.2,0.31 0.58,0.64 1.12,0.64 l -0.04,0.22 c -1.17,0 -2.22,-0.98 -2.22,-2.26 0,-1.26 0.98,-2.24 2.11,-2.24 0.64,0 1.08,0.33 1.33,0.65 z"
           inkscape:connector-curvature="0"
           style="fill:#000000;stroke-width:0" /><path
           id="path4239"
           d="m 290.7,709.42 0.01,0.21 c 0.06,1.48 0.9,1.73 1.24,1.73 1.02,0 1.12,-1.34 1.12,-1.73 h -2.36 l -0.01,-0.21 h 2.78 c 0.22,0 0.25,0 0.25,0.21 0,0.98 -0.54,1.95 -1.78,1.95 -1.16,0 -2.07,-1.03 -2.07,-2.27 0,-1.33 1.04,-2.29 2.19,-2.29 1.21,0 1.66,1.1 1.66,1.29 0,0.1 -0.08,0.12 -0.13,0.12 -0.09,0 -0.11,-0.06 -0.13,-0.14 -0.35,-1.03 -1.25,-1.03 -1.35,-1.03 -0.49,0 -0.89,0.3 -1.12,0.67 -0.3,0.48 -0.3,1.13 -0.3,1.49 z"
           inkscape:connector-curvature="0"
           style="fill:#000000;stroke-width:0" /><path
           id="path4241"
           d="m 296.09,709.05 0.03,0 0.02,-0.01 0.03,0 0.03,-0.01 0.03,-0.01 0.04,-0.01 0.04,-0.01 0.04,-0.01 0.04,-0.01 0.04,-0.01 0.04,-0.02 0.05,-0.02 0.04,-0.01 0.05,-0.03 0.04,-0.02 0.04,-0.02 0.05,-0.03 0.04,-0.03 0.04,-0.03 0.04,-0.03 0.04,-0.03 0.03,-0.04 0.04,-0.04 0.03,-0.04 0.03,-0.05 0.01,-0.02 0.01,-0.03 0.01,-0.02 0.01,-0.03 0.01,-0.02 0.01,-0.03 0.01,-0.03 0.01,-0.02 0,-0.03 0.01,-0.03 0,-0.03 0.01,-0.04 0,-0.03 0,-0.03 c 0,-0.51 -0.35,-0.91 -1.12,-0.91 -0.84,0 -1.2,0.57 -1.39,1.42 -0.03,0.12 -0.04,0.16 -0.14,0.16 -0.13,0 -0.13,-0.07 -0.13,-0.24 v -1.32 c 0,-0.16 0,-0.23 0.11,-0.23 0.05,0 0.06,0.01 0.25,0.19 0.02,0.02 0.02,0.04 0.2,0.23 0.44,-0.41 0.89,-0.42 1.1,-0.42 1.14,0 1.6,0.66 1.6,1.38 0,0.52 -0.3,0.82 -0.42,0.94 -0.33,0.32 -0.72,0.4 -1.14,0.48 -0.55,0.11 -1.22,0.23 -1.22,0.81 0,0.35 0.26,0.76 1.12,0.76 1.09,0 1.14,-0.9 1.16,-1.21 0.01,-0.09 0.1,-0.09 0.12,-0.09 0.13,0 0.13,0.06 0.13,0.24 v 1.01 c 0,0.17 0,0.24 -0.11,0.24 -0.05,0 -0.07,0 -0.2,-0.12 -0.03,-0.04 -0.13,-0.13 -0.17,-0.16 -0.38,0.28 -0.79,0.28 -0.93,0.28 -1.22,0 -1.6,-0.67 -1.6,-1.23 0,-0.34 0.16,-0.62 0.43,-0.84 0.32,-0.26 0.6,-0.32 1.31,-0.46 z"
           inkscape:connector-curvature="0"
           style="fill:#000000;stroke-width:0" /><path
           id="path4243"
           d="m 299.97,707.14 0,0.05 0,0.06 0,0.06 -0.01,0.05 0,0.06 -0.01,0.05 -0.01,0.05 -0.01,0.05 -0.01,0.04 -0.01,0.05 -0.02,0.04 -0.01,0.04 -0.02,0.04 -0.02,0.04 -0.02,0.04 -0.02,0.03 -0.02,0.04 -0.02,0.03 -0.02,0.03 -0.03,0.03 -0.02,0.02 -0.03,0.02 -0.03,0.03 -0.03,0.01 -0.03,0.02 -0.03,0.02 -0.03,0.01 -0.03,0.01 -0.04,0.01 -0.03,0 -0.04,0.01 -0.03,0 c -0.35,0 -0.53,-0.27 -0.53,-0.53 0,-0.26 0.17,-0.53 0.53,-0.53 0.16,0 0.28,0.06 0.37,0.14 l 0.02,0.02 c 0.01,0 0.03,-0.01 0.03,-0.14 0,-0.64 -0.28,-1.25 -0.72,-1.71 -0.06,-0.06 -0.07,-0.07 -0.07,-0.11 0,-0.07 0.05,-0.11 0.1,-0.11 0.12,0 0.9,0.78 0.9,1.93 z"
           inkscape:connector-curvature="0"
           style="fill:#000000;stroke-width:0" /><path
           id="path4245"
           d="m 308.03,711.29 1.79,1.72 c 0.08,0.08 0.61,0.58 1.41,0.59 v 0.31 c -0.26,-0.03 -0.57,-0.03 -0.84,-0.03 -0.36,0 -0.93,0 -1.27,0.03 v -0.31 c 0.4,-0.01 0.46,-0.24 0.46,-0.33 0,-0.16 -0.1,-0.25 -0.18,-0.32 l -3.11,-2.97 v 3.16 c 0,0.35 0.02,0.46 0.78,0.46 h 0.24 v 0.31 c -0.35,-0.03 -1.08,-0.03 -1.46,-0.03 -0.38,0 -1.12,0 -1.47,0.03 v -0.31 h 0.24 c 0.76,0 0.78,-0.11 0.78,-0.46 v -5.24 c 0,-0.36 -0.02,-0.47 -0.78,-0.47 h -0.24 v -0.31 c 0.35,0.04 1.08,0.04 1.46,0.04 0.38,0 1.12,0 1.47,-0.04 v 0.31 h -0.24 c -0.76,0 -0.78,0.11 -0.78,0.47 v 1.74 l 1.15,1.09 1.8,-2.66 c 0.06,-0.09 0.15,-0.22 0.15,-0.34 0,-0.3 -0.39,-0.3 -0.59,-0.3 v -0.31 c 0.35,0.04 1.05,0.04 1.43,0.04 0.35,0 0.72,-0.01 1.14,-0.04 v 0.31 c -0.54,0 -0.74,0.04 -1.04,0.48 z"
           inkscape:connector-curvature="0"
           style="fill:#000000;stroke-width:0" /></g></g>    <path
       inkscape:connector-curvature="0"
       id="path3927"
       d="M 723.94816,195.60456 755.51018,174.7845"
       style="fill:none;stroke:#ff0000;stroke-width:3.66381502;stroke-linecap:butt;stroke-linejoin:miter;stroke-miterlimit:4;stroke-opacity:1;stroke-dasharray:none" />
    <path
       inkscape:connector-curvature="0"
       id="path3927-7"
       d="m 659.98477,194.62802 31.56202,-20.82006"
       style="fill:none;stroke:#ff0000;stroke-width:3.66381502;stroke-linecap:butt;stroke-linejoin:miter;stroke-miterlimit:4;stroke-opacity:1;stroke-dasharray:none" />
    <path
       inkscape:connector-curvature="0"
       id="path3927-6"
       d="M 530.10493,195.60456 561.66695,174.7845"
       style="fill:none;stroke:#ff0000;stroke-width:3.66381502;stroke-linecap:butt;stroke-linejoin:miter;stroke-miterlimit:4;stroke-opacity:1;stroke-dasharray:none" />
    <path
       inkscape:connector-curvature="0"
       id="path3927-68"
       d="M 399.24855,195.60456 430.81057,174.7845"
       style="fill:none;stroke:#ff0000;stroke-width:3.66381502;stroke-linecap:butt;stroke-linejoin:miter;stroke-miterlimit:4;stroke-opacity:1;stroke-dasharray:none" />
    <path
       inkscape:connector-curvature="0"
       id="path3927-1"
       d="m 293.47979,196.88352 22.40145,-20.44835"
       style="fill:none;stroke:#ff0000;stroke-width:3.05898499;stroke-linecap:butt;stroke-linejoin:miter;stroke-miterlimit:4;stroke-opacity:1;stroke-dasharray:none" />
    <path
       inkscape:connector-curvature="0"
       id="path3989"
       d="m 353.4683,199.88186 -92.93699,44.10999"
       style="fill:url(#linearGradient3974);fill-opacity:1;stroke:#ff0000;stroke-width:1.07846642px;stroke-linecap:butt;stroke-linejoin:miter;stroke-opacity:1;marker-start:none;marker-end:url(#Arrow1Lend)" />
    <path
       inkscape:connector-curvature="0"
       id="path4600"
       d="m 353.42539,200.1689 -44.75657,42.8035"
       style="fill:none;stroke:#ff0000;stroke-width:1.1642704px;stroke-linecap:butt;stroke-linejoin:miter;stroke-opacity:1;marker-start:none;marker-end:url(#Arrow1Lend)" />
    <path
       inkscape:connector-curvature="0"
       id="path4604"
       d="m 354.19008,199.39286 -0.39091,44.59971"
       style="fill:none;stroke:#ff0000;stroke-width:1.07699978px;stroke-linecap:butt;stroke-linejoin:miter;stroke-opacity:1;marker-start:none;marker-end:url(#Arrow1Lend)" />
    <path
       inkscape:connector-curvature="0"
       id="path4974"
       d="m 418.00725,239.83271 58.49627,-34.08277"
       style="fill:none;stroke:#ff0000;stroke-width:1.09614181999999993px;stroke-linecap:butt;stroke-linejoin:miter;stroke-opacity:1;marker-end:none;marker-start:url(#Arrow1Lstart)" />
    <path
       inkscape:connector-curvature="0"
       id="path4978"
       d="m 477.52813,204.72533 0,37.10853"
       style="fill:none;stroke:#ff0000;stroke-width:1px;stroke-linecap:butt;stroke-linejoin:miter;stroke-opacity:1;marker-end:url(#Arrow1Lend)" />
    <path
       inkscape:connector-curvature="0"
       id="path4974-0"
       d="m 546.45264,243.70852 65.27135,-34.02207"
       style="fill:none;stroke:#ff0000;stroke-width:1.15684937999999993px;stroke-linecap:butt;stroke-linejoin:miter;stroke-opacity:1;marker-end:none;marker-start:url(#Arrow1Lstart)" />
    <path
       inkscape:connector-curvature="0"
       id="path4978-4"
       d="m 612.77895,208.63149 0,37.10853"
       style="fill:none;stroke:#ff0000;stroke-width:1px;stroke-linecap:butt;stroke-linejoin:miter;stroke-opacity:1;marker-end:url(#Arrow1Lend)" />
  </g>
</svg>
