<?xml version="1.0" encoding="UTF-8" standalone="no"?>
<!-- Created with Inkscape (http://www.inkscape.org/) -->

<svg
   xmlns:ns0="http://www.iki.fi/pav/software/textext/"
   xmlns:dc="http://purl.org/dc/elements/1.1/"
   xmlns:cc="http://creativecommons.org/ns#"
   xmlns:rdf="http://www.w3.org/1999/02/22-rdf-syntax-ns#"
   xmlns:svg="http://www.w3.org/2000/svg"
   xmlns="http://www.w3.org/2000/svg"
   xmlns:sodipodi="http://sodipodi.sourceforge.net/DTD/sodipodi-0.dtd"
   xmlns:inkscape="http://www.inkscape.org/namespaces/inkscape"
   inkscape:version="0.48.4 r9939"
   version="1.1"
   id="svg2"
   height="1052.3622047"
   width="744.09448819"
   sodipodi:docname="multidim.svg"
   inkscape:export-filename="/home/simen/Dropbox/Phd/geilo/figures/multidim.png"
   inkscape:export-xdpi="90"
   inkscape:export-ydpi="90">
  <sodipodi:namedview
     id="base"
     pagecolor="#ffffff"
     bordercolor="#666666"
     borderopacity="1.0"
     inkscape:pageopacity="0.0"
     inkscape:pageshadow="2"
     inkscape:zoom="0.51201172"
     inkscape:cx="308.36202"
     inkscape:cy="686.69016"
     inkscape:document-units="px"
     inkscape:current-layer="g4491"
     showgrid="false"
     inkscape:window-width="1600"
     inkscape:window-height="876"
     inkscape:window-x="0"
     inkscape:window-y="24"
     inkscape:window-maximized="1" />
  <defs
     id="defs4" />
  <metadata
     id="metadata7">
    <rdf:RDF>
      <cc:Work
         rdf:about="">
        <dc:format>image/svg+xml</dc:format>
        <dc:type
           rdf:resource="http://purl.org/dc/dcmitype/StillImage" />
        <dc:title />
      </cc:Work>
    </rdf:RDF>
  </metadata>
  <g
     inkscape:label="Layer 1"
     inkscape:groupmode="layer"
     id="layer1" />
  <path
     inkscape:connector-curvature="0"
     id="path3547"
     d="m -68.35781,655.88688 783.1852,1.95308 -781.23212,-277.3374 z"
     style="fill:none;stroke:#ff0000;stroke-width:4;stroke-linecap:butt;stroke-linejoin:miter;stroke-opacity:1;fill-opacity:1;stroke-miterlimit:4;stroke-dasharray:none" />
  <g
     ns0:preamble=""
     ns0:text="  \\begin{tabular}{l|cccccc}\n  ... &amp;&amp;&amp;&amp;&amp;\\\\ \n  $\\mathbf{P}_{4}$&amp; ...&amp;&amp;&amp;&amp; \\\\\n    $\\mathbf{P}_{3}$ &amp;\t$\\mathbf{P}_{3}\\mathbf{P}_{0}$ &amp; ... &amp;&amp; &amp;\\\\\n    $\\mathbf{P}_{2}$ &amp;\t$\\mathbf{P}_{2}\\mathbf{P}_{0}$ &amp; $\\mathbf{P}_{2}\\mathbf{P}_{1}$ &amp; ... &amp;&amp;&amp; \\\\\n    $\\mathbf{P}_{1}$ &amp;\t$\\mathbf{P}_{1}\\mathbf{P}_{0}$ &amp;$\\mathbf{P}_{1}\\mathbf{P}_{1}$&amp; $\\mathbf{P}_{1}\\mathbf{P}_{2}$ &amp; ...&amp;&amp;\\\\\n    $\\mathbf{P}_{0}$ &amp;\t$\\mathbf{P}_{0}\\mathbf{P}_{0}$ &amp;$\\mathbf{P}_{0}\\mathbf{P}_{1}$&amp; $\\mathbf{P}_{0}\\mathbf{P}_{2}$ &amp; $\\mathbf{P}_{0}\\mathbf{P}_{3}$ &amp; ...\\\\ \\hline\n\t\t     &amp;\t$\\mathbf{P}_{0}$\t&amp;$\\mathbf{P}_{1}$&amp; $\\mathbf{P}_{2}$ &amp; $\\mathbf{P}_{3}$ &amp; $\\mathbf{P}_{4}$&amp; ...\n  \\end{tabular}"
     word-spacing="normal"
     letter-spacing="normal"
     font-size-adjust="none"
     font-stretch="normal"
     font-weight="normal"
     font-variant="normal"
     font-style="normal"
     stroke-miterlimit="10.433"
     xml:space="preserve"
     transform="matrix(5,0,0,-5,-1339.8359,3880.8564)"
     id="g4491"
     style="font-style:normal;font-variant:normal;font-weight:normal;font-stretch:normal;letter-spacing:normal;word-spacing:normal;text-anchor:start;fill:none;stroke:#000000;stroke-linecap:butt;stroke-linejoin:miter;stroke-miterlimit:10.43299961;stroke-opacity:1;stroke-dasharray:none;stroke-dashoffset:0"><path
       id="path4493"
       d="m 231.71062,710.21654 0,0.03 0,0.03 -0.01,0.02 0,0.03 -0.01,0.03 0,0.02 -0.01,0.03 -0.01,0.02 -0.01,0.02 -0.01,0.03 -0.02,0.02 -0.01,0.02 -0.02,0.02 -0.01,0.02 -0.02,0.02 -0.02,0.02 -0.01,0.01 -0.02,0.02 -0.02,0.02 -0.02,0.01 -0.03,0.02 -0.02,0.01 -0.02,0.01 -0.02,0.01 -0.03,0.01 -0.02,0.01 -0.03,0.01 -0.02,0 -0.03,0.01 -0.02,0 -0.03,0 -0.03,0 c -0.29,0 -0.52,-0.24 -0.52,-0.53 0,-0.28 0.23,-0.52 0.52,-0.52 0.29,0 0.53,0.24 0.53,0.52 z"
       inkscape:connector-curvature="0"
       style="fill:#000000;stroke-width:0" /><path
       id="path4495"
       d="m 234.48062,710.21654 0,0.03 0,0.03 -0.01,0.02 0,0.03 -0.01,0.03 -0.01,0.02 0,0.03 -0.01,0.02 -0.01,0.02 -0.02,0.03 -0.01,0.02 -0.01,0.02 -0.02,0.02 -0.01,0.02 -0.02,0.02 -0.02,0.02 -0.02,0.01 -0.02,0.02 -0.02,0.02 -0.02,0.01 -0.02,0.02 -0.02,0.01 -0.02,0.01 -0.03,0.01 -0.02,0.01 -0.02,0.01 -0.03,0.01 -0.02,0 -0.03,0.01 -0.03,0 -0.02,0 -0.03,0 c -0.29,0 -0.53,-0.24 -0.53,-0.53 0,-0.28 0.24,-0.52 0.53,-0.52 0.29,0 0.53,0.24 0.53,0.52 z"
       inkscape:connector-curvature="0"
       style="fill:#000000;stroke-width:0" /><path
       id="path4497"
       d="m 237.24062,710.21654 0,0.03 0,0.03 0,0.02 -0.01,0.03 0,0.03 -0.01,0.02 -0.01,0.03 -0.01,0.02 -0.01,0.02 -0.01,0.03 -0.01,0.02 -0.02,0.02 -0.01,0.02 -0.02,0.02 -0.01,0.02 -0.02,0.02 -0.02,0.01 -0.02,0.02 -0.02,0.02 -0.02,0.01 -0.02,0.02 -0.02,0.01 -0.02,0.01 -0.03,0.01 -0.02,0.01 -0.03,0.01 -0.02,0.01 -0.03,0 -0.02,0.01 -0.03,0 -0.03,0 -0.02,0 c -0.29,0 -0.53,-0.24 -0.53,-0.53 0,-0.28 0.24,-0.52 0.53,-0.52 0.29,0 0.52,0.24 0.52,0.52 z"
       inkscape:connector-curvature="0"
       style="fill:#000000;stroke-width:0" /><line
       id="line4499"
       y2="717.09003"
       x2="247.69"
       y1="705.13"
       x1="247.69"
       style="stroke-width:0.398" /><path
       id="path4501"
       d="m 232.29,699.76 -0.06,0.41 v 2.94 h 1.34 c 1.49,0 1.49,-0.75 1.49,-1.47 0,-0.7 0,-1.47 -1.5,-1.47 h 0 -1.33 l 0.06,-0.41 h 1.76 c 1.38,0 2.53,0.72 2.53,1.88 0,1.09 -0.98,1.94 -2.63,1.94 h -4.15 v -0.47 h 1.07 v -5.88 h -1.07 v -0.47 c 0.38,0.03 1.35,0.03 1.78,0.03 0.43,0 1.4,0 1.78,-0.03 v 0.47 h -1.07 z"
       inkscape:connector-curvature="0"
       style="fill:#000000;stroke-width:0" /><path
       id="path4503"
       d="m 240.93,696.41 v 0.25 h -0.78 v 3.1 c 0,0.15 0,0.2 -0.15,0.2 -0.09,0 -0.11,0 -0.18,-0.1 l -2.31,-3.2 v -0.25 h 2.05 l 0.05,0.25 h -1.84 l 1.84,2.55 v -2.55 l -0.05,-0.25 v -0.57 c 0,-0.24 0,-0.32 -0.56,-0.32 h -0.19 v -0.25 c 0.35,0.01 0.79,0.03 1.04,0.03 0.26,0 0.71,-0.02 1.05,-0.03 v 0.25 h -0.18 c -0.57,0 -0.57,0.08 -0.57,0.32 v 0.57 z"
       inkscape:connector-curvature="0"
       style="fill:#000000;stroke-width:0" /><line
       id="line4505"
       y2="705.13"
       x2="247.69"
       y1="693.17999"
       x1="247.69"
       style="stroke-width:0.398" /><path
       id="path4507"
       d="m 262.55815,700.02431 0,0.03 -0.01,0.02 0,0.03 0,0.03 -0.01,0.02 -0.01,0.03 -0.01,0.02 -0.01,0.02 -0.01,0.03 -0.01,0.02 -0.01,0.02 -0.01,0.02 -0.02,0.02 -0.02,0.02 -0.01,0.02 -0.02,0.02 -0.02,0.02 -0.02,0.02 -0.02,0.01 -0.02,0.02 -0.02,0.01 -0.02,0.01 -0.02,0.01 -0.03,0.02 -0.02,0 -0.03,0.01 -0.02,0.01 -0.03,0.01 -0.02,0 -0.03,0 -0.02,0.01 -0.03,0 c -0.29,0 -0.53,-0.24 -0.53,-0.53 0,-0.29 0.24,-0.53 0.53,-0.53 0.29,0 0.53,0.24 0.53,0.53 z"
       inkscape:connector-curvature="0"
       style="fill:#000000;stroke-width:0" /><path
       id="path4509"
       d="m 265.31815,700.02431 0,0.03 0,0.02 0,0.03 -0.01,0.03 0,0.02 -0.01,0.03 -0.01,0.02 -0.01,0.02 -0.01,0.03 -0.01,0.02 -0.01,0.02 -0.02,0.02 -0.01,0.02 -0.02,0.02 -0.01,0.02 -0.02,0.02 -0.02,0.02 -0.02,0.02 -0.02,0.01 -0.02,0.02 -0.02,0.01 -0.02,0.01 -0.03,0.01 -0.02,0.02 -0.02,0 -0.03,0.01 -0.02,0.01 -0.03,0.01 -0.02,0 -0.03,0 -0.03,0.01 -0.02,0 c -0.29,0 -0.53,-0.24 -0.53,-0.53 0,-0.29 0.24,-0.53 0.53,-0.53 0.29,0 0.52,0.24 0.52,0.53 z"
       inkscape:connector-curvature="0"
       style="fill:#000000;stroke-width:0" /><path
       id="path4511"
       d="m 268.08815,700.02431 0,0.03 0,0.02 -0.01,0.03 0,0.03 -0.01,0.02 0,0.03 -0.01,0.02 -0.01,0.02 -0.01,0.03 -0.01,0.02 -0.02,0.02 -0.01,0.02 -0.01,0.02 -0.02,0.02 -0.02,0.02 -0.01,0.02 -0.02,0.02 -0.02,0.02 -0.02,0.01 -0.02,0.02 -0.02,0.01 -0.03,0.01 -0.02,0.01 -0.02,0.02 -0.03,0 -0.02,0.01 -0.02,0.01 -0.03,0.01 -0.03,0 -0.02,0 -0.03,0.01 -0.03,0 c -0.28,0 -0.52,-0.24 -0.52,-0.53 0,-0.29 0.24,-0.53 0.52,-0.53 0.29,0 0.53,0.24 0.53,0.53 z"
       inkscape:connector-curvature="0"
       style="fill:#000000;stroke-width:0" /><path
       id="path4513"
       d="m 232.29,687.81 -0.06,0.41 v 2.94 h 1.34 c 1.49,0 1.49,-0.76 1.49,-1.47 0,-0.71 0,-1.47 -1.5,-1.47 h 0 -1.33 l 0.06,-0.41 h 1.76 c 1.38,0 2.53,0.71 2.53,1.88 0,1.09 -0.98,1.93 -2.63,1.93 h -4.15 v -0.46 h 1.07 v -5.88 h -1.07 v -0.47 c 0.38,0.03 1.35,0.03 1.78,0.03 0.43,0 1.4,0 1.78,-0.03 v 0.47 h -1.07 z"
       inkscape:connector-curvature="0"
       style="fill:#000000;stroke-width:0" /><path
       id="path4515"
       d="m 239.14,685.64 0.05,-0.01 0.05,0 0.05,0 0.05,-0.01 0.04,-0.01 0.05,-0.01 0.04,-0.02 0.05,-0.01 0.04,-0.02 0.04,-0.02 0.04,-0.03 0.04,-0.02 0.03,-0.03 0.04,-0.03 0.03,-0.03 0.03,-0.03 0.03,-0.04 0.03,-0.04 0.03,-0.04 0.02,-0.04 0.03,-0.05 0.02,-0.04 0.02,-0.05 0.02,-0.05 0.01,-0.06 0.02,-0.05 0.01,-0.06 0.01,-0.06 0.01,-0.06 0,-0.07 0,-0.06 0.01,-0.07 c 0,-0.86 -0.51,-1.12 -0.91,-1.12 -0.28,0 -0.89,0.07 -1.18,0.48 0.32,0.02 0.4,0.25 0.4,0.39 0,0.23 -0.17,0.39 -0.38,0.39 -0.2,0 -0.39,-0.12 -0.39,-0.41 0,-0.65 0.72,-1.08 1.56,-1.08 0.97,0 1.64,0.65 1.64,1.35 0,0.54 -0.44,1.08 -1.21,1.24 0.73,0.27 0.99,0.79 0.99,1.21 0,0.55 -0.63,0.96 -1.4,0.96 -0.77,0 -1.37,-0.37 -1.37,-0.93 0,-0.24 0.16,-0.37 0.37,-0.37 0.21,0 0.35,0.16 0.35,0.36 0,0.2 -0.14,0.34 -0.35,0.36 0.24,0.3 0.72,0.38 0.98,0.38 0.31,0 0.75,-0.15 0.75,-0.76 0,-0.29 -0.1,-0.61 -0.28,-0.83 -0.23,-0.26 -0.42,-0.27 -0.77,-0.3 -0.18,-0.01 -0.19,-0.01 -0.23,-0.02 -0.01,0 -0.06,-0.01 -0.06,-0.09 0,-0.09 0.06,-0.09 0.18,-0.09 z"
       inkscape:connector-curvature="0"
       style="fill:#000000;stroke-width:0" /><line
       id="line4517"
       y2="693.17999"
       x2="247.69"
       y1="681.21997"
       x1="247.69"
       style="stroke-width:0.398" /><path
       id="path4519"
       d="m 256.54,687.81 -0.06,0.41 v 2.94 h 1.35 c 1.49,0 1.49,-0.76 1.49,-1.47 0,-0.71 0,-1.47 -1.5,-1.47 h 0 -1.34 l 0.06,-0.41 h 1.76 c 1.38,0 2.54,0.71 2.54,1.88 0,1.09 -0.99,1.93 -2.64,1.93 h -4.15 v -0.46 h 1.08 v -5.88 h -1.08 v -0.47 c 0.38,0.03 1.36,0.03 1.79,0.03 0.42,0 1.4,0 1.78,-0.03 v 0.47 h -1.08 z"
       inkscape:connector-curvature="0"
       style="fill:#000000;stroke-width:0" /><path
       id="path4521"
       d="m 263.4,685.64 0.05,0 0.05,-0.01 0.05,0 0.05,-0.01 0.04,-0.01 0.05,-0.01 0.04,-0.02 0.04,-0.01 0.05,-0.02 0.04,-0.02 0.04,-0.03 0.03,-0.02 0.04,-0.03 0.03,-0.03 0.04,-0.03 0.03,-0.03 0.03,-0.04 0.03,-0.04 0.03,-0.04 0.02,-0.04 0.02,-0.05 0.03,-0.04 0.02,-0.05 0.01,-0.05 0.02,-0.06 0.01,-0.05 0.02,-0.06 0.01,-0.06 0,-0.06 0.01,-0.07 0,-0.06 0,-0.07 c 0,-0.86 -0.5,-1.12 -0.9,-1.12 -0.28,0 -0.89,0.07 -1.19,0.48 0.33,0.02 0.41,0.25 0.41,0.39 0,0.23 -0.17,0.39 -0.39,0.39 -0.19,0 -0.39,-0.12 -0.39,-0.41 0,-0.65 0.73,-1.08 1.57,-1.08 0.97,0 1.64,0.65 1.64,1.35 0,0.54 -0.45,1.08 -1.21,1.24 0.73,0.27 0.99,0.79 0.99,1.21 0,0.55 -0.63,0.96 -1.41,0.96 -0.77,0 -1.36,-0.37 -1.36,-0.93 0,-0.24 0.15,-0.37 0.36,-0.37 0.22,0 0.36,0.16 0.36,0.36 0,0.2 -0.14,0.34 -0.36,0.36 0.25,0.3 0.73,0.38 0.98,0.38 0.32,0 0.76,-0.15 0.76,-0.76 0,-0.29 -0.1,-0.61 -0.28,-0.83 -0.23,-0.26 -0.43,-0.27 -0.77,-0.3 -0.18,-0.01 -0.19,-0.01 -0.23,-0.02 -0.01,0 -0.07,-0.01 -0.07,-0.09 0,-0.09 0.06,-0.09 0.18,-0.09 z"
       inkscape:connector-curvature="0"
       style="fill:#000000;stroke-width:0" /><path
       id="path4523"
       d="m 268.84,687.81 -0.06,0.41 v 2.94 h 1.35 c 1.49,0 1.49,-0.76 1.49,-1.47 0,-0.71 0,-1.47 -1.5,-1.47 h 0 -1.34 l 0.06,-0.41 h 1.76 c 1.39,0 2.54,0.71 2.54,1.88 0,1.09 -0.99,1.93 -2.64,1.93 h -4.14 v -0.46 h 1.07 v -5.88 h -1.07 v -0.47 c 0.37,0.03 1.35,0.03 1.78,0.03 0.42,0 1.4,0 1.78,-0.03 v 0.47 h -1.08 z"
       inkscape:connector-curvature="0"
       style="fill:#000000;stroke-width:0" /><path
       id="path4525"
       d="m 277.39,685.53 0,0.14 0,0.14 -0.01,0.13 -0.01,0.13 -0.01,0.12 -0.01,0.12 -0.02,0.11 -0.02,0.12 -0.03,0.11 -0.03,0.1 -0.03,0.1 -0.04,0.1 -0.04,0.1 -0.05,0.1 -0.05,0.09 -0.03,0.05 -0.03,0.04 c -0.21,0.32 -0.65,0.6 -1.2,0.6 v -0.19 c 0.37,0 0.74,-0.23 0.86,-0.64 0.11,-0.37 0.12,-0.87 0.12,-1.48 0,-0.51 0,-1.03 -0.09,-1.46 -0.14,-0.64 -0.62,-0.79 -0.89,-0.79 h 0 c -0.32,0 -0.75,0.19 -0.89,0.76 -0.09,0.41 -0.09,0.98 -0.09,1.49 0,0.51 0,1.04 0.1,1.42 0.15,0.55 0.59,0.7 0.88,0.7 v 0.19 c -1.62,0 -1.62,-1.9 -1.62,-2.4 0,-0.5 0,-2.36 1.62,-2.36 1.61,0 1.61,1.86 1.61,2.36 z"
       inkscape:connector-curvature="0"
       style="fill:#000000;stroke-width:0" /><path
       id="path4527"
       d="m 299.49877,687.09777 0,0.02 0,0.03 0,0.03 -0.01,0.02 0,0.03 -0.01,0.02 -0.01,0.03 -0.01,0.02 -0.01,0.02 -0.01,0.03 -0.01,0.02 -0.02,0.02 -0.01,0.02 -0.02,0.02 -0.01,0.02 -0.02,0.02 -0.02,0.01 -0.02,0.02 -0.02,0.02 -0.02,0.01 -0.02,0.02 -0.02,0.01 -0.03,0.01 -0.02,0.01 -0.02,0.01 -0.03,0.01 -0.02,0.01 -0.03,0 -0.02,0.01 -0.03,0 -0.03,0 -0.02,0 c -0.29,0 -0.53,-0.24 -0.53,-0.52 0,-0.29 0.24,-0.53 0.53,-0.53 0.28,0 0.52,0.24 0.52,0.53 z"
       inkscape:connector-curvature="0"
       style="fill:#000000;stroke-width:0" /><path
       id="path4529"
       d="m 302.26877,687.09777 0,0.02 0,0.03 -0.01,0.03 0,0.02 -0.01,0.03 0,0.02 -0.01,0.03 -0.01,0.02 -0.01,0.02 -0.01,0.03 -0.02,0.02 -0.01,0.02 -0.01,0.02 -0.02,0.02 -0.02,0.02 -0.01,0.02 -0.02,0.01 -0.02,0.02 -0.02,0.02 -0.02,0.01 -0.02,0.02 -0.03,0.01 -0.02,0.01 -0.02,0.01 -0.03,0.01 -0.02,0.01 -0.03,0.01 -0.02,0 -0.03,0.01 -0.02,0 -0.03,0 -0.03,0 c -0.29,0 -0.52,-0.24 -0.52,-0.52 0,-0.29 0.23,-0.53 0.52,-0.53 0.29,0 0.53,0.24 0.53,0.53 z"
       inkscape:connector-curvature="0"
       style="fill:#000000;stroke-width:0" /><path
       id="path4531"
       d="m 305.03877,687.09777 0,0.02 0,0.03 -0.01,0.03 0,0.02 -0.01,0.03 -0.01,0.02 0,0.03 -0.01,0.02 -0.01,0.02 -0.02,0.03 -0.01,0.02 -0.01,0.02 -0.02,0.02 -0.01,0.02 -0.02,0.02 -0.02,0.02 -0.02,0.01 -0.01,0.02 -0.02,0.02 -0.03,0.01 -0.02,0.02 -0.02,0.01 -0.02,0.01 -0.02,0.01 -0.03,0.01 -0.02,0.01 -0.03,0.01 -0.02,0 -0.03,0.01 -0.03,0 -0.02,0 -0.03,0 c -0.29,0 -0.53,-0.24 -0.53,-0.52 0,-0.29 0.24,-0.53 0.53,-0.53 0.29,0 0.53,0.24 0.53,0.53 z"
       inkscape:connector-curvature="0"
       style="fill:#000000;stroke-width:0" /><path
       id="path4533"
       d="m 232.29,675.85 -0.06,0.41 v 2.94 h 1.34 c 1.49,0 1.49,-0.75 1.49,-1.47 0,-0.7 0,-1.47 -1.5,-1.47 h 0 -1.33 l 0.06,-0.41 h 1.76 c 1.38,0 2.53,0.72 2.53,1.88 0,1.09 -0.98,1.94 -2.63,1.94 h -4.15 v -0.47 h 1.07 v -5.88 h -1.07 v -0.47 c 0.38,0.03 1.35,0.03 1.78,0.03 0.43,0 1.4,0 1.78,-0.03 v 0.47 h -1.07 z"
       inkscape:connector-curvature="0"
       style="fill:#000000;stroke-width:0" /><path
       id="path4535"
       d="m 240.76,672.62 h -0.24 c -0.02,-0.15 -0.09,-0.56 -0.18,-0.63 -0.06,-0.04 -0.59,-0.04 -0.69,-0.04 h -1.28 c 0.73,0.65 0.97,0.84 1.39,1.17 0.52,0.41 1,0.84 1,1.5 0,0.84 -0.74,1.36 -1.63,1.36 -0.87,0 -1.45,-0.61 -1.45,-1.25 0,-0.35 0.3,-0.39 0.37,-0.39 0.17,0 0.37,0.12 0.37,0.37 0,0.13 -0.05,0.37 -0.41,0.37 0.21,0.49 0.69,0.65 1.01,0.65 0.7,0 1.06,-0.55 1.06,-1.11 0,-0.6 -0.43,-1.08 -0.65,-1.34 l -1.68,-1.65 c -0.07,-0.06 -0.07,-0.08 -0.07,-0.27 h 2.87 z"
       inkscape:connector-curvature="0"
       style="fill:#000000;stroke-width:0" /><line
       id="line4537"
       y2="681.21997"
       x2="247.69"
       y1="669.27002"
       x1="247.69"
       style="stroke-width:0.398" /><path
       id="path4539"
       d="m 256.54,675.85 -0.06,0.41 v 2.94 h 1.35 c 1.49,0 1.49,-0.75 1.49,-1.47 0,-0.7 0,-1.47 -1.5,-1.47 h 0 -1.34 l 0.06,-0.41 h 1.76 c 1.38,0 2.54,0.72 2.54,1.88 0,1.09 -0.99,1.94 -2.64,1.94 h -4.15 v -0.47 h 1.08 v -5.88 h -1.08 v -0.47 c 0.38,0.03 1.36,0.03 1.79,0.03 0.42,0 1.4,0 1.78,-0.03 v 0.47 h -1.08 z"
       inkscape:connector-curvature="0"
       style="fill:#000000;stroke-width:0" /><path
       id="path4541"
       d="m 265.02,672.62 h -0.24 c -0.02,-0.15 -0.09,-0.56 -0.18,-0.63 -0.06,-0.04 -0.59,-0.04 -0.69,-0.04 h -1.28 c 0.73,0.65 0.97,0.84 1.39,1.17 0.51,0.41 1,0.84 1,1.5 0,0.84 -0.74,1.36 -1.63,1.36 -0.87,0 -1.45,-0.61 -1.45,-1.25 0,-0.35 0.3,-0.39 0.37,-0.39 0.16,0 0.36,0.12 0.36,0.37 0,0.13 -0.04,0.37 -0.41,0.37 0.22,0.49 0.69,0.65 1.02,0.65 0.7,0 1.06,-0.55 1.06,-1.11 0,-0.6 -0.43,-1.08 -0.66,-1.34 l -1.67,-1.65 c -0.07,-0.06 -0.07,-0.08 -0.07,-0.27 h 2.87 z"
       inkscape:connector-curvature="0"
       style="fill:#000000;stroke-width:0" /><path
       id="path4543"
       d="m 268.84,675.85 -0.06,0.41 v 2.94 h 1.35 c 1.49,0 1.49,-0.75 1.49,-1.47 0,-0.7 0,-1.47 -1.5,-1.47 h 0 -1.34 l 0.06,-0.41 h 1.76 c 1.39,0 2.54,0.72 2.54,1.88 0,1.09 -0.99,1.94 -2.64,1.94 h -4.14 v -0.47 h 1.07 v -5.88 h -1.07 v -0.47 c 0.37,0.03 1.35,0.03 1.78,0.03 0.42,0 1.4,0 1.78,-0.03 v 0.47 h -1.08 z"
       inkscape:connector-curvature="0"
       style="fill:#000000;stroke-width:0" /><path
       id="path4545"
       d="m 277.39,673.58 0,0.14 0,0.13 -0.01,0.14 -0.01,0.12 -0.01,0.13 -0.01,0.11 -0.02,0.12 -0.02,0.11 -0.03,0.11 -0.03,0.11 -0.03,0.1 -0.04,0.1 -0.04,0.1 -0.05,0.09 -0.05,0.1 -0.03,0.04 -0.03,0.05 c -0.21,0.32 -0.65,0.6 -1.2,0.6 v -0.2 c 0.37,0 0.74,-0.23 0.86,-0.63 0.11,-0.38 0.12,-0.88 0.12,-1.48 0,-0.52 0,-1.03 -0.09,-1.47 -0.14,-0.63 -0.62,-0.79 -0.89,-0.79 h 0 c -0.32,0 -0.75,0.19 -0.89,0.76 -0.09,0.41 -0.09,0.98 -0.09,1.5 0,0.5 0,1.03 0.1,1.42 0.15,0.55 0.59,0.69 0.88,0.69 v 0.2 c -1.62,0 -1.62,-1.9 -1.62,-2.4 0,-0.5 0,-2.36 1.62,-2.36 1.61,0 1.61,1.86 1.61,2.36 z"
       inkscape:connector-curvature="0"
       style="fill:#000000;stroke-width:0" /><path
       id="path4547"
       d="m 293.1,675.85 -0.06,0.41 v 2.94 h 1.34 c 1.49,0 1.49,-0.75 1.49,-1.47 0,-0.7 0,-1.47 -1.5,-1.47 h 0 -1.33 l 0.06,-0.41 h 1.76 c 1.38,0 2.54,0.72 2.54,1.88 0,1.09 -0.99,1.94 -2.64,1.94 h -4.15 v -0.47 h 1.07 v -5.88 h -1.07 v -0.47 c 0.38,0.03 1.35,0.03 1.78,0.03 0.43,0 1.41,0 1.78,-0.03 v 0.47 h -1.07 z"
       inkscape:connector-curvature="0"
       style="fill:#000000;stroke-width:0" /><path
       id="path4549"
       d="m 301.57,672.62 h -0.24 c -0.02,-0.15 -0.09,-0.56 -0.18,-0.63 -0.05,-0.04 -0.59,-0.04 -0.69,-0.04 h -1.28 c 0.74,0.65 0.98,0.84 1.4,1.17 0.51,0.41 0.99,0.84 0.99,1.5 0,0.84 -0.74,1.36 -1.63,1.36 -0.86,0 -1.45,-0.61 -1.45,-1.25 0,-0.35 0.3,-0.39 0.37,-0.39 0.17,0 0.37,0.12 0.37,0.37 0,0.13 -0.05,0.37 -0.41,0.37 0.22,0.49 0.69,0.65 1.02,0.65 0.69,0 1.06,-0.55 1.06,-1.11 0,-0.6 -0.44,-1.08 -0.66,-1.34 l -1.68,-1.65 c -0.07,-0.06 -0.07,-0.08 -0.07,-0.27 h 2.87 z"
       inkscape:connector-curvature="0"
       style="fill:#000000;stroke-width:0" /><path
       id="path4551"
       d="m 305.4,675.85 -0.06,0.41 v 2.94 h 1.34 c 1.49,0 1.49,-0.75 1.49,-1.47 0,-0.7 0,-1.47 -1.5,-1.47 h 0 -1.33 l 0.06,-0.41 h 1.76 c 1.38,0 2.54,0.72 2.54,1.88 0,1.09 -0.99,1.94 -2.64,1.94 h -4.15 v -0.47 h 1.08 v -5.88 h -1.08 v -0.47 c 0.38,0.03 1.36,0.03 1.78,0.03 0.43,0 1.41,0 1.78,-0.03 v 0.47 h -1.07 z"
       inkscape:connector-curvature="0"
       style="fill:#000000;stroke-width:0" /><path
       id="path4553"
       d="m 312.69,675.78 0,0.01 0,0.01 0,0.01 0,0 0,0.01 0,0.01 0,0.01 0,0 0,0.01 0,0.01 0,0 0,0.01 0,0.01 0,0 -0.01,0.01 0,0 0,0.01 0,0 0,0.01 0,0.01 -0.01,0.01 0,0 0,0.01 -0.01,0 0,0.01 -0.01,0 0,0.01 -0.01,0 -0.01,0 -0.01,0.01 -0.01,0 0,0 -0.01,0 -0.01,0 0,0 -0.01,0 0,0 -0.01,0 0,0 -0.01,0 -0.01,0.01 -0.01,0 0,0 -0.01,0 -0.01,0 -0.01,0 0,0 -0.01,0 -0.01,0 -0.01,0 c -0.45,-0.44 -1.08,-0.45 -1.37,-0.45 v -0.25 c 0.17,0 0.63,0 1.01,0.2 v -3.55 c 0,-0.23 0,-0.32 -0.69,-0.32 h -0.27 v -0.25 c 0.13,0.01 0.99,0.03 1.24,0.03 0.22,0 1.1,-0.02 1.25,-0.03 v 0.25 h -0.26 c -0.7,0 -0.7,0.09 -0.7,0.32 z"
       inkscape:connector-curvature="0"
       style="fill:#000000;stroke-width:0" /><path
       id="path4555"
       d="m 334.69161,675.33308 0,0.03 0,0.02 -0.01,0.03 0,0.03 -0.01,0.02 0,0.03 -0.01,0.02 -0.01,0.02 -0.01,0.03 -0.01,0.02 -0.02,0.02 -0.01,0.02 -0.01,0.02 -0.02,0.02 -0.02,0.02 -0.01,0.02 -0.02,0.02 -0.02,0.02 -0.02,0.01 -0.02,0.02 -0.02,0.01 -0.03,0.01 -0.02,0.01 -0.02,0.02 -0.03,0 -0.02,0.01 -0.03,0.01 -0.02,0.01 -0.03,0 -0.02,0 -0.03,0.01 -0.03,0 c -0.29,0 -0.52,-0.24 -0.52,-0.53 0,-0.29 0.23,-0.53 0.52,-0.53 0.29,0 0.53,0.24 0.53,0.53 z"
       inkscape:connector-curvature="0"
       style="fill:#000000;stroke-width:0" /><path
       id="path4557"
       d="m 337.46161,675.33308 0,0.03 0,0.02 -0.01,0.03 0,0.03 -0.01,0.02 0,0.03 -0.01,0.02 -0.01,0.02 -0.01,0.03 -0.02,0.02 -0.01,0.02 -0.01,0.02 -0.02,0.02 -0.01,0.02 -0.02,0.02 -0.02,0.02 -0.01,0.02 -0.02,0.02 -0.02,0.01 -0.02,0.02 -0.03,0.01 -0.02,0.01 -0.02,0.01 -0.02,0.02 -0.03,0 -0.02,0.01 -0.03,0.01 -0.02,0.01 -0.03,0 -0.02,0 -0.03,0.01 -0.03,0 c -0.29,0 -0.53,-0.24 -0.53,-0.53 0,-0.29 0.24,-0.53 0.53,-0.53 0.29,0 0.53,0.24 0.53,0.53 z"
       inkscape:connector-curvature="0"
       style="fill:#000000;stroke-width:0" /><path
       id="path4559"
       d="m 340.23161,675.33308 0,0.03 -0.01,0.02 0,0.03 0,0.03 -0.01,0.02 -0.01,0.03 -0.01,0.02 -0.01,0.02 -0.01,0.03 -0.01,0.02 -0.01,0.02 -0.01,0.02 -0.02,0.02 -0.02,0.02 -0.01,0.02 -0.02,0.02 -0.02,0.02 -0.02,0.02 -0.02,0.01 -0.02,0.02 -0.02,0.01 -0.02,0.01 -0.02,0.01 -0.03,0.02 -0.02,0 -0.03,0.01 -0.02,0.01 -0.03,0.01 -0.02,0 -0.03,0 -0.02,0.01 -0.03,0 c -0.29,0 -0.53,-0.24 -0.53,-0.53 0,-0.29 0.24,-0.53 0.53,-0.53 0.29,0 0.53,0.24 0.53,0.53 z"
       inkscape:connector-curvature="0"
       style="fill:#000000;stroke-width:0" /><path
       id="path4561"
       d="m 232.29,663.9 -0.06,0.41 v 2.94 h 1.34 c 1.49,0 1.49,-0.76 1.49,-1.47 0,-0.71 0,-1.47 -1.5,-1.47 h 0 -1.33 l 0.06,-0.41 h 1.76 c 1.38,0 2.53,0.71 2.53,1.88 0,1.09 -0.98,1.93 -2.63,1.93 h -4.15 v -0.46 h 1.07 v -5.88 h -1.07 v -0.47 c 0.38,0.03 1.35,0.03 1.78,0.03 0.43,0 1.4,0 1.78,-0.03 v 0.47 h -1.07 z"
       inkscape:connector-curvature="0"
       style="fill:#000000;stroke-width:0" /><path
       id="path4563"
       d="m 239.57,663.83 0,0.01 0,0 0,0.01 0,0.01 0,0.01 0,0.01 0,0 0,0.01 0,0.01 0,0 0,0.01 0,0 0,0.01 0,0.01 0,0 0,0.01 0,0 0,0.01 -0.01,0 0,0.01 0,0.01 0,0.01 -0.01,0 0,0.01 -0.01,0 0,0.01 -0.01,0 -0.01,0.01 0,0 -0.01,0 -0.01,0 -0.01,0.01 0,0 -0.01,0 -0.01,0 0,0 -0.01,0 0,0 -0.01,0 -0.01,0 0,0 -0.01,0 -0.01,0 0,0 -0.01,0 -0.01,0 -0.01,0 -0.01,0 -0.01,0 0,0 c -0.45,-0.44 -1.08,-0.44 -1.37,-0.44 v -0.25 c 0.17,0 0.63,0 1.01,0.19 v -3.55 c 0,-0.23 0,-0.32 -0.7,-0.32 h -0.26 v -0.25 c 0.12,0.01 0.98,0.03 1.24,0.03 0.21,0 1.09,-0.02 1.25,-0.03 v 0.25 h -0.27 c -0.7,0 -0.7,0.09 -0.7,0.32 z"
       inkscape:connector-curvature="0"
       style="fill:#000000;stroke-width:0" /><line
       id="line4565"
       y2="669.27002"
       x2="247.69"
       y1="657.31"
       x1="247.69"
       style="stroke-width:0.398" /><path
       id="path4567"
       d="m 256.54,663.9 -0.06,0.41 v 2.94 h 1.35 c 1.49,0 1.49,-0.76 1.49,-1.47 0,-0.71 0,-1.47 -1.5,-1.47 h 0 -1.34 l 0.06,-0.41 h 1.76 c 1.38,0 2.54,0.71 2.54,1.88 0,1.09 -0.99,1.93 -2.64,1.93 h -4.15 v -0.46 h 1.08 v -5.88 h -1.08 v -0.47 c 0.38,0.03 1.36,0.03 1.79,0.03 0.42,0 1.4,0 1.78,-0.03 v 0.47 h -1.08 z"
       inkscape:connector-curvature="0"
       style="fill:#000000;stroke-width:0" /><path
       id="path4569"
       d="m 263.83,663.83 0,0.01 0,0 0,0.01 0,0.01 0,0.01 0,0.01 0,0 0,0.01 0,0.01 0,0 0,0.01 0,0 0,0.01 0,0.01 0,0 0,0.01 -0.01,0 0,0.01 0,0 0,0.01 0,0.01 -0.01,0.01 0,0 -0.01,0.01 0,0 -0.01,0.01 0,0 -0.01,0.01 -0.01,0 0,0 -0.01,0 -0.01,0.01 -0.01,0 0,0 -0.01,0 0,0 -0.01,0 -0.01,0 0,0 -0.01,0 -0.01,0 0,0 -0.01,0 -0.01,0 -0.01,0 0,0 -0.01,0 -0.01,0 -0.01,0 -0.01,0 c -0.44,-0.44 -1.08,-0.44 -1.36,-0.44 v -0.25 c 0.16,0 0.62,0 1.01,0.19 v -3.55 c 0,-0.23 0,-0.32 -0.7,-0.32 h -0.26 v -0.25 c 0.12,0.01 0.98,0.03 1.24,0.03 0.21,0 1.09,-0.02 1.24,-0.03 v 0.25 h -0.26 c -0.7,0 -0.7,0.09 -0.7,0.32 z"
       inkscape:connector-curvature="0"
       style="fill:#000000;stroke-width:0" /><path
       id="path4571"
       d="m 268.84,663.9 -0.06,0.41 v 2.94 h 1.35 c 1.49,0 1.49,-0.76 1.49,-1.47 0,-0.71 0,-1.47 -1.5,-1.47 h 0 -1.34 l 0.06,-0.41 h 1.76 c 1.39,0 2.54,0.71 2.54,1.88 0,1.09 -0.99,1.93 -2.64,1.93 h -4.14 v -0.46 h 1.07 v -5.88 h -1.07 v -0.47 c 0.37,0.03 1.35,0.03 1.78,0.03 0.42,0 1.4,0 1.78,-0.03 v 0.47 h -1.08 z"
       inkscape:connector-curvature="0"
       style="fill:#000000;stroke-width:0" /><path
       id="path4573"
       d="m 277.39,661.62 0,0.14 0,0.14 -0.01,0.13 -0.01,0.13 -0.01,0.12 -0.01,0.12 -0.02,0.11 -0.02,0.12 -0.03,0.11 -0.03,0.1 -0.03,0.1 -0.04,0.1 -0.04,0.1 -0.05,0.1 -0.05,0.09 -0.03,0.05 -0.03,0.04 c -0.21,0.32 -0.65,0.6 -1.2,0.6 v -0.19 c 0.37,0 0.74,-0.23 0.86,-0.64 0.11,-0.37 0.12,-0.87 0.12,-1.48 0,-0.51 0,-1.03 -0.09,-1.47 -0.14,-0.63 -0.62,-0.78 -0.89,-0.78 h 0 c -0.32,0 -0.75,0.19 -0.89,0.76 -0.09,0.41 -0.09,0.98 -0.09,1.49 0,0.51 0,1.04 0.1,1.42 0.15,0.55 0.59,0.7 0.88,0.7 v 0.19 c -1.62,0 -1.62,-1.9 -1.62,-2.4 0,-0.5 0,-2.35 1.62,-2.35 1.61,0 1.61,1.85 1.61,2.35 z"
       inkscape:connector-curvature="0"
       style="fill:#000000;stroke-width:0" /><path
       id="path4575"
       d="m 293.1,663.9 -0.06,0.41 v 2.94 h 1.34 c 1.49,0 1.49,-0.76 1.49,-1.47 0,-0.71 0,-1.47 -1.5,-1.47 h 0 -1.33 l 0.06,-0.41 h 1.76 c 1.38,0 2.54,0.71 2.54,1.88 0,1.09 -0.99,1.93 -2.64,1.93 h -4.15 v -0.46 h 1.07 v -5.88 h -1.07 v -0.47 c 0.38,0.03 1.35,0.03 1.78,0.03 0.43,0 1.41,0 1.78,-0.03 v 0.47 h -1.07 z"
       inkscape:connector-curvature="0"
       style="fill:#000000;stroke-width:0" /><path
       id="path4577"
       d="m 300.39,663.83 0,0.01 0,0 0,0.01 0,0.01 0,0.01 0,0.01 0,0 0,0.01 0,0.01 0,0 0,0.01 0,0 -0.01,0.01 0,0.01 0,0 0,0.01 0,0 0,0.01 0,0 0,0.01 -0.01,0.01 0,0.01 0,0 -0.01,0.01 0,0 -0.01,0.01 -0.01,0 0,0.01 -0.01,0 -0.01,0 -0.01,0 -0.01,0.01 0,0 -0.01,0 0,0 -0.01,0 0,0 -0.01,0 -0.01,0 0,0 -0.01,0 -0.01,0 0,0 -0.01,0 -0.01,0 -0.01,0 0,0 -0.01,0 -0.01,0 -0.01,0 c -0.45,-0.44 -1.08,-0.44 -1.37,-0.44 v -0.25 c 0.17,0 0.63,0 1.01,0.19 v -3.55 c 0,-0.23 0,-0.32 -0.69,-0.32 h -0.27 v -0.25 c 0.13,0.01 0.99,0.03 1.24,0.03 0.22,0 1.1,-0.02 1.25,-0.03 v 0.25 h -0.27 c -0.69,0 -0.69,0.09 -0.69,0.32 z"
       inkscape:connector-curvature="0"
       style="fill:#000000;stroke-width:0" /><path
       id="path4579"
       d="m 305.4,663.9 -0.06,0.41 v 2.94 h 1.34 c 1.49,0 1.49,-0.76 1.49,-1.47 0,-0.71 0,-1.47 -1.5,-1.47 h 0 -1.33 l 0.06,-0.41 h 1.76 c 1.38,0 2.54,0.71 2.54,1.88 0,1.09 -0.99,1.93 -2.64,1.93 h -4.15 v -0.46 h 1.08 v -5.88 h -1.08 v -0.47 c 0.38,0.03 1.36,0.03 1.78,0.03 0.43,0 1.41,0 1.78,-0.03 v 0.47 h -1.07 z"
       inkscape:connector-curvature="0"
       style="fill:#000000;stroke-width:0" /><path
       id="path4581"
       d="m 312.69,663.83 0,0.01 0,0 0,0.01 0,0.01 0,0.01 0,0.01 0,0 0,0.01 0,0.01 0,0 0,0.01 0,0 0,0.01 0,0.01 -0.01,0 0,0.01 0,0 0,0.01 0,0 0,0.01 -0.01,0.01 0,0.01 0,0 -0.01,0.01 0,0 -0.01,0.01 0,0 -0.01,0.01 -0.01,0 -0.01,0 -0.01,0 0,0.01 -0.01,0 -0.01,0 0,0 -0.01,0 0,0 -0.01,0 0,0 -0.01,0 -0.01,0 -0.01,0 0,0 -0.01,0 -0.01,0 -0.01,0 0,0 -0.01,0 -0.01,0 -0.01,0 c -0.45,-0.44 -1.08,-0.44 -1.37,-0.44 v -0.25 c 0.17,0 0.63,0 1.01,0.19 v -3.55 c 0,-0.23 0,-0.32 -0.69,-0.32 h -0.27 v -0.25 c 0.13,0.01 0.99,0.03 1.24,0.03 0.22,0 1.1,-0.02 1.25,-0.03 v 0.25 h -0.26 c -0.7,0 -0.7,0.09 -0.7,0.32 z"
       inkscape:connector-curvature="0"
       style="fill:#000000;stroke-width:0" /><path
       id="path4583"
       d="m 329.66,663.9 -0.06,0.41 v 2.94 h 1.34 c 1.49,0 1.49,-0.76 1.49,-1.47 0,-0.71 0,-1.47 -1.5,-1.47 h 0 -1.33 l 0.06,-0.41 h 1.76 c 1.38,0 2.53,0.71 2.53,1.88 0,1.09 -0.98,1.93 -2.63,1.93 h -4.15 v -0.46 h 1.07 v -5.88 h -1.07 v -0.47 c 0.38,0.03 1.35,0.03 1.78,0.03 0.43,0 1.4,0 1.78,-0.03 v 0.47 h -1.07 z"
       inkscape:connector-curvature="0"
       style="fill:#000000;stroke-width:0" /><path
       id="path4585"
       d="m 336.95,663.83 -0.01,0.01 0,0 0,0.01 0,0.01 0,0.01 0,0.01 0,0 0,0.01 0,0.01 0,0 0,0.01 0,0 0,0.01 0,0.01 0,0 0,0.01 0,0 0,0.01 0,0 -0.01,0.01 0,0.01 0,0.01 -0.01,0 0,0.01 -0.01,0 0,0.01 -0.01,0 0,0.01 -0.01,0 -0.01,0 -0.01,0 -0.01,0.01 0,0 -0.01,0 0,0 -0.01,0 -0.01,0 0,0 -0.01,0 -0.01,0 0,0 -0.01,0 -0.01,0 0,0 -0.01,0 -0.01,0 -0.01,0 -0.01,0 0,0 -0.01,0 c -0.45,-0.44 -1.08,-0.44 -1.37,-0.44 v -0.25 c 0.17,0 0.63,0 1.01,0.19 v -3.55 c 0,-0.23 0,-0.32 -0.7,-0.32 h -0.26 v -0.25 c 0.13,0.01 0.98,0.03 1.24,0.03 0.22,0 1.09,-0.02 1.25,-0.03 v 0.25 h -0.27 c -0.69,0 -0.69,0.09 -0.69,0.32 z"
       inkscape:connector-curvature="0"
       style="fill:#000000;stroke-width:0" /><path
       id="path4587"
       d="m 341.96,663.9 -0.06,0.41 v 2.94 h 1.34 c 1.49,0 1.49,-0.76 1.49,-1.47 0,-0.71 0,-1.47 -1.5,-1.47 h 0 -1.33 l 0.06,-0.41 h 1.76 c 1.38,0 2.54,0.71 2.54,1.88 0,1.09 -0.99,1.93 -2.64,1.93 h -4.15 v -0.46 h 1.07 v -5.88 h -1.07 v -0.47 c 0.38,0.03 1.35,0.03 1.78,0.03 0.43,0 1.4,0 1.78,-0.03 v 0.47 h -1.07 z"
       inkscape:connector-curvature="0"
       style="fill:#000000;stroke-width:0" /><path
       id="path4589"
       d="m 350.43,660.67 h -0.24 c -0.02,-0.15 -0.09,-0.56 -0.18,-0.63 -0.05,-0.05 -0.59,-0.05 -0.69,-0.05 h -1.28 c 0.73,0.65 0.98,0.85 1.39,1.17 0.52,0.41 1,0.85 1,1.5 0,0.85 -0.74,1.36 -1.63,1.36 -0.86,0 -1.45,-0.6 -1.45,-1.24 0,-0.36 0.3,-0.39 0.37,-0.39 0.17,0 0.37,0.12 0.37,0.37 0,0.12 -0.05,0.36 -0.41,0.36 0.21,0.5 0.69,0.65 1.02,0.65 0.69,0 1.05,-0.54 1.05,-1.11 0,-0.6 -0.43,-1.08 -0.65,-1.33 l -1.68,-1.66 c -0.07,-0.06 -0.07,-0.07 -0.07,-0.27 h 2.87 z"
       inkscape:connector-curvature="0"
       style="fill:#000000;stroke-width:0" /><path
       id="path4591"
       d="m 370.861,662.59185 0,0.03 0,0.03 -0.01,0.02 0,0.03 -0.01,0.03 -0.01,0.02 0,0.03 -0.01,0.02 -0.01,0.02 -0.02,0.03 -0.01,0.02 -0.01,0.02 -0.02,0.02 -0.01,0.02 -0.02,0.02 -0.02,0.02 -0.02,0.01 -0.02,0.02 -0.01,0.02 -0.03,0.01 -0.02,0.02 -0.02,0.01 -0.02,0.01 -0.03,0.01 -0.02,0.01 -0.02,0.01 -0.03,0.01 -0.02,0 -0.03,0.01 -0.03,0 -0.02,0 -0.03,0 c -0.29,0 -0.53,-0.24 -0.53,-0.53 0,-0.28 0.24,-0.52 0.53,-0.52 0.29,0 0.53,0.24 0.53,0.52 z"
       inkscape:connector-curvature="0"
       style="fill:#000000;stroke-width:0" /><path
       id="path4593"
       d="m 373.631,662.59185 0,0.03 -0.01,0.03 0,0.02 0,0.03 -0.01,0.03 -0.01,0.02 -0.01,0.03 -0.01,0.02 -0.01,0.02 -0.01,0.03 -0.01,0.02 -0.01,0.02 -0.02,0.02 -0.02,0.02 -0.01,0.02 -0.02,0.02 -0.02,0.01 -0.02,0.02 -0.02,0.02 -0.02,0.01 -0.02,0.02 -0.02,0.01 -0.02,0.01 -0.03,0.01 -0.02,0.01 -0.03,0.01 -0.02,0.01 -0.03,0 -0.02,0.01 -0.03,0 -0.03,0 -0.02,0 c -0.29,0 -0.53,-0.24 -0.53,-0.53 0,-0.28 0.24,-0.52 0.53,-0.52 0.29,0 0.53,0.24 0.53,0.52 z"
       inkscape:connector-curvature="0"
       style="fill:#000000;stroke-width:0" /><path
       id="path4595"
       d="m 376.391,662.59185 0,0.03 0,0.03 0,0.02 -0.01,0.03 0,0.03 -0.01,0.02 -0.01,0.03 -0.01,0.02 -0.01,0.02 -0.01,0.03 -0.01,0.02 -0.02,0.02 -0.01,0.02 -0.02,0.02 -0.01,0.02 -0.02,0.02 -0.02,0.01 -0.02,0.02 -0.02,0.02 -0.02,0.01 -0.02,0.02 -0.02,0.01 -0.03,0.01 -0.02,0.01 -0.02,0.01 -0.03,0.01 -0.02,0.01 -0.03,0 -0.02,0.01 -0.03,0 -0.03,0 -0.02,0 c -0.29,0 -0.53,-0.24 -0.53,-0.53 0,-0.28 0.24,-0.52 0.53,-0.52 0.29,0 0.52,0.24 0.52,0.52 z"
       inkscape:connector-curvature="0"
       style="fill:#000000;stroke-width:0" /><path
       id="path4597"
       d="m 232.29,651.94 -0.06,0.41 v 2.94 h 1.34 c 1.49,0 1.49,-0.75 1.49,-1.47 0,-0.71 0,-1.47 -1.5,-1.47 h 0 -1.33 l 0.06,-0.41 h 1.76 c 1.38,0 2.53,0.72 2.53,1.88 0,1.09 -0.98,1.94 -2.63,1.94 h -4.15 v -0.47 h 1.07 v -5.88 h -1.07 v -0.47 c 0.38,0.03 1.35,0.03 1.78,0.03 0.43,0 1.4,0 1.78,-0.03 v 0.47 h -1.07 z"
       inkscape:connector-curvature="0"
       style="fill:#000000;stroke-width:0" /><path
       id="path4599"
       d="m 240.84,649.67 -0.01,0.14 0,0.13 -0.01,0.14 0,0.12 -0.02,0.13 -0.01,0.11 -0.02,0.12 -0.02,0.11 -0.03,0.11 -0.03,0.11 -0.03,0.1 -0.04,0.1 -0.04,0.1 -0.05,0.09 -0.05,0.1 -0.03,0.04 -0.03,0.05 c -0.21,0.32 -0.64,0.6 -1.2,0.6 v -0.2 c 0.38,0 0.74,-0.23 0.86,-0.63 0.11,-0.38 0.12,-0.88 0.12,-1.48 0,-0.52 0,-1.03 -0.09,-1.47 -0.14,-0.63 -0.61,-0.78 -0.89,-0.78 h 0 c -0.32,0 -0.75,0.18 -0.89,0.75 -0.09,0.41 -0.09,0.98 -0.09,1.5 0,0.51 0,1.03 0.1,1.42 0.15,0.55 0.59,0.69 0.88,0.69 v 0.2 c -1.62,0 -1.62,-1.9 -1.62,-2.4 0,-0.5 0,-2.36 1.62,-2.36 1.62,0 1.62,1.86 1.62,2.36 z"
       inkscape:connector-curvature="0"
       style="fill:#000000;stroke-width:0" /><line
       id="line4601"
       y2="657.31"
       x2="247.69"
       y1="645.35999"
       x1="247.69"
       style="stroke-width:0.398" /><path
       id="path4603"
       d="m 256.54,651.94 -0.06,0.41 v 2.94 h 1.35 c 1.49,0 1.49,-0.75 1.49,-1.47 0,-0.71 0,-1.47 -1.5,-1.47 h 0 -1.34 l 0.06,-0.41 h 1.76 c 1.38,0 2.54,0.72 2.54,1.88 0,1.09 -0.99,1.94 -2.64,1.94 h -4.15 v -0.47 h 1.08 v -5.88 h -1.08 v -0.47 c 0.38,0.03 1.36,0.03 1.79,0.03 0.42,0 1.4,0 1.78,-0.03 v 0.47 h -1.08 z"
       inkscape:connector-curvature="0"
       style="fill:#000000;stroke-width:0" /><path
       id="path4605"
       d="m 265.09,649.67 0,0.14 0,0.13 -0.01,0.14 -0.01,0.12 -0.01,0.13 -0.01,0.11 -0.02,0.12 -0.02,0.11 -0.03,0.11 -0.03,0.11 -0.03,0.1 -0.04,0.1 -0.04,0.1 -0.05,0.09 -0.05,0.1 -0.03,0.04 -0.03,0.05 c -0.22,0.32 -0.65,0.6 -1.2,0.6 v -0.2 c 0.37,0 0.73,-0.23 0.86,-0.63 0.11,-0.38 0.12,-0.88 0.12,-1.48 0,-0.52 0,-1.03 -0.09,-1.47 -0.14,-0.63 -0.62,-0.78 -0.89,-0.78 h 0 c -0.33,0 -0.75,0.18 -0.89,0.75 -0.1,0.41 -0.1,0.98 -0.1,1.5 0,0.51 0,1.03 0.11,1.42 0.14,0.55 0.59,0.69 0.88,0.69 v 0.2 c -1.62,0 -1.62,-1.9 -1.62,-2.4 0,-0.5 0,-2.36 1.62,-2.36 1.61,0 1.61,1.86 1.61,2.36 z"
       inkscape:connector-curvature="0"
       style="fill:#000000;stroke-width:0" /><path
       id="path4607"
       d="m 268.84,651.94 -0.06,0.41 v 2.94 h 1.35 c 1.49,0 1.49,-0.75 1.49,-1.47 0,-0.71 0,-1.47 -1.5,-1.47 h 0 -1.34 l 0.06,-0.41 h 1.76 c 1.39,0 2.54,0.72 2.54,1.88 0,1.09 -0.99,1.94 -2.64,1.94 h -4.14 v -0.47 h 1.07 v -5.88 h -1.07 v -0.47 c 0.37,0.03 1.35,0.03 1.78,0.03 0.42,0 1.4,0 1.78,-0.03 v 0.47 h -1.08 z"
       inkscape:connector-curvature="0"
       style="fill:#000000;stroke-width:0" /><path
       id="path4609"
       d="m 277.39,649.67 0,0.14 0,0.13 -0.01,0.14 -0.01,0.12 -0.01,0.13 -0.01,0.11 -0.02,0.12 -0.02,0.11 -0.03,0.11 -0.03,0.11 -0.03,0.1 -0.04,0.1 -0.04,0.1 -0.05,0.09 -0.05,0.1 -0.03,0.04 -0.03,0.05 c -0.21,0.32 -0.65,0.6 -1.2,0.6 v -0.2 c 0.37,0 0.74,-0.23 0.86,-0.63 0.11,-0.38 0.12,-0.88 0.12,-1.48 0,-0.52 0,-1.03 -0.09,-1.47 -0.14,-0.63 -0.62,-0.78 -0.89,-0.78 h 0 c -0.32,0 -0.75,0.18 -0.89,0.75 -0.09,0.41 -0.09,0.98 -0.09,1.5 0,0.51 0,1.03 0.1,1.42 0.15,0.55 0.59,0.69 0.88,0.69 v 0.2 c -1.62,0 -1.62,-1.9 -1.62,-2.4 0,-0.5 0,-2.36 1.62,-2.36 1.61,0 1.61,1.86 1.61,2.36 z"
       inkscape:connector-curvature="0"
       style="fill:#000000;stroke-width:0" /><path
       id="path4611"
       d="m 293.1,651.94 -0.06,0.41 v 2.94 h 1.34 c 1.49,0 1.49,-0.75 1.49,-1.47 0,-0.71 0,-1.47 -1.5,-1.47 h 0 -1.33 l 0.06,-0.41 h 1.76 c 1.38,0 2.54,0.72 2.54,1.88 0,1.09 -0.99,1.94 -2.64,1.94 h -4.15 v -0.47 h 1.07 v -5.88 h -1.07 v -0.47 c 0.38,0.03 1.35,0.03 1.78,0.03 0.43,0 1.41,0 1.78,-0.03 v 0.47 h -1.07 z"
       inkscape:connector-curvature="0"
       style="fill:#000000;stroke-width:0" /><path
       id="path4613"
       d="m 301.65,649.67 0,0.14 -0.01,0.13 0,0.14 -0.01,0.12 -0.01,0.13 -0.02,0.11 -0.01,0.12 -0.03,0.11 -0.02,0.11 -0.03,0.11 -0.03,0.1 -0.04,0.1 -0.05,0.1 -0.04,0.09 -0.05,0.1 -0.03,0.04 -0.03,0.05 c -0.22,0.32 -0.65,0.6 -1.21,0.6 v -0.2 c 0.38,0 0.74,-0.23 0.87,-0.63 0.11,-0.38 0.12,-0.88 0.12,-1.48 0,-0.52 0,-1.03 -0.1,-1.47 -0.13,-0.63 -0.61,-0.78 -0.89,-0.78 h 0 c -0.32,0 -0.74,0.18 -0.88,0.75 -0.1,0.41 -0.1,0.98 -0.1,1.5 0,0.51 0,1.03 0.1,1.42 0.15,0.55 0.6,0.69 0.88,0.69 v 0.2 c -1.61,0 -1.61,-1.9 -1.61,-2.4 0,-0.5 0,-2.36 1.61,-2.36 1.62,0 1.62,1.86 1.62,2.36 z"
       inkscape:connector-curvature="0"
       style="fill:#000000;stroke-width:0" /><path
       id="path4615"
       d="m 305.4,651.94 -0.06,0.41 v 2.94 h 1.34 c 1.49,0 1.49,-0.75 1.49,-1.47 0,-0.71 0,-1.47 -1.5,-1.47 h 0 -1.33 l 0.06,-0.41 h 1.76 c 1.38,0 2.54,0.72 2.54,1.88 0,1.09 -0.99,1.94 -2.64,1.94 h -4.15 v -0.47 h 1.08 v -5.88 h -1.08 v -0.47 c 0.38,0.03 1.36,0.03 1.78,0.03 0.43,0 1.41,0 1.78,-0.03 v 0.47 h -1.07 z"
       inkscape:connector-curvature="0"
       style="fill:#000000;stroke-width:0" /><path
       id="path4617"
       d="m 312.69,651.87 0,0.01 0,0.01 0,0.01 0,0.01 0,0 0,0.01 0,0.01 0,0 0,0.01 0,0.01 0,0 0,0.01 0,0.01 0,0 -0.01,0.01 0,0 0,0.01 0,0 0,0.01 0,0.01 -0.01,0.01 0,0 0,0.01 -0.01,0 0,0.01 -0.01,0 0,0.01 -0.01,0 -0.01,0 -0.01,0.01 -0.01,0 0,0 -0.01,0 -0.01,0 0,0 -0.01,0 0,0 -0.01,0 0,0 -0.01,0 -0.01,0.01 -0.01,0 0,0 -0.01,0 -0.01,0 -0.01,0 0,0 -0.01,0 -0.01,0 -0.01,0 c -0.45,-0.44 -1.08,-0.45 -1.37,-0.45 v -0.25 c 0.17,0 0.63,0 1.01,0.2 v -3.55 c 0,-0.23 0,-0.32 -0.69,-0.32 h -0.27 v -0.25 c 0.13,0.01 0.99,0.03 1.24,0.03 0.22,0 1.1,-0.02 1.25,-0.03 v 0.25 h -0.26 c -0.7,0 -0.7,0.09 -0.7,0.32 z"
       inkscape:connector-curvature="0"
       style="fill:#000000;stroke-width:0" /><path
       id="path4619"
       d="m 329.66,651.94 -0.06,0.41 v 2.94 h 1.34 c 1.49,0 1.49,-0.75 1.49,-1.47 0,-0.71 0,-1.47 -1.5,-1.47 h 0 -1.33 l 0.06,-0.41 h 1.76 c 1.38,0 2.53,0.72 2.53,1.88 0,1.09 -0.98,1.94 -2.63,1.94 h -4.15 v -0.47 h 1.07 v -5.88 h -1.07 v -0.47 c 0.38,0.03 1.35,0.03 1.78,0.03 0.43,0 1.4,0 1.78,-0.03 v 0.47 h -1.07 z"
       inkscape:connector-curvature="0"
       style="fill:#000000;stroke-width:0" /><path
       id="path4621"
       d="m 338.21,649.67 -0.01,0.14 0,0.13 0,0.14 -0.01,0.12 -0.01,0.13 -0.02,0.11 -0.02,0.12 -0.02,0.11 -0.02,0.11 -0.03,0.11 -0.04,0.1 -0.04,0.1 -0.04,0.1 -0.05,0.09 -0.05,0.1 -0.03,0.04 -0.02,0.05 c -0.22,0.32 -0.65,0.6 -1.21,0.6 v -0.2 c 0.38,0 0.74,-0.23 0.86,-0.63 0.12,-0.38 0.12,-0.88 0.12,-1.48 0,-0.52 0,-1.03 -0.09,-1.47 -0.14,-0.63 -0.61,-0.78 -0.89,-0.78 h 0 c -0.32,0 -0.74,0.18 -0.89,0.75 -0.09,0.41 -0.09,0.98 -0.09,1.5 0,0.51 0,1.03 0.1,1.42 0.15,0.55 0.59,0.69 0.88,0.69 v 0.2 c -1.62,0 -1.62,-1.9 -1.62,-2.4 0,-0.5 0,-2.36 1.62,-2.36 1.62,0 1.62,1.86 1.62,2.36 z"
       inkscape:connector-curvature="0"
       style="fill:#000000;stroke-width:0" /><path
       id="path4623"
       d="m 341.96,651.94 -0.06,0.41 v 2.94 h 1.34 c 1.49,0 1.49,-0.75 1.49,-1.47 0,-0.71 0,-1.47 -1.5,-1.47 h 0 -1.33 l 0.06,-0.41 h 1.76 c 1.38,0 2.54,0.72 2.54,1.88 0,1.09 -0.99,1.94 -2.64,1.94 h -4.15 v -0.47 h 1.07 v -5.88 h -1.07 v -0.47 c 0.38,0.03 1.35,0.03 1.78,0.03 0.43,0 1.4,0 1.78,-0.03 v 0.47 h -1.07 z"
       inkscape:connector-curvature="0"
       style="fill:#000000;stroke-width:0" /><path
       id="path4625"
       d="m 350.43,648.72 h -0.24 c -0.02,-0.16 -0.09,-0.57 -0.18,-0.64 -0.05,-0.04 -0.59,-0.04 -0.69,-0.04 h -1.28 c 0.73,0.65 0.98,0.84 1.39,1.17 0.52,0.41 1,0.84 1,1.5 0,0.84 -0.74,1.36 -1.63,1.36 -0.86,0 -1.45,-0.61 -1.45,-1.25 0,-0.35 0.3,-0.39 0.37,-0.39 0.17,0 0.37,0.12 0.37,0.37 0,0.13 -0.05,0.37 -0.41,0.37 0.21,0.49 0.69,0.65 1.02,0.65 0.69,0 1.05,-0.55 1.05,-1.11 0,-0.61 -0.43,-1.09 -0.65,-1.33 l -1.68,-1.66 c -0.07,-0.06 -0.07,-0.08 -0.07,-0.27 h 2.87 z"
       inkscape:connector-curvature="0"
       style="fill:#000000;stroke-width:0" /><path
       id="path4627"
       d="m 366.21,651.94 -0.06,0.41 v 2.94 h 1.35 c 1.49,0 1.49,-0.75 1.49,-1.47 0,-0.71 0,-1.47 -1.5,-1.47 h 0 -1.34 l 0.06,-0.41 h 1.76 c 1.39,0 2.54,0.72 2.54,1.88 0,1.09 -0.98,1.94 -2.63,1.94 h -4.15 v -0.47 h 1.07 v -5.88 h -1.07 v -0.47 c 0.37,0.03 1.35,0.03 1.78,0.03 0.42,0 1.4,0 1.78,-0.03 v 0.47 h -1.08 z"
       inkscape:connector-curvature="0"
       style="fill:#000000;stroke-width:0" /><path
       id="path4629"
       d="m 374.76,649.67 0,0.14 0,0.13 -0.01,0.14 -0.01,0.12 -0.01,0.13 -0.01,0.11 -0.02,0.12 -0.02,0.11 -0.03,0.11 -0.03,0.11 -0.03,0.1 -0.04,0.1 -0.04,0.1 -0.05,0.09 -0.05,0.1 -0.03,0.04 -0.03,0.05 c -0.21,0.32 -0.65,0.6 -1.2,0.6 v -0.2 c 0.37,0 0.74,-0.23 0.86,-0.63 0.11,-0.38 0.12,-0.88 0.12,-1.48 0,-0.52 0,-1.03 -0.09,-1.47 -0.14,-0.63 -0.61,-0.78 -0.89,-0.78 h 0 c -0.32,0 -0.75,0.18 -0.89,0.75 -0.09,0.41 -0.09,0.98 -0.09,1.5 0,0.51 0,1.03 0.1,1.42 0.15,0.55 0.59,0.69 0.88,0.69 v 0.2 c -1.62,0 -1.62,-1.9 -1.62,-2.4 0,-0.5 0,-2.36 1.62,-2.36 1.61,0 1.61,1.86 1.61,2.36 z"
       inkscape:connector-curvature="0"
       style="fill:#000000;stroke-width:0" /><path
       id="path4631"
       d="m 378.51,651.94 -0.06,0.41 v 2.94 h 1.35 c 1.49,0 1.49,-0.75 1.49,-1.47 0,-0.71 0,-1.47 -1.5,-1.47 h 0 -1.34 l 0.06,-0.41 h 1.76 c 1.39,0 2.54,0.72 2.54,1.88 0,1.09 -0.98,1.94 -2.63,1.94 h -4.15 v -0.47 h 1.07 v -5.88 h -1.07 v -0.47 c 0.37,0.03 1.35,0.03 1.78,0.03 0.43,0 1.4,0 1.78,-0.03 v 0.47 h -1.08 z"
       inkscape:connector-curvature="0"
       style="fill:#000000;stroke-width:0" /><path
       id="path4633"
       d="m 385.37,649.77 0.05,0 0.05,0 0.05,-0.01 0.05,-0.01 0.04,-0.01 0.05,-0.01 0.04,-0.01 0.05,-0.02 0.04,-0.02 0.04,-0.02 0.04,-0.02 0.04,-0.03 0.03,-0.02 0.04,-0.03 0.03,-0.04 0.03,-0.03 0.03,-0.04 0.03,-0.03 0.03,-0.04 0.02,-0.05 0.03,-0.04 0.02,-0.05 0.02,-0.05 0.02,-0.05 0.01,-0.05 0.02,-0.06 0.01,-0.06 0.01,-0.06 0,-0.06 0.01,-0.06 0,-0.07 0,-0.07 c 0,-0.86 -0.5,-1.12 -0.9,-1.12 -0.28,0 -0.89,0.08 -1.18,0.49 0.32,0.01 0.4,0.24 0.4,0.39 0,0.22 -0.17,0.38 -0.38,0.38 -0.2,0 -0.39,-0.12 -0.39,-0.4 0,-0.66 0.72,-1.08 1.56,-1.08 0.97,0 1.64,0.65 1.64,1.34 0,0.54 -0.44,1.09 -1.21,1.25 0.73,0.26 0.99,0.78 0.99,1.21 0,0.55 -0.63,0.96 -1.4,0.96 -0.78,0 -1.37,-0.38 -1.37,-0.94 0,-0.23 0.16,-0.36 0.36,-0.36 0.22,0 0.36,0.16 0.36,0.35 0,0.2 -0.14,0.35 -0.36,0.36 0.25,0.31 0.73,0.38 0.99,0.38 0.31,0 0.75,-0.15 0.75,-0.75 0,-0.29 -0.1,-0.62 -0.28,-0.83 -0.23,-0.26 -0.42,-0.28 -0.77,-0.3 -0.18,-0.01 -0.19,-0.01 -0.22,-0.02 -0.02,0 -0.07,-0.01 -0.07,-0.09 0,-0.1 0.06,-0.1 0.18,-0.1 z"
       inkscape:connector-curvature="0"
       style="fill:#000000;stroke-width:0" /><path
       id="path4635"
       d="m 403.99531,651.22777 0,0.03 0,0.02 0,0.03 -0.01,0.02 0,0.03 -0.01,0.02 -0.01,0.03 -0.01,0.02 -0.01,0.03 -0.01,0.02 -0.01,0.02 -0.02,0.02 -0.01,0.02 -0.02,0.02 -0.01,0.02 -0.02,0.02 -0.02,0.02 -0.02,0.01 -0.02,0.02 -0.02,0.02 -0.02,0.01 -0.02,0.01 -0.02,0.01 -0.03,0.01 -0.02,0.01 -0.03,0.01 -0.02,0.01 -0.03,0.01 -0.02,0 -0.03,0 -0.03,0.01 -0.02,0 c -0.29,0 -0.53,-0.24 -0.53,-0.53 0,-0.29 0.24,-0.53 0.53,-0.53 0.29,0 0.52,0.24 0.52,0.53 z"
       inkscape:connector-curvature="0"
       style="fill:#000000;stroke-width:0" /><path
       id="path4637"
       d="m 406.76531,651.22777 0,0.03 0,0.02 0,0.03 -0.01,0.02 0,0.03 -0.01,0.02 -0.01,0.03 -0.01,0.02 -0.01,0.03 -0.01,0.02 -0.01,0.02 -0.02,0.02 -0.01,0.02 -0.02,0.02 -0.02,0.02 -0.01,0.02 -0.02,0.02 -0.02,0.01 -0.02,0.02 -0.02,0.02 -0.02,0.01 -0.02,0.01 -0.03,0.01 -0.02,0.01 -0.02,0.01 -0.03,0.01 -0.02,0.01 -0.03,0.01 -0.03,0 -0.02,0 -0.03,0.01 -0.02,0 c -0.29,0 -0.53,-0.24 -0.53,-0.53 0,-0.29 0.24,-0.53 0.53,-0.53 0.28,0 0.52,0.24 0.52,0.53 z"
       inkscape:connector-curvature="0"
       style="fill:#000000;stroke-width:0" /><path
       id="path4639"
       d="m 409.53531,651.22777 0,0.03 0,0.02 -0.01,0.03 0,0.02 -0.01,0.03 0,0.02 -0.01,0.03 -0.01,0.02 -0.01,0.03 -0.01,0.02 -0.02,0.02 -0.01,0.02 -0.02,0.02 -0.01,0.02 -0.02,0.02 -0.02,0.02 -0.01,0.02 -0.02,0.01 -0.02,0.02 -0.02,0.02 -0.02,0.01 -0.03,0.01 -0.02,0.01 -0.02,0.01 -0.03,0.01 -0.02,0.01 -0.03,0.01 -0.02,0.01 -0.03,0 -0.02,0 -0.03,0.01 -0.03,0 c -0.29,0 -0.52,-0.24 -0.52,-0.53 0,-0.29 0.23,-0.53 0.52,-0.53 0.29,0 0.53,0.24 0.53,0.53 z"
       inkscape:connector-curvature="0"
       style="fill:#000000;stroke-width:0" /><line
       id="line4641"
       y2="645.15997"
       x2="438.42999"
       y1="645.15997"
       x1="223.42999"
       style="stroke-width:0.398" /><line
       id="line4643"
       y2="644.96002"
       x2="247.69"
       y1="633"
       x1="247.69"
       style="stroke-width:0.398" /><path
       id="path4645"
       d="m 262.69,639.59 -0.06,0.41 v 2.94 h 1.35 c 1.49,0 1.49,-0.76 1.49,-1.47 0,-0.71 0,-1.47 -1.51,-1.47 h 0 -1.33 l 0.06,-0.41 h 1.76 c 1.38,0 2.54,0.71 2.54,1.88 0,1.09 -0.99,1.94 -2.64,1.94 h -4.15 v -0.47 h 1.08 v -5.88 h -1.08 v -0.47 c 0.38,0.03 1.36,0.03 1.78,0.03 0.43,0 1.41,0 1.79,-0.03 v 0.47 h -1.08 z"
       inkscape:connector-curvature="0"
       style="fill:#000000;stroke-width:0" /><path
       id="path4647"
       d="m 271.24,637.31 0,0.14 0,0.14 -0.01,0.13 -0.01,0.13 -0.01,0.12 -0.01,0.12 -0.02,0.12 -0.02,0.11 -0.03,0.11 -0.03,0.1 -0.03,0.11 -0.04,0.1 -0.04,0.09 -0.05,0.1 -0.05,0.09 -0.03,0.05 -0.03,0.04 c -0.22,0.32 -0.65,0.6 -1.2,0.6 v -0.19 c 0.37,0 0.73,-0.23 0.86,-0.63 0.11,-0.38 0.12,-0.88 0.12,-1.49 0,-0.51 0,-1.03 -0.09,-1.46 -0.14,-0.64 -0.62,-0.79 -0.89,-0.79 h 0 c -0.32,0 -0.75,0.19 -0.89,0.76 -0.1,0.41 -0.1,0.98 -0.1,1.49 0,0.51 0,1.04 0.11,1.42 0.14,0.55 0.59,0.7 0.88,0.7 v 0.19 c -1.62,0 -1.62,-1.9 -1.62,-2.4 0,-0.5 0,-2.35 1.62,-2.35 1.61,0 1.61,1.85 1.61,2.35 z"
       inkscape:connector-curvature="0"
       style="fill:#000000;stroke-width:0" /><path
       id="path4649"
       d="m 299.25,639.59 -0.06,0.41 v 2.94 h 1.34 c 1.49,0 1.49,-0.76 1.49,-1.47 0,-0.71 0,-1.47 -1.5,-1.47 h 0 -1.33 l 0.06,-0.41 h 1.76 c 1.38,0 2.54,0.71 2.54,1.88 0,1.09 -0.99,1.94 -2.64,1.94 h -4.15 v -0.47 h 1.08 v -5.88 h -1.08 v -0.47 c 0.38,0.03 1.35,0.03 1.78,0.03 0.43,0 1.41,0 1.78,-0.03 v 0.47 h -1.07 z"
       inkscape:connector-curvature="0"
       style="fill:#000000;stroke-width:0" /><path
       id="path4651"
       d="m 306.54,639.52 0,0.01 0,0.01 0,0 0,0.01 0,0.01 0,0.01 0,0 0,0.01 0,0.01 0,0 0,0.01 0,0.01 0,0 0,0.01 -0.01,0 0,0.01 0,0 0,0.01 0,0.01 0,0 -0.01,0.01 0,0.01 0,0 -0.01,0.01 0,0.01 -0.01,0 0,0 -0.01,0.01 -0.01,0 -0.01,0 -0.01,0 0,0.01 -0.01,0 -0.01,0 0,0 -0.01,0 0,0 -0.01,0 0,0 -0.01,0 -0.01,0 -0.01,0 0,0 -0.01,0 -0.01,0 -0.01,0 0,0 -0.01,0 -0.01,0 -0.01,0 c -0.45,-0.44 -1.08,-0.44 -1.37,-0.44 v -0.25 c 0.17,0 0.63,0 1.02,0.19 v -3.55 c 0,-0.22 0,-0.32 -0.7,-0.32 h -0.27 v -0.25 c 0.13,0.01 0.99,0.03 1.24,0.03 0.22,0 1.1,-0.02 1.25,-0.03 v 0.25 h -0.26 c -0.7,0 -0.7,0.1 -0.7,0.32 z"
       inkscape:connector-curvature="0"
       style="fill:#000000;stroke-width:0" /><path
       id="path4653"
       d="m 335.81,639.59 -0.06,0.41 v 2.94 h 1.34 c 1.49,0 1.49,-0.76 1.49,-1.47 0,-0.71 0,-1.47 -1.5,-1.47 h 0 -1.33 l 0.06,-0.41 h 1.76 c 1.38,0 2.53,0.71 2.53,1.88 0,1.09 -0.98,1.94 -2.63,1.94 h -4.15 v -0.47 h 1.07 v -5.88 h -1.07 v -0.47 c 0.38,0.03 1.35,0.03 1.78,0.03 0.43,0 1.4,0 1.78,-0.03 v 0.47 h -1.07 z"
       inkscape:connector-curvature="0"
       style="fill:#000000;stroke-width:0" /><path
       id="path4655"
       d="m 344.28,636.36 h -0.24 c -0.02,-0.15 -0.09,-0.56 -0.18,-0.63 -0.05,-0.04 -0.59,-0.04 -0.69,-0.04 h -1.28 c 0.73,0.64 0.98,0.84 1.39,1.16 0.52,0.42 1,0.85 1,1.51 0,0.84 -0.74,1.35 -1.63,1.35 -0.86,0 -1.45,-0.6 -1.45,-1.24 0,-0.36 0.3,-0.39 0.37,-0.39 0.17,0 0.37,0.12 0.37,0.37 0,0.12 -0.05,0.37 -0.41,0.37 0.21,0.49 0.69,0.64 1.02,0.64 0.69,0 1.05,-0.54 1.05,-1.1 0,-0.61 -0.43,-1.09 -0.65,-1.34 l -1.68,-1.65 c -0.07,-0.07 -0.07,-0.08 -0.07,-0.28 h 2.87 z"
       inkscape:connector-curvature="0"
       style="fill:#000000;stroke-width:0" /><path
       id="path4657"
       d="M 372.36,639.59 372.3,640 v 2.94 h 1.35 c 1.49,0 1.49,-0.76 1.49,-1.47 0,-0.71 0,-1.47 -1.5,-1.47 h 0 -1.34 l 0.06,-0.41 h 1.76 c 1.39,0 2.54,0.71 2.54,1.88 0,1.09 -0.98,1.94 -2.64,1.94 h -4.14 v -0.47 h 1.07 v -5.88 h -1.07 v -0.47 c 0.37,0.03 1.35,0.03 1.78,0.03 0.42,0 1.4,0 1.78,-0.03 v 0.47 h -1.08 z"
       inkscape:connector-curvature="0"
       style="fill:#000000;stroke-width:0" /><path
       id="path4659"
       d="m 379.22,637.42 0.05,0 0.05,-0.01 0.05,0 0.05,-0.01 0.04,-0.01 0.05,-0.01 0.04,-0.02 0.05,-0.01 0.04,-0.02 0.04,-0.02 0.04,-0.02 0.04,-0.03 0.03,-0.03 0.04,-0.03 0.03,-0.03 0.03,-0.03 0.03,-0.04 0.03,-0.04 0.03,-0.04 0.02,-0.04 0.03,-0.05 0.02,-0.04 0.02,-0.05 0.02,-0.05 0.01,-0.06 0.02,-0.05 0.01,-0.06 0.01,-0.06 0,-0.06 0.01,-0.07 0,-0.06 0,-0.07 c 0,-0.86 -0.5,-1.12 -0.9,-1.12 -0.28,0 -0.89,0.08 -1.18,0.48 0.32,0.02 0.4,0.25 0.4,0.39 0,0.23 -0.17,0.39 -0.38,0.39 -0.2,0 -0.39,-0.12 -0.39,-0.41 0,-0.65 0.72,-1.07 1.56,-1.07 0.97,0 1.64,0.64 1.64,1.34 0,0.54 -0.45,1.08 -1.21,1.24 0.73,0.27 0.99,0.79 0.99,1.21 0,0.55 -0.63,0.96 -1.4,0.96 -0.78,0 -1.37,-0.37 -1.37,-0.93 0,-0.24 0.16,-0.37 0.36,-0.37 0.22,0 0.36,0.16 0.36,0.36 0,0.2 -0.14,0.34 -0.36,0.36 0.25,0.3 0.73,0.38 0.99,0.38 0.31,0 0.75,-0.15 0.75,-0.76 0,-0.29 -0.1,-0.61 -0.28,-0.83 -0.23,-0.26 -0.43,-0.27 -0.77,-0.29 -0.18,-0.02 -0.19,-0.02 -0.23,-0.03 -0.01,0 -0.07,-0.01 -0.07,-0.08 0,-0.1 0.07,-0.1 0.19,-0.1 z"
       inkscape:connector-curvature="0"
       style="fill:#000000;stroke-width:0" /><path
       id="path4661"
       d="m 402.77,639.59 -0.06,0.41 v 2.94 h 1.34 c 1.5,0 1.5,-0.76 1.5,-1.47 0,-0.71 0,-1.47 -1.51,-1.47 h 0 -1.33 l 0.06,-0.41 h 1.76 c 1.38,0 2.54,0.71 2.54,1.88 0,1.09 -0.99,1.94 -2.64,1.94 h -4.15 v -0.47 h 1.08 v -5.88 h -1.08 v -0.47 c 0.38,0.03 1.36,0.03 1.78,0.03 0.43,0 1.41,0 1.79,-0.03 v 0.47 h -1.08 z"
       inkscape:connector-curvature="0"
       style="fill:#000000;stroke-width:0" /><path
       id="path4663"
       d="m 411.41,636.23 v 0.26 h -0.77 v 3.1 c 0,0.14 0,0.19 -0.16,0.19 -0.08,0 -0.11,0 -0.18,-0.1 l -2.3,-3.19 v -0.26 h 2.05 l 0.05,0.26 h -1.84 l 1.84,2.54 v -2.54 l -0.05,-0.26 v -0.57 c 0,-0.23 0,-0.32 -0.57,-0.32 h -0.19 v -0.25 c 0.35,0.02 0.8,0.03 1.05,0.03 0.26,0 0.7,-0.01 1.05,-0.03 v 0.25 h -0.19 c -0.56,0 -0.56,0.09 -0.56,0.32 v 0.57 z"
       inkscape:connector-curvature="0"
       style="fill:#000000;stroke-width:0" /><path
       id="path4665"
       d="m 425.66938,639.07308 0,0.02 0,0.03 -0.01,0.03 0,0.02 -0.01,0.03 0,0.02 -0.01,0.03 -0.01,0.02 -0.01,0.02 -0.01,0.03 -0.02,0.02 -0.01,0.02 -0.01,0.02 -0.02,0.02 -0.02,0.02 -0.01,0.02 -0.02,0.02 -0.02,0.01 -0.02,0.02 -0.02,0.01 -0.02,0.02 -0.03,0.01 -0.02,0.01 -0.02,0.01 -0.03,0.01 -0.02,0.01 -0.02,0.01 -0.03,0 -0.03,0.01 -0.02,0 -0.03,0 -0.03,0 c -0.29,0 -0.52,-0.23 -0.52,-0.52 0,-0.29 0.23,-0.53 0.52,-0.53 0.29,0 0.53,0.24 0.53,0.53 z"
       inkscape:connector-curvature="0"
       style="fill:#000000;stroke-width:0" /><path
       id="path4667"
       d="m 428.43938,639.07308 0,0.02 0,0.03 -0.01,0.03 0,0.02 -0.01,0.03 0,0.02 -0.01,0.03 -0.01,0.02 -0.01,0.02 -0.02,0.03 -0.01,0.02 -0.01,0.02 -0.02,0.02 -0.01,0.02 -0.02,0.02 -0.02,0.02 -0.01,0.02 -0.02,0.01 -0.02,0.02 -0.02,0.01 -0.03,0.02 -0.02,0.01 -0.02,0.01 -0.02,0.01 -0.03,0.01 -0.02,0.01 -0.03,0.01 -0.02,0 -0.03,0.01 -0.02,0 -0.03,0 -0.03,0 c -0.29,0 -0.53,-0.23 -0.53,-0.52 0,-0.29 0.24,-0.53 0.53,-0.53 0.29,0 0.53,0.24 0.53,0.53 z"
       inkscape:connector-curvature="0"
       style="fill:#000000;stroke-width:0" /><path
       id="path4669"
       d="m 431.20938,639.07308 0,0.02 -0.01,0.03 0,0.03 0,0.02 -0.01,0.03 -0.01,0.02 -0.01,0.03 -0.01,0.02 -0.01,0.02 -0.01,0.03 -0.01,0.02 -0.01,0.02 -0.02,0.02 -0.01,0.02 -0.02,0.02 -0.02,0.02 -0.02,0.02 -0.02,0.01 -0.02,0.02 -0.02,0.01 -0.02,0.02 -0.02,0.01 -0.02,0.01 -0.03,0.01 -0.02,0.01 -0.03,0.01 -0.02,0.01 -0.03,0 -0.02,0.01 -0.03,0 -0.02,0 -0.03,0 c -0.29,0 -0.53,-0.23 -0.53,-0.52 0,-0.29 0.24,-0.53 0.53,-0.53 0.29,0 0.53,0.24 0.53,0.53 z"
       inkscape:connector-curvature="0"
       style="fill:#000000;stroke-width:0" /></g></svg>
